%TF.GenerationSoftware,KiCad,Pcbnew,(5.1.10)-1*%
%TF.CreationDate,2021-11-09T21:50:18+08:00*%
%TF.ProjectId,S3_Schematic,53335f53-6368-4656-9d61-7469632e6b69,rev?*%
%TF.SameCoordinates,Original*%
%TF.FileFunction,Paste,Bot*%
%TF.FilePolarity,Positive*%
%FSLAX46Y46*%
G04 Gerber Fmt 4.6, Leading zero omitted, Abs format (unit mm)*
G04 Created by KiCad (PCBNEW (5.1.10)-1) date 2021-11-09 21:50:18*
%MOMM*%
%LPD*%
G01*
G04 APERTURE LIST*
%ADD10R,1.100000X0.250000*%
G04 APERTURE END LIST*
%TO.C,C68*%
G36*
G01*
X148295000Y-45600000D02*
X149245000Y-45600000D01*
G75*
G02*
X149495000Y-45850000I0J-250000D01*
G01*
X149495000Y-46350000D01*
G75*
G02*
X149245000Y-46600000I-250000J0D01*
G01*
X148295000Y-46600000D01*
G75*
G02*
X148045000Y-46350000I0J250000D01*
G01*
X148045000Y-45850000D01*
G75*
G02*
X148295000Y-45600000I250000J0D01*
G01*
G37*
G36*
G01*
X148295000Y-43700000D02*
X149245000Y-43700000D01*
G75*
G02*
X149495000Y-43950000I0J-250000D01*
G01*
X149495000Y-44450000D01*
G75*
G02*
X149245000Y-44700000I-250000J0D01*
G01*
X148295000Y-44700000D01*
G75*
G02*
X148045000Y-44450000I0J250000D01*
G01*
X148045000Y-43950000D01*
G75*
G02*
X148295000Y-43700000I250000J0D01*
G01*
G37*
%TD*%
%TO.C,C67*%
G36*
G01*
X215310000Y-109913000D02*
X215310000Y-108963000D01*
G75*
G02*
X215560000Y-108713000I250000J0D01*
G01*
X216060000Y-108713000D01*
G75*
G02*
X216310000Y-108963000I0J-250000D01*
G01*
X216310000Y-109913000D01*
G75*
G02*
X216060000Y-110163000I-250000J0D01*
G01*
X215560000Y-110163000D01*
G75*
G02*
X215310000Y-109913000I0J250000D01*
G01*
G37*
G36*
G01*
X213410000Y-109913000D02*
X213410000Y-108963000D01*
G75*
G02*
X213660000Y-108713000I250000J0D01*
G01*
X214160000Y-108713000D01*
G75*
G02*
X214410000Y-108963000I0J-250000D01*
G01*
X214410000Y-109913000D01*
G75*
G02*
X214160000Y-110163000I-250000J0D01*
G01*
X213660000Y-110163000D01*
G75*
G02*
X213410000Y-109913000I0J250000D01*
G01*
G37*
%TD*%
%TO.C,C66*%
G36*
G01*
X235230000Y-39825000D02*
X235230000Y-40775000D01*
G75*
G02*
X234980000Y-41025000I-250000J0D01*
G01*
X234480000Y-41025000D01*
G75*
G02*
X234230000Y-40775000I0J250000D01*
G01*
X234230000Y-39825000D01*
G75*
G02*
X234480000Y-39575000I250000J0D01*
G01*
X234980000Y-39575000D01*
G75*
G02*
X235230000Y-39825000I0J-250000D01*
G01*
G37*
G36*
G01*
X237130000Y-39825000D02*
X237130000Y-40775000D01*
G75*
G02*
X236880000Y-41025000I-250000J0D01*
G01*
X236380000Y-41025000D01*
G75*
G02*
X236130000Y-40775000I0J250000D01*
G01*
X236130000Y-39825000D01*
G75*
G02*
X236380000Y-39575000I250000J0D01*
G01*
X236880000Y-39575000D01*
G75*
G02*
X237130000Y-39825000I0J-250000D01*
G01*
G37*
%TD*%
%TO.C,C65*%
G36*
G01*
X74645000Y-135330000D02*
X73695000Y-135330000D01*
G75*
G02*
X73445000Y-135080000I0J250000D01*
G01*
X73445000Y-134580000D01*
G75*
G02*
X73695000Y-134330000I250000J0D01*
G01*
X74645000Y-134330000D01*
G75*
G02*
X74895000Y-134580000I0J-250000D01*
G01*
X74895000Y-135080000D01*
G75*
G02*
X74645000Y-135330000I-250000J0D01*
G01*
G37*
G36*
G01*
X74645000Y-137230000D02*
X73695000Y-137230000D01*
G75*
G02*
X73445000Y-136980000I0J250000D01*
G01*
X73445000Y-136480000D01*
G75*
G02*
X73695000Y-136230000I250000J0D01*
G01*
X74645000Y-136230000D01*
G75*
G02*
X74895000Y-136480000I0J-250000D01*
G01*
X74895000Y-136980000D01*
G75*
G02*
X74645000Y-137230000I-250000J0D01*
G01*
G37*
%TD*%
%TO.C,C63*%
G36*
G01*
X173272000Y-135330000D02*
X172322000Y-135330000D01*
G75*
G02*
X172072000Y-135080000I0J250000D01*
G01*
X172072000Y-134580000D01*
G75*
G02*
X172322000Y-134330000I250000J0D01*
G01*
X173272000Y-134330000D01*
G75*
G02*
X173522000Y-134580000I0J-250000D01*
G01*
X173522000Y-135080000D01*
G75*
G02*
X173272000Y-135330000I-250000J0D01*
G01*
G37*
G36*
G01*
X173272000Y-137230000D02*
X172322000Y-137230000D01*
G75*
G02*
X172072000Y-136980000I0J250000D01*
G01*
X172072000Y-136480000D01*
G75*
G02*
X172322000Y-136230000I250000J0D01*
G01*
X173272000Y-136230000D01*
G75*
G02*
X173522000Y-136480000I0J-250000D01*
G01*
X173522000Y-136980000D01*
G75*
G02*
X173272000Y-137230000I-250000J0D01*
G01*
G37*
%TD*%
%TO.C,C62*%
G36*
G01*
X153374000Y-135330000D02*
X152424000Y-135330000D01*
G75*
G02*
X152174000Y-135080000I0J250000D01*
G01*
X152174000Y-134580000D01*
G75*
G02*
X152424000Y-134330000I250000J0D01*
G01*
X153374000Y-134330000D01*
G75*
G02*
X153624000Y-134580000I0J-250000D01*
G01*
X153624000Y-135080000D01*
G75*
G02*
X153374000Y-135330000I-250000J0D01*
G01*
G37*
G36*
G01*
X153374000Y-137230000D02*
X152424000Y-137230000D01*
G75*
G02*
X152174000Y-136980000I0J250000D01*
G01*
X152174000Y-136480000D01*
G75*
G02*
X152424000Y-136230000I250000J0D01*
G01*
X153374000Y-136230000D01*
G75*
G02*
X153624000Y-136480000I0J-250000D01*
G01*
X153624000Y-136980000D01*
G75*
G02*
X153374000Y-137230000I-250000J0D01*
G01*
G37*
%TD*%
%TO.C,C61*%
G36*
G01*
X148215000Y-34420000D02*
X149165000Y-34420000D01*
G75*
G02*
X149415000Y-34670000I0J-250000D01*
G01*
X149415000Y-35170000D01*
G75*
G02*
X149165000Y-35420000I-250000J0D01*
G01*
X148215000Y-35420000D01*
G75*
G02*
X147965000Y-35170000I0J250000D01*
G01*
X147965000Y-34670000D01*
G75*
G02*
X148215000Y-34420000I250000J0D01*
G01*
G37*
G36*
G01*
X148215000Y-32520000D02*
X149165000Y-32520000D01*
G75*
G02*
X149415000Y-32770000I0J-250000D01*
G01*
X149415000Y-33270000D01*
G75*
G02*
X149165000Y-33520000I-250000J0D01*
G01*
X148215000Y-33520000D01*
G75*
G02*
X147965000Y-33270000I0J250000D01*
G01*
X147965000Y-32770000D01*
G75*
G02*
X148215000Y-32520000I250000J0D01*
G01*
G37*
%TD*%
%TO.C,C60*%
G36*
G01*
X210112000Y-58625000D02*
X210112000Y-59575000D01*
G75*
G02*
X209862000Y-59825000I-250000J0D01*
G01*
X209362000Y-59825000D01*
G75*
G02*
X209112000Y-59575000I0J250000D01*
G01*
X209112000Y-58625000D01*
G75*
G02*
X209362000Y-58375000I250000J0D01*
G01*
X209862000Y-58375000D01*
G75*
G02*
X210112000Y-58625000I0J-250000D01*
G01*
G37*
G36*
G01*
X212012000Y-58625000D02*
X212012000Y-59575000D01*
G75*
G02*
X211762000Y-59825000I-250000J0D01*
G01*
X211262000Y-59825000D01*
G75*
G02*
X211012000Y-59575000I0J250000D01*
G01*
X211012000Y-58625000D01*
G75*
G02*
X211262000Y-58375000I250000J0D01*
G01*
X211762000Y-58375000D01*
G75*
G02*
X212012000Y-58625000I0J-250000D01*
G01*
G37*
%TD*%
%TO.C,C59*%
G36*
G01*
X106680000Y-42375000D02*
X106680000Y-43325000D01*
G75*
G02*
X106430000Y-43575000I-250000J0D01*
G01*
X105930000Y-43575000D01*
G75*
G02*
X105680000Y-43325000I0J250000D01*
G01*
X105680000Y-42375000D01*
G75*
G02*
X105930000Y-42125000I250000J0D01*
G01*
X106430000Y-42125000D01*
G75*
G02*
X106680000Y-42375000I0J-250000D01*
G01*
G37*
G36*
G01*
X108580000Y-42375000D02*
X108580000Y-43325000D01*
G75*
G02*
X108330000Y-43575000I-250000J0D01*
G01*
X107830000Y-43575000D01*
G75*
G02*
X107580000Y-43325000I0J250000D01*
G01*
X107580000Y-42375000D01*
G75*
G02*
X107830000Y-42125000I250000J0D01*
G01*
X108330000Y-42125000D01*
G75*
G02*
X108580000Y-42375000I0J-250000D01*
G01*
G37*
%TD*%
%TO.C,C57*%
G36*
G01*
X113392000Y-63090000D02*
X112442000Y-63090000D01*
G75*
G02*
X112192000Y-62840000I0J250000D01*
G01*
X112192000Y-62340000D01*
G75*
G02*
X112442000Y-62090000I250000J0D01*
G01*
X113392000Y-62090000D01*
G75*
G02*
X113642000Y-62340000I0J-250000D01*
G01*
X113642000Y-62840000D01*
G75*
G02*
X113392000Y-63090000I-250000J0D01*
G01*
G37*
G36*
G01*
X113392000Y-64990000D02*
X112442000Y-64990000D01*
G75*
G02*
X112192000Y-64740000I0J250000D01*
G01*
X112192000Y-64240000D01*
G75*
G02*
X112442000Y-63990000I250000J0D01*
G01*
X113392000Y-63990000D01*
G75*
G02*
X113642000Y-64240000I0J-250000D01*
G01*
X113642000Y-64740000D01*
G75*
G02*
X113392000Y-64990000I-250000J0D01*
G01*
G37*
%TD*%
%TO.C,C56*%
G36*
G01*
X212512000Y-38855000D02*
X212512000Y-39805000D01*
G75*
G02*
X212262000Y-40055000I-250000J0D01*
G01*
X211762000Y-40055000D01*
G75*
G02*
X211512000Y-39805000I0J250000D01*
G01*
X211512000Y-38855000D01*
G75*
G02*
X211762000Y-38605000I250000J0D01*
G01*
X212262000Y-38605000D01*
G75*
G02*
X212512000Y-38855000I0J-250000D01*
G01*
G37*
G36*
G01*
X214412000Y-38855000D02*
X214412000Y-39805000D01*
G75*
G02*
X214162000Y-40055000I-250000J0D01*
G01*
X213662000Y-40055000D01*
G75*
G02*
X213412000Y-39805000I0J250000D01*
G01*
X213412000Y-38855000D01*
G75*
G02*
X213662000Y-38605000I250000J0D01*
G01*
X214162000Y-38605000D01*
G75*
G02*
X214412000Y-38855000I0J-250000D01*
G01*
G37*
%TD*%
%TO.C,C54*%
G36*
G01*
X88036900Y-135330000D02*
X87086900Y-135330000D01*
G75*
G02*
X86836900Y-135080000I0J250000D01*
G01*
X86836900Y-134580000D01*
G75*
G02*
X87086900Y-134330000I250000J0D01*
G01*
X88036900Y-134330000D01*
G75*
G02*
X88286900Y-134580000I0J-250000D01*
G01*
X88286900Y-135080000D01*
G75*
G02*
X88036900Y-135330000I-250000J0D01*
G01*
G37*
G36*
G01*
X88036900Y-137230000D02*
X87086900Y-137230000D01*
G75*
G02*
X86836900Y-136980000I0J250000D01*
G01*
X86836900Y-136480000D01*
G75*
G02*
X87086900Y-136230000I250000J0D01*
G01*
X88036900Y-136230000D01*
G75*
G02*
X88286900Y-136480000I0J-250000D01*
G01*
X88286900Y-136980000D01*
G75*
G02*
X88036900Y-137230000I-250000J0D01*
G01*
G37*
%TD*%
%TO.C,C51*%
G36*
G01*
X236462000Y-116173000D02*
X237412000Y-116173000D01*
G75*
G02*
X237662000Y-116423000I0J-250000D01*
G01*
X237662000Y-116923000D01*
G75*
G02*
X237412000Y-117173000I-250000J0D01*
G01*
X236462000Y-117173000D01*
G75*
G02*
X236212000Y-116923000I0J250000D01*
G01*
X236212000Y-116423000D01*
G75*
G02*
X236462000Y-116173000I250000J0D01*
G01*
G37*
G36*
G01*
X236462000Y-114273000D02*
X237412000Y-114273000D01*
G75*
G02*
X237662000Y-114523000I0J-250000D01*
G01*
X237662000Y-115023000D01*
G75*
G02*
X237412000Y-115273000I-250000J0D01*
G01*
X236462000Y-115273000D01*
G75*
G02*
X236212000Y-115023000I0J250000D01*
G01*
X236212000Y-114523000D01*
G75*
G02*
X236462000Y-114273000I250000J0D01*
G01*
G37*
%TD*%
%TO.C,C50*%
G36*
G01*
X210312000Y-49155000D02*
X210312000Y-50105000D01*
G75*
G02*
X210062000Y-50355000I-250000J0D01*
G01*
X209562000Y-50355000D01*
G75*
G02*
X209312000Y-50105000I0J250000D01*
G01*
X209312000Y-49155000D01*
G75*
G02*
X209562000Y-48905000I250000J0D01*
G01*
X210062000Y-48905000D01*
G75*
G02*
X210312000Y-49155000I0J-250000D01*
G01*
G37*
G36*
G01*
X212212000Y-49155000D02*
X212212000Y-50105000D01*
G75*
G02*
X211962000Y-50355000I-250000J0D01*
G01*
X211462000Y-50355000D01*
G75*
G02*
X211212000Y-50105000I0J250000D01*
G01*
X211212000Y-49155000D01*
G75*
G02*
X211462000Y-48905000I250000J0D01*
G01*
X211962000Y-48905000D01*
G75*
G02*
X212212000Y-49155000I0J-250000D01*
G01*
G37*
%TD*%
%TO.C,C49*%
G36*
G01*
X235180000Y-65725000D02*
X235180000Y-66675000D01*
G75*
G02*
X234930000Y-66925000I-250000J0D01*
G01*
X234430000Y-66925000D01*
G75*
G02*
X234180000Y-66675000I0J250000D01*
G01*
X234180000Y-65725000D01*
G75*
G02*
X234430000Y-65475000I250000J0D01*
G01*
X234930000Y-65475000D01*
G75*
G02*
X235180000Y-65725000I0J-250000D01*
G01*
G37*
G36*
G01*
X237080000Y-65725000D02*
X237080000Y-66675000D01*
G75*
G02*
X236830000Y-66925000I-250000J0D01*
G01*
X236330000Y-66925000D01*
G75*
G02*
X236080000Y-66675000I0J250000D01*
G01*
X236080000Y-65725000D01*
G75*
G02*
X236330000Y-65475000I250000J0D01*
G01*
X236830000Y-65475000D01*
G75*
G02*
X237080000Y-65725000I0J-250000D01*
G01*
G37*
%TD*%
%TO.C,C48*%
G36*
G01*
X80212500Y-95985000D02*
X80212500Y-95035000D01*
G75*
G02*
X80462500Y-94785000I250000J0D01*
G01*
X80962500Y-94785000D01*
G75*
G02*
X81212500Y-95035000I0J-250000D01*
G01*
X81212500Y-95985000D01*
G75*
G02*
X80962500Y-96235000I-250000J0D01*
G01*
X80462500Y-96235000D01*
G75*
G02*
X80212500Y-95985000I0J250000D01*
G01*
G37*
G36*
G01*
X78312500Y-95985000D02*
X78312500Y-95035000D01*
G75*
G02*
X78562500Y-94785000I250000J0D01*
G01*
X79062500Y-94785000D01*
G75*
G02*
X79312500Y-95035000I0J-250000D01*
G01*
X79312500Y-95985000D01*
G75*
G02*
X79062500Y-96235000I-250000J0D01*
G01*
X78562500Y-96235000D01*
G75*
G02*
X78312500Y-95985000I0J250000D01*
G01*
G37*
%TD*%
%TO.C,C45*%
G36*
G01*
X189420000Y-77065000D02*
X189420000Y-76115000D01*
G75*
G02*
X189670000Y-75865000I250000J0D01*
G01*
X190170000Y-75865000D01*
G75*
G02*
X190420000Y-76115000I0J-250000D01*
G01*
X190420000Y-77065000D01*
G75*
G02*
X190170000Y-77315000I-250000J0D01*
G01*
X189670000Y-77315000D01*
G75*
G02*
X189420000Y-77065000I0J250000D01*
G01*
G37*
G36*
G01*
X187520000Y-77065000D02*
X187520000Y-76115000D01*
G75*
G02*
X187770000Y-75865000I250000J0D01*
G01*
X188270000Y-75865000D01*
G75*
G02*
X188520000Y-76115000I0J-250000D01*
G01*
X188520000Y-77065000D01*
G75*
G02*
X188270000Y-77315000I-250000J0D01*
G01*
X187770000Y-77315000D01*
G75*
G02*
X187520000Y-77065000I0J250000D01*
G01*
G37*
%TD*%
%TO.C,C44*%
G36*
G01*
X99470000Y-42295000D02*
X99470000Y-43245000D01*
G75*
G02*
X99220000Y-43495000I-250000J0D01*
G01*
X98720000Y-43495000D01*
G75*
G02*
X98470000Y-43245000I0J250000D01*
G01*
X98470000Y-42295000D01*
G75*
G02*
X98720000Y-42045000I250000J0D01*
G01*
X99220000Y-42045000D01*
G75*
G02*
X99470000Y-42295000I0J-250000D01*
G01*
G37*
G36*
G01*
X101370000Y-42295000D02*
X101370000Y-43245000D01*
G75*
G02*
X101120000Y-43495000I-250000J0D01*
G01*
X100620000Y-43495000D01*
G75*
G02*
X100370000Y-43245000I0J250000D01*
G01*
X100370000Y-42295000D01*
G75*
G02*
X100620000Y-42045000I250000J0D01*
G01*
X101120000Y-42045000D01*
G75*
G02*
X101370000Y-42295000I0J-250000D01*
G01*
G37*
%TD*%
%TO.C,C43*%
G36*
G01*
X199773000Y-100875000D02*
X199773000Y-99925000D01*
G75*
G02*
X200023000Y-99675000I250000J0D01*
G01*
X200523000Y-99675000D01*
G75*
G02*
X200773000Y-99925000I0J-250000D01*
G01*
X200773000Y-100875000D01*
G75*
G02*
X200523000Y-101125000I-250000J0D01*
G01*
X200023000Y-101125000D01*
G75*
G02*
X199773000Y-100875000I0J250000D01*
G01*
G37*
G36*
G01*
X197873000Y-100875000D02*
X197873000Y-99925000D01*
G75*
G02*
X198123000Y-99675000I250000J0D01*
G01*
X198623000Y-99675000D01*
G75*
G02*
X198873000Y-99925000I0J-250000D01*
G01*
X198873000Y-100875000D01*
G75*
G02*
X198623000Y-101125000I-250000J0D01*
G01*
X198123000Y-101125000D01*
G75*
G02*
X197873000Y-100875000I0J250000D01*
G01*
G37*
%TD*%
%TO.C,C41*%
G36*
G01*
X126590000Y-135330000D02*
X125640000Y-135330000D01*
G75*
G02*
X125390000Y-135080000I0J250000D01*
G01*
X125390000Y-134580000D01*
G75*
G02*
X125640000Y-134330000I250000J0D01*
G01*
X126590000Y-134330000D01*
G75*
G02*
X126840000Y-134580000I0J-250000D01*
G01*
X126840000Y-135080000D01*
G75*
G02*
X126590000Y-135330000I-250000J0D01*
G01*
G37*
G36*
G01*
X126590000Y-137230000D02*
X125640000Y-137230000D01*
G75*
G02*
X125390000Y-136980000I0J250000D01*
G01*
X125390000Y-136480000D01*
G75*
G02*
X125640000Y-136230000I250000J0D01*
G01*
X126590000Y-136230000D01*
G75*
G02*
X126840000Y-136480000I0J-250000D01*
G01*
X126840000Y-136980000D01*
G75*
G02*
X126590000Y-137230000I-250000J0D01*
G01*
G37*
%TD*%
%TO.C,C39*%
G36*
G01*
X108155000Y-135330000D02*
X107205000Y-135330000D01*
G75*
G02*
X106955000Y-135080000I0J250000D01*
G01*
X106955000Y-134580000D01*
G75*
G02*
X107205000Y-134330000I250000J0D01*
G01*
X108155000Y-134330000D01*
G75*
G02*
X108405000Y-134580000I0J-250000D01*
G01*
X108405000Y-135080000D01*
G75*
G02*
X108155000Y-135330000I-250000J0D01*
G01*
G37*
G36*
G01*
X108155000Y-137230000D02*
X107205000Y-137230000D01*
G75*
G02*
X106955000Y-136980000I0J250000D01*
G01*
X106955000Y-136480000D01*
G75*
G02*
X107205000Y-136230000I250000J0D01*
G01*
X108155000Y-136230000D01*
G75*
G02*
X108405000Y-136480000I0J-250000D01*
G01*
X108405000Y-136980000D01*
G75*
G02*
X108155000Y-137230000I-250000J0D01*
G01*
G37*
%TD*%
%TO.C,C38*%
G36*
G01*
X103219000Y-62990000D02*
X102269000Y-62990000D01*
G75*
G02*
X102019000Y-62740000I0J250000D01*
G01*
X102019000Y-62240000D01*
G75*
G02*
X102269000Y-61990000I250000J0D01*
G01*
X103219000Y-61990000D01*
G75*
G02*
X103469000Y-62240000I0J-250000D01*
G01*
X103469000Y-62740000D01*
G75*
G02*
X103219000Y-62990000I-250000J0D01*
G01*
G37*
G36*
G01*
X103219000Y-64890000D02*
X102269000Y-64890000D01*
G75*
G02*
X102019000Y-64640000I0J250000D01*
G01*
X102019000Y-64140000D01*
G75*
G02*
X102269000Y-63890000I250000J0D01*
G01*
X103219000Y-63890000D01*
G75*
G02*
X103469000Y-64140000I0J-250000D01*
G01*
X103469000Y-64640000D01*
G75*
G02*
X103219000Y-64890000I-250000J0D01*
G01*
G37*
%TD*%
%TO.C,C34*%
G36*
G01*
X214715000Y-128570000D02*
X215665000Y-128570000D01*
G75*
G02*
X215915000Y-128820000I0J-250000D01*
G01*
X215915000Y-129320000D01*
G75*
G02*
X215665000Y-129570000I-250000J0D01*
G01*
X214715000Y-129570000D01*
G75*
G02*
X214465000Y-129320000I0J250000D01*
G01*
X214465000Y-128820000D01*
G75*
G02*
X214715000Y-128570000I250000J0D01*
G01*
G37*
G36*
G01*
X214715000Y-126670000D02*
X215665000Y-126670000D01*
G75*
G02*
X215915000Y-126920000I0J-250000D01*
G01*
X215915000Y-127420000D01*
G75*
G02*
X215665000Y-127670000I-250000J0D01*
G01*
X214715000Y-127670000D01*
G75*
G02*
X214465000Y-127420000I0J250000D01*
G01*
X214465000Y-126920000D01*
G75*
G02*
X214715000Y-126670000I250000J0D01*
G01*
G37*
%TD*%
%TO.C,C33*%
G36*
G01*
X92280000Y-42475000D02*
X92280000Y-43425000D01*
G75*
G02*
X92030000Y-43675000I-250000J0D01*
G01*
X91530000Y-43675000D01*
G75*
G02*
X91280000Y-43425000I0J250000D01*
G01*
X91280000Y-42475000D01*
G75*
G02*
X91530000Y-42225000I250000J0D01*
G01*
X92030000Y-42225000D01*
G75*
G02*
X92280000Y-42475000I0J-250000D01*
G01*
G37*
G36*
G01*
X94180000Y-42475000D02*
X94180000Y-43425000D01*
G75*
G02*
X93930000Y-43675000I-250000J0D01*
G01*
X93430000Y-43675000D01*
G75*
G02*
X93180000Y-43425000I0J250000D01*
G01*
X93180000Y-42475000D01*
G75*
G02*
X93430000Y-42225000I250000J0D01*
G01*
X93930000Y-42225000D01*
G75*
G02*
X94180000Y-42475000I0J-250000D01*
G01*
G37*
%TD*%
%TO.C,C32*%
G36*
G01*
X241020000Y-139325000D02*
X241020000Y-138375000D01*
G75*
G02*
X241270000Y-138125000I250000J0D01*
G01*
X241770000Y-138125000D01*
G75*
G02*
X242020000Y-138375000I0J-250000D01*
G01*
X242020000Y-139325000D01*
G75*
G02*
X241770000Y-139575000I-250000J0D01*
G01*
X241270000Y-139575000D01*
G75*
G02*
X241020000Y-139325000I0J250000D01*
G01*
G37*
G36*
G01*
X239120000Y-139325000D02*
X239120000Y-138375000D01*
G75*
G02*
X239370000Y-138125000I250000J0D01*
G01*
X239870000Y-138125000D01*
G75*
G02*
X240120000Y-138375000I0J-250000D01*
G01*
X240120000Y-139325000D01*
G75*
G02*
X239870000Y-139575000I-250000J0D01*
G01*
X239370000Y-139575000D01*
G75*
G02*
X239120000Y-139325000I0J250000D01*
G01*
G37*
%TD*%
%TO.C,C30*%
G36*
G01*
X139982000Y-135330000D02*
X139032000Y-135330000D01*
G75*
G02*
X138782000Y-135080000I0J250000D01*
G01*
X138782000Y-134580000D01*
G75*
G02*
X139032000Y-134330000I250000J0D01*
G01*
X139982000Y-134330000D01*
G75*
G02*
X140232000Y-134580000I0J-250000D01*
G01*
X140232000Y-135080000D01*
G75*
G02*
X139982000Y-135330000I-250000J0D01*
G01*
G37*
G36*
G01*
X139982000Y-137230000D02*
X139032000Y-137230000D01*
G75*
G02*
X138782000Y-136980000I0J250000D01*
G01*
X138782000Y-136480000D01*
G75*
G02*
X139032000Y-136230000I250000J0D01*
G01*
X139982000Y-136230000D01*
G75*
G02*
X140232000Y-136480000I0J-250000D01*
G01*
X140232000Y-136980000D01*
G75*
G02*
X139982000Y-137230000I-250000J0D01*
G01*
G37*
%TD*%
%TO.C,C29*%
G36*
G01*
X123666000Y-63090000D02*
X122716000Y-63090000D01*
G75*
G02*
X122466000Y-62840000I0J250000D01*
G01*
X122466000Y-62340000D01*
G75*
G02*
X122716000Y-62090000I250000J0D01*
G01*
X123666000Y-62090000D01*
G75*
G02*
X123916000Y-62340000I0J-250000D01*
G01*
X123916000Y-62840000D01*
G75*
G02*
X123666000Y-63090000I-250000J0D01*
G01*
G37*
G36*
G01*
X123666000Y-64990000D02*
X122716000Y-64990000D01*
G75*
G02*
X122466000Y-64740000I0J250000D01*
G01*
X122466000Y-64240000D01*
G75*
G02*
X122716000Y-63990000I250000J0D01*
G01*
X123666000Y-63990000D01*
G75*
G02*
X123916000Y-64240000I0J-250000D01*
G01*
X123916000Y-64740000D01*
G75*
G02*
X123666000Y-64990000I-250000J0D01*
G01*
G37*
%TD*%
%TO.C,C28*%
G36*
G01*
X101429000Y-135330000D02*
X100479000Y-135330000D01*
G75*
G02*
X100229000Y-135080000I0J250000D01*
G01*
X100229000Y-134580000D01*
G75*
G02*
X100479000Y-134330000I250000J0D01*
G01*
X101429000Y-134330000D01*
G75*
G02*
X101679000Y-134580000I0J-250000D01*
G01*
X101679000Y-135080000D01*
G75*
G02*
X101429000Y-135330000I-250000J0D01*
G01*
G37*
G36*
G01*
X101429000Y-137230000D02*
X100479000Y-137230000D01*
G75*
G02*
X100229000Y-136980000I0J250000D01*
G01*
X100229000Y-136480000D01*
G75*
G02*
X100479000Y-136230000I250000J0D01*
G01*
X101429000Y-136230000D01*
G75*
G02*
X101679000Y-136480000I0J-250000D01*
G01*
X101679000Y-136980000D01*
G75*
G02*
X101429000Y-137230000I-250000J0D01*
G01*
G37*
%TD*%
%TO.C,C27*%
G36*
G01*
X197820000Y-77045000D02*
X197820000Y-76095000D01*
G75*
G02*
X198070000Y-75845000I250000J0D01*
G01*
X198570000Y-75845000D01*
G75*
G02*
X198820000Y-76095000I0J-250000D01*
G01*
X198820000Y-77045000D01*
G75*
G02*
X198570000Y-77295000I-250000J0D01*
G01*
X198070000Y-77295000D01*
G75*
G02*
X197820000Y-77045000I0J250000D01*
G01*
G37*
G36*
G01*
X195920000Y-77045000D02*
X195920000Y-76095000D01*
G75*
G02*
X196170000Y-75845000I250000J0D01*
G01*
X196670000Y-75845000D01*
G75*
G02*
X196920000Y-76095000I0J-250000D01*
G01*
X196920000Y-77045000D01*
G75*
G02*
X196670000Y-77295000I-250000J0D01*
G01*
X196170000Y-77295000D01*
G75*
G02*
X195920000Y-77045000I0J250000D01*
G01*
G37*
%TD*%
%TO.C,C25*%
G36*
G01*
X92945000Y-63190000D02*
X91995000Y-63190000D01*
G75*
G02*
X91745000Y-62940000I0J250000D01*
G01*
X91745000Y-62440000D01*
G75*
G02*
X91995000Y-62190000I250000J0D01*
G01*
X92945000Y-62190000D01*
G75*
G02*
X93195000Y-62440000I0J-250000D01*
G01*
X93195000Y-62940000D01*
G75*
G02*
X92945000Y-63190000I-250000J0D01*
G01*
G37*
G36*
G01*
X92945000Y-65090000D02*
X91995000Y-65090000D01*
G75*
G02*
X91745000Y-64840000I0J250000D01*
G01*
X91745000Y-64340000D01*
G75*
G02*
X91995000Y-64090000I250000J0D01*
G01*
X92945000Y-64090000D01*
G75*
G02*
X93195000Y-64340000I0J-250000D01*
G01*
X93195000Y-64840000D01*
G75*
G02*
X92945000Y-65090000I-250000J0D01*
G01*
G37*
%TD*%
%TO.C,C24*%
G36*
G01*
X235190000Y-57045000D02*
X235190000Y-57995000D01*
G75*
G02*
X234940000Y-58245000I-250000J0D01*
G01*
X234440000Y-58245000D01*
G75*
G02*
X234190000Y-57995000I0J250000D01*
G01*
X234190000Y-57045000D01*
G75*
G02*
X234440000Y-56795000I250000J0D01*
G01*
X234940000Y-56795000D01*
G75*
G02*
X235190000Y-57045000I0J-250000D01*
G01*
G37*
G36*
G01*
X237090000Y-57045000D02*
X237090000Y-57995000D01*
G75*
G02*
X236840000Y-58245000I-250000J0D01*
G01*
X236340000Y-58245000D01*
G75*
G02*
X236090000Y-57995000I0J250000D01*
G01*
X236090000Y-57045000D01*
G75*
G02*
X236340000Y-56795000I250000J0D01*
G01*
X236840000Y-56795000D01*
G75*
G02*
X237090000Y-57045000I0J-250000D01*
G01*
G37*
%TD*%
%TO.C,C23*%
G36*
G01*
X114881000Y-135330000D02*
X113931000Y-135330000D01*
G75*
G02*
X113681000Y-135080000I0J250000D01*
G01*
X113681000Y-134580000D01*
G75*
G02*
X113931000Y-134330000I250000J0D01*
G01*
X114881000Y-134330000D01*
G75*
G02*
X115131000Y-134580000I0J-250000D01*
G01*
X115131000Y-135080000D01*
G75*
G02*
X114881000Y-135330000I-250000J0D01*
G01*
G37*
G36*
G01*
X114881000Y-137230000D02*
X113931000Y-137230000D01*
G75*
G02*
X113681000Y-136980000I0J250000D01*
G01*
X113681000Y-136480000D01*
G75*
G02*
X113931000Y-136230000I250000J0D01*
G01*
X114881000Y-136230000D01*
G75*
G02*
X115131000Y-136480000I0J-250000D01*
G01*
X115131000Y-136980000D01*
G75*
G02*
X114881000Y-137230000I-250000J0D01*
G01*
G37*
%TD*%
%TO.C,C22*%
G36*
G01*
X223785000Y-128660000D02*
X224735000Y-128660000D01*
G75*
G02*
X224985000Y-128910000I0J-250000D01*
G01*
X224985000Y-129410000D01*
G75*
G02*
X224735000Y-129660000I-250000J0D01*
G01*
X223785000Y-129660000D01*
G75*
G02*
X223535000Y-129410000I0J250000D01*
G01*
X223535000Y-128910000D01*
G75*
G02*
X223785000Y-128660000I250000J0D01*
G01*
G37*
G36*
G01*
X223785000Y-126760000D02*
X224735000Y-126760000D01*
G75*
G02*
X224985000Y-127010000I0J-250000D01*
G01*
X224985000Y-127510000D01*
G75*
G02*
X224735000Y-127760000I-250000J0D01*
G01*
X223785000Y-127760000D01*
G75*
G02*
X223535000Y-127510000I0J250000D01*
G01*
X223535000Y-127010000D01*
G75*
G02*
X223785000Y-126760000I250000J0D01*
G01*
G37*
%TD*%
%TO.C,C20*%
G36*
G01*
X151405000Y-63240000D02*
X150455000Y-63240000D01*
G75*
G02*
X150205000Y-62990000I0J250000D01*
G01*
X150205000Y-62490000D01*
G75*
G02*
X150455000Y-62240000I250000J0D01*
G01*
X151405000Y-62240000D01*
G75*
G02*
X151655000Y-62490000I0J-250000D01*
G01*
X151655000Y-62990000D01*
G75*
G02*
X151405000Y-63240000I-250000J0D01*
G01*
G37*
G36*
G01*
X151405000Y-65140000D02*
X150455000Y-65140000D01*
G75*
G02*
X150205000Y-64890000I0J250000D01*
G01*
X150205000Y-64390000D01*
G75*
G02*
X150455000Y-64140000I250000J0D01*
G01*
X151405000Y-64140000D01*
G75*
G02*
X151655000Y-64390000I0J-250000D01*
G01*
X151655000Y-64890000D01*
G75*
G02*
X151405000Y-65140000I-250000J0D01*
G01*
G37*
%TD*%
%TO.C,C19*%
G36*
G01*
X215110000Y-100840000D02*
X215110000Y-99890000D01*
G75*
G02*
X215360000Y-99640000I250000J0D01*
G01*
X215860000Y-99640000D01*
G75*
G02*
X216110000Y-99890000I0J-250000D01*
G01*
X216110000Y-100840000D01*
G75*
G02*
X215860000Y-101090000I-250000J0D01*
G01*
X215360000Y-101090000D01*
G75*
G02*
X215110000Y-100840000I0J250000D01*
G01*
G37*
G36*
G01*
X213210000Y-100840000D02*
X213210000Y-99890000D01*
G75*
G02*
X213460000Y-99640000I250000J0D01*
G01*
X213960000Y-99640000D01*
G75*
G02*
X214210000Y-99890000I0J-250000D01*
G01*
X214210000Y-100840000D01*
G75*
G02*
X213960000Y-101090000I-250000J0D01*
G01*
X213460000Y-101090000D01*
G75*
G02*
X213210000Y-100840000I0J250000D01*
G01*
G37*
%TD*%
%TO.C,C18*%
G36*
G01*
X163025000Y-63250000D02*
X162075000Y-63250000D01*
G75*
G02*
X161825000Y-63000000I0J250000D01*
G01*
X161825000Y-62500000D01*
G75*
G02*
X162075000Y-62250000I250000J0D01*
G01*
X163025000Y-62250000D01*
G75*
G02*
X163275000Y-62500000I0J-250000D01*
G01*
X163275000Y-63000000D01*
G75*
G02*
X163025000Y-63250000I-250000J0D01*
G01*
G37*
G36*
G01*
X163025000Y-65150000D02*
X162075000Y-65150000D01*
G75*
G02*
X161825000Y-64900000I0J250000D01*
G01*
X161825000Y-64400000D01*
G75*
G02*
X162075000Y-64150000I250000J0D01*
G01*
X163025000Y-64150000D01*
G75*
G02*
X163275000Y-64400000I0J-250000D01*
G01*
X163275000Y-64900000D01*
G75*
G02*
X163025000Y-65150000I-250000J0D01*
G01*
G37*
%TD*%
%TO.C,C16*%
G36*
G01*
X161820000Y-74015000D02*
X161820000Y-73065000D01*
G75*
G02*
X162070000Y-72815000I250000J0D01*
G01*
X162570000Y-72815000D01*
G75*
G02*
X162820000Y-73065000I0J-250000D01*
G01*
X162820000Y-74015000D01*
G75*
G02*
X162570000Y-74265000I-250000J0D01*
G01*
X162070000Y-74265000D01*
G75*
G02*
X161820000Y-74015000I0J250000D01*
G01*
G37*
G36*
G01*
X159920000Y-74015000D02*
X159920000Y-73065000D01*
G75*
G02*
X160170000Y-72815000I250000J0D01*
G01*
X160670000Y-72815000D01*
G75*
G02*
X160920000Y-73065000I0J-250000D01*
G01*
X160920000Y-74015000D01*
G75*
G02*
X160670000Y-74265000I-250000J0D01*
G01*
X160170000Y-74265000D01*
G75*
G02*
X159920000Y-74015000I0J250000D01*
G01*
G37*
%TD*%
%TO.C,C15*%
G36*
G01*
X179998000Y-135330000D02*
X179048000Y-135330000D01*
G75*
G02*
X178798000Y-135080000I0J250000D01*
G01*
X178798000Y-134580000D01*
G75*
G02*
X179048000Y-134330000I250000J0D01*
G01*
X179998000Y-134330000D01*
G75*
G02*
X180248000Y-134580000I0J-250000D01*
G01*
X180248000Y-135080000D01*
G75*
G02*
X179998000Y-135330000I-250000J0D01*
G01*
G37*
G36*
G01*
X179998000Y-137230000D02*
X179048000Y-137230000D01*
G75*
G02*
X178798000Y-136980000I0J250000D01*
G01*
X178798000Y-136480000D01*
G75*
G02*
X179048000Y-136230000I250000J0D01*
G01*
X179998000Y-136230000D01*
G75*
G02*
X180248000Y-136480000I0J-250000D01*
G01*
X180248000Y-136980000D01*
G75*
G02*
X179998000Y-137230000I-250000J0D01*
G01*
G37*
%TD*%
%TO.C,C14*%
G36*
G01*
X252135000Y-116473000D02*
X253085000Y-116473000D01*
G75*
G02*
X253335000Y-116723000I0J-250000D01*
G01*
X253335000Y-117223000D01*
G75*
G02*
X253085000Y-117473000I-250000J0D01*
G01*
X252135000Y-117473000D01*
G75*
G02*
X251885000Y-117223000I0J250000D01*
G01*
X251885000Y-116723000D01*
G75*
G02*
X252135000Y-116473000I250000J0D01*
G01*
G37*
G36*
G01*
X252135000Y-114573000D02*
X253085000Y-114573000D01*
G75*
G02*
X253335000Y-114823000I0J-250000D01*
G01*
X253335000Y-115323000D01*
G75*
G02*
X253085000Y-115573000I-250000J0D01*
G01*
X252135000Y-115573000D01*
G75*
G02*
X251885000Y-115323000I0J250000D01*
G01*
X251885000Y-114823000D01*
G75*
G02*
X252135000Y-114573000I250000J0D01*
G01*
G37*
%TD*%
%TO.C,C13*%
G36*
G01*
X235140000Y-48445000D02*
X235140000Y-49395000D01*
G75*
G02*
X234890000Y-49645000I-250000J0D01*
G01*
X234390000Y-49645000D01*
G75*
G02*
X234140000Y-49395000I0J250000D01*
G01*
X234140000Y-48445000D01*
G75*
G02*
X234390000Y-48195000I250000J0D01*
G01*
X234890000Y-48195000D01*
G75*
G02*
X235140000Y-48445000I0J-250000D01*
G01*
G37*
G36*
G01*
X237040000Y-48445000D02*
X237040000Y-49395000D01*
G75*
G02*
X236790000Y-49645000I-250000J0D01*
G01*
X236290000Y-49645000D01*
G75*
G02*
X236040000Y-49395000I0J250000D01*
G01*
X236040000Y-48445000D01*
G75*
G02*
X236290000Y-48195000I250000J0D01*
G01*
X236790000Y-48195000D01*
G75*
G02*
X237040000Y-48445000I0J-250000D01*
G01*
G37*
%TD*%
%TO.C,C12*%
G36*
G01*
X173740000Y-72965000D02*
X173740000Y-73915000D01*
G75*
G02*
X173490000Y-74165000I-250000J0D01*
G01*
X172990000Y-74165000D01*
G75*
G02*
X172740000Y-73915000I0J250000D01*
G01*
X172740000Y-72965000D01*
G75*
G02*
X172990000Y-72715000I250000J0D01*
G01*
X173490000Y-72715000D01*
G75*
G02*
X173740000Y-72965000I0J-250000D01*
G01*
G37*
G36*
G01*
X175640000Y-72965000D02*
X175640000Y-73915000D01*
G75*
G02*
X175390000Y-74165000I-250000J0D01*
G01*
X174890000Y-74165000D01*
G75*
G02*
X174640000Y-73915000I0J250000D01*
G01*
X174640000Y-72965000D01*
G75*
G02*
X174890000Y-72715000I250000J0D01*
G01*
X175390000Y-72715000D01*
G75*
G02*
X175640000Y-72965000I0J-250000D01*
G01*
G37*
%TD*%
%TO.C,C11*%
G36*
G01*
X79312500Y-76655000D02*
X79312500Y-77605000D01*
G75*
G02*
X79062500Y-77855000I-250000J0D01*
G01*
X78562500Y-77855000D01*
G75*
G02*
X78312500Y-77605000I0J250000D01*
G01*
X78312500Y-76655000D01*
G75*
G02*
X78562500Y-76405000I250000J0D01*
G01*
X79062500Y-76405000D01*
G75*
G02*
X79312500Y-76655000I0J-250000D01*
G01*
G37*
G36*
G01*
X81212500Y-76655000D02*
X81212500Y-77605000D01*
G75*
G02*
X80962500Y-77855000I-250000J0D01*
G01*
X80462500Y-77855000D01*
G75*
G02*
X80212500Y-77605000I0J250000D01*
G01*
X80212500Y-76655000D01*
G75*
G02*
X80462500Y-76405000I250000J0D01*
G01*
X80962500Y-76405000D01*
G75*
G02*
X81212500Y-76655000I0J-250000D01*
G01*
G37*
%TD*%
%TO.C,C10*%
G36*
G01*
X199000000Y-122705000D02*
X199000000Y-121755000D01*
G75*
G02*
X199250000Y-121505000I250000J0D01*
G01*
X199750000Y-121505000D01*
G75*
G02*
X200000000Y-121755000I0J-250000D01*
G01*
X200000000Y-122705000D01*
G75*
G02*
X199750000Y-122955000I-250000J0D01*
G01*
X199250000Y-122955000D01*
G75*
G02*
X199000000Y-122705000I0J250000D01*
G01*
G37*
G36*
G01*
X197100000Y-122705000D02*
X197100000Y-121755000D01*
G75*
G02*
X197350000Y-121505000I250000J0D01*
G01*
X197850000Y-121505000D01*
G75*
G02*
X198100000Y-121755000I0J-250000D01*
G01*
X198100000Y-122705000D01*
G75*
G02*
X197850000Y-122955000I-250000J0D01*
G01*
X197350000Y-122955000D01*
G75*
G02*
X197100000Y-122705000I0J250000D01*
G01*
G37*
%TD*%
%TO.C,C9*%
G36*
G01*
X98130000Y-108805000D02*
X98130000Y-109755000D01*
G75*
G02*
X97880000Y-110005000I-250000J0D01*
G01*
X97380000Y-110005000D01*
G75*
G02*
X97130000Y-109755000I0J250000D01*
G01*
X97130000Y-108805000D01*
G75*
G02*
X97380000Y-108555000I250000J0D01*
G01*
X97880000Y-108555000D01*
G75*
G02*
X98130000Y-108805000I0J-250000D01*
G01*
G37*
G36*
G01*
X100030000Y-108805000D02*
X100030000Y-109755000D01*
G75*
G02*
X99780000Y-110005000I-250000J0D01*
G01*
X99280000Y-110005000D01*
G75*
G02*
X99030000Y-109755000I0J250000D01*
G01*
X99030000Y-108805000D01*
G75*
G02*
X99280000Y-108555000I250000J0D01*
G01*
X99780000Y-108555000D01*
G75*
G02*
X100030000Y-108805000I0J-250000D01*
G01*
G37*
%TD*%
%TO.C,C8*%
G36*
G01*
X80212500Y-103535000D02*
X80212500Y-102585000D01*
G75*
G02*
X80462500Y-102335000I250000J0D01*
G01*
X80962500Y-102335000D01*
G75*
G02*
X81212500Y-102585000I0J-250000D01*
G01*
X81212500Y-103535000D01*
G75*
G02*
X80962500Y-103785000I-250000J0D01*
G01*
X80462500Y-103785000D01*
G75*
G02*
X80212500Y-103535000I0J250000D01*
G01*
G37*
G36*
G01*
X78312500Y-103535000D02*
X78312500Y-102585000D01*
G75*
G02*
X78562500Y-102335000I250000J0D01*
G01*
X79062500Y-102335000D01*
G75*
G02*
X79312500Y-102585000I0J-250000D01*
G01*
X79312500Y-103535000D01*
G75*
G02*
X79062500Y-103785000I-250000J0D01*
G01*
X78562500Y-103785000D01*
G75*
G02*
X78312500Y-103535000I0J250000D01*
G01*
G37*
%TD*%
%TO.C,C7*%
G36*
G01*
X106680000Y-111505000D02*
X106680000Y-110555000D01*
G75*
G02*
X106930000Y-110305000I250000J0D01*
G01*
X107430000Y-110305000D01*
G75*
G02*
X107680000Y-110555000I0J-250000D01*
G01*
X107680000Y-111505000D01*
G75*
G02*
X107430000Y-111755000I-250000J0D01*
G01*
X106930000Y-111755000D01*
G75*
G02*
X106680000Y-111505000I0J250000D01*
G01*
G37*
G36*
G01*
X104780000Y-111505000D02*
X104780000Y-110555000D01*
G75*
G02*
X105030000Y-110305000I250000J0D01*
G01*
X105530000Y-110305000D01*
G75*
G02*
X105780000Y-110555000I0J-250000D01*
G01*
X105780000Y-111505000D01*
G75*
G02*
X105530000Y-111755000I-250000J0D01*
G01*
X105030000Y-111755000D01*
G75*
G02*
X104780000Y-111505000I0J250000D01*
G01*
G37*
%TD*%
%TO.C,C6*%
G36*
G01*
X199140000Y-132015000D02*
X199140000Y-131065000D01*
G75*
G02*
X199390000Y-130815000I250000J0D01*
G01*
X199890000Y-130815000D01*
G75*
G02*
X200140000Y-131065000I0J-250000D01*
G01*
X200140000Y-132015000D01*
G75*
G02*
X199890000Y-132265000I-250000J0D01*
G01*
X199390000Y-132265000D01*
G75*
G02*
X199140000Y-132015000I0J250000D01*
G01*
G37*
G36*
G01*
X197240000Y-132015000D02*
X197240000Y-131065000D01*
G75*
G02*
X197490000Y-130815000I250000J0D01*
G01*
X197990000Y-130815000D01*
G75*
G02*
X198240000Y-131065000I0J-250000D01*
G01*
X198240000Y-132015000D01*
G75*
G02*
X197990000Y-132265000I-250000J0D01*
G01*
X197490000Y-132265000D01*
G75*
G02*
X197240000Y-132015000I0J250000D01*
G01*
G37*
%TD*%
%TO.C,C5*%
G36*
G01*
X85710000Y-42915000D02*
X85710000Y-41965000D01*
G75*
G02*
X85960000Y-41715000I250000J0D01*
G01*
X86460000Y-41715000D01*
G75*
G02*
X86710000Y-41965000I0J-250000D01*
G01*
X86710000Y-42915000D01*
G75*
G02*
X86460000Y-43165000I-250000J0D01*
G01*
X85960000Y-43165000D01*
G75*
G02*
X85710000Y-42915000I0J250000D01*
G01*
G37*
G36*
G01*
X83810000Y-42915000D02*
X83810000Y-41965000D01*
G75*
G02*
X84060000Y-41715000I250000J0D01*
G01*
X84560000Y-41715000D01*
G75*
G02*
X84810000Y-41965000I0J-250000D01*
G01*
X84810000Y-42915000D01*
G75*
G02*
X84560000Y-43165000I-250000J0D01*
G01*
X84060000Y-43165000D01*
G75*
G02*
X83810000Y-42915000I0J250000D01*
G01*
G37*
%TD*%
%TO.C,C4*%
G36*
G01*
X79312500Y-63295000D02*
X79312500Y-64245000D01*
G75*
G02*
X79062500Y-64495000I-250000J0D01*
G01*
X78562500Y-64495000D01*
G75*
G02*
X78312500Y-64245000I0J250000D01*
G01*
X78312500Y-63295000D01*
G75*
G02*
X78562500Y-63045000I250000J0D01*
G01*
X79062500Y-63045000D01*
G75*
G02*
X79312500Y-63295000I0J-250000D01*
G01*
G37*
G36*
G01*
X81212500Y-63295000D02*
X81212500Y-64245000D01*
G75*
G02*
X80962500Y-64495000I-250000J0D01*
G01*
X80462500Y-64495000D01*
G75*
G02*
X80212500Y-64245000I0J250000D01*
G01*
X80212500Y-63295000D01*
G75*
G02*
X80462500Y-63045000I250000J0D01*
G01*
X80962500Y-63045000D01*
G75*
G02*
X81212500Y-63295000I0J-250000D01*
G01*
G37*
%TD*%
%TO.C,U17*%
G36*
G01*
X170463000Y-79500000D02*
X170463000Y-79300000D01*
G75*
G02*
X170563000Y-79200000I100000J0D01*
G01*
X171838000Y-79200000D01*
G75*
G02*
X171938000Y-79300000I0J-100000D01*
G01*
X171938000Y-79500000D01*
G75*
G02*
X171838000Y-79600000I-100000J0D01*
G01*
X170563000Y-79600000D01*
G75*
G02*
X170463000Y-79500000I0J100000D01*
G01*
G37*
G36*
G01*
X170463000Y-78850000D02*
X170463000Y-78650000D01*
G75*
G02*
X170563000Y-78550000I100000J0D01*
G01*
X171838000Y-78550000D01*
G75*
G02*
X171938000Y-78650000I0J-100000D01*
G01*
X171938000Y-78850000D01*
G75*
G02*
X171838000Y-78950000I-100000J0D01*
G01*
X170563000Y-78950000D01*
G75*
G02*
X170463000Y-78850000I0J100000D01*
G01*
G37*
G36*
G01*
X170463000Y-78200000D02*
X170463000Y-78000000D01*
G75*
G02*
X170563000Y-77900000I100000J0D01*
G01*
X171838000Y-77900000D01*
G75*
G02*
X171938000Y-78000000I0J-100000D01*
G01*
X171938000Y-78200000D01*
G75*
G02*
X171838000Y-78300000I-100000J0D01*
G01*
X170563000Y-78300000D01*
G75*
G02*
X170463000Y-78200000I0J100000D01*
G01*
G37*
G36*
G01*
X170463000Y-77550000D02*
X170463000Y-77350000D01*
G75*
G02*
X170563000Y-77250000I100000J0D01*
G01*
X171838000Y-77250000D01*
G75*
G02*
X171938000Y-77350000I0J-100000D01*
G01*
X171938000Y-77550000D01*
G75*
G02*
X171838000Y-77650000I-100000J0D01*
G01*
X170563000Y-77650000D01*
G75*
G02*
X170463000Y-77550000I0J100000D01*
G01*
G37*
G36*
G01*
X170463000Y-76900000D02*
X170463000Y-76700000D01*
G75*
G02*
X170563000Y-76600000I100000J0D01*
G01*
X171838000Y-76600000D01*
G75*
G02*
X171938000Y-76700000I0J-100000D01*
G01*
X171938000Y-76900000D01*
G75*
G02*
X171838000Y-77000000I-100000J0D01*
G01*
X170563000Y-77000000D01*
G75*
G02*
X170463000Y-76900000I0J100000D01*
G01*
G37*
G36*
G01*
X170463000Y-76250000D02*
X170463000Y-76050000D01*
G75*
G02*
X170563000Y-75950000I100000J0D01*
G01*
X171838000Y-75950000D01*
G75*
G02*
X171938000Y-76050000I0J-100000D01*
G01*
X171938000Y-76250000D01*
G75*
G02*
X171838000Y-76350000I-100000J0D01*
G01*
X170563000Y-76350000D01*
G75*
G02*
X170463000Y-76250000I0J100000D01*
G01*
G37*
G36*
G01*
X170463000Y-75600000D02*
X170463000Y-75400000D01*
G75*
G02*
X170563000Y-75300000I100000J0D01*
G01*
X171838000Y-75300000D01*
G75*
G02*
X171938000Y-75400000I0J-100000D01*
G01*
X171938000Y-75600000D01*
G75*
G02*
X171838000Y-75700000I-100000J0D01*
G01*
X170563000Y-75700000D01*
G75*
G02*
X170463000Y-75600000I0J100000D01*
G01*
G37*
G36*
G01*
X164738000Y-75600000D02*
X164738000Y-75400000D01*
G75*
G02*
X164838000Y-75300000I100000J0D01*
G01*
X166113000Y-75300000D01*
G75*
G02*
X166213000Y-75400000I0J-100000D01*
G01*
X166213000Y-75600000D01*
G75*
G02*
X166113000Y-75700000I-100000J0D01*
G01*
X164838000Y-75700000D01*
G75*
G02*
X164738000Y-75600000I0J100000D01*
G01*
G37*
G36*
G01*
X164738000Y-76250000D02*
X164738000Y-76050000D01*
G75*
G02*
X164838000Y-75950000I100000J0D01*
G01*
X166113000Y-75950000D01*
G75*
G02*
X166213000Y-76050000I0J-100000D01*
G01*
X166213000Y-76250000D01*
G75*
G02*
X166113000Y-76350000I-100000J0D01*
G01*
X164838000Y-76350000D01*
G75*
G02*
X164738000Y-76250000I0J100000D01*
G01*
G37*
G36*
G01*
X164738000Y-76900000D02*
X164738000Y-76700000D01*
G75*
G02*
X164838000Y-76600000I100000J0D01*
G01*
X166113000Y-76600000D01*
G75*
G02*
X166213000Y-76700000I0J-100000D01*
G01*
X166213000Y-76900000D01*
G75*
G02*
X166113000Y-77000000I-100000J0D01*
G01*
X164838000Y-77000000D01*
G75*
G02*
X164738000Y-76900000I0J100000D01*
G01*
G37*
G36*
G01*
X164738000Y-77550000D02*
X164738000Y-77350000D01*
G75*
G02*
X164838000Y-77250000I100000J0D01*
G01*
X166113000Y-77250000D01*
G75*
G02*
X166213000Y-77350000I0J-100000D01*
G01*
X166213000Y-77550000D01*
G75*
G02*
X166113000Y-77650000I-100000J0D01*
G01*
X164838000Y-77650000D01*
G75*
G02*
X164738000Y-77550000I0J100000D01*
G01*
G37*
G36*
G01*
X164738000Y-78200000D02*
X164738000Y-78000000D01*
G75*
G02*
X164838000Y-77900000I100000J0D01*
G01*
X166113000Y-77900000D01*
G75*
G02*
X166213000Y-78000000I0J-100000D01*
G01*
X166213000Y-78200000D01*
G75*
G02*
X166113000Y-78300000I-100000J0D01*
G01*
X164838000Y-78300000D01*
G75*
G02*
X164738000Y-78200000I0J100000D01*
G01*
G37*
G36*
G01*
X164738000Y-78850000D02*
X164738000Y-78650000D01*
G75*
G02*
X164838000Y-78550000I100000J0D01*
G01*
X166113000Y-78550000D01*
G75*
G02*
X166213000Y-78650000I0J-100000D01*
G01*
X166213000Y-78850000D01*
G75*
G02*
X166113000Y-78950000I-100000J0D01*
G01*
X164838000Y-78950000D01*
G75*
G02*
X164738000Y-78850000I0J100000D01*
G01*
G37*
G36*
G01*
X164738000Y-79500000D02*
X164738000Y-79300000D01*
G75*
G02*
X164838000Y-79200000I100000J0D01*
G01*
X166113000Y-79200000D01*
G75*
G02*
X166213000Y-79300000I0J-100000D01*
G01*
X166213000Y-79500000D01*
G75*
G02*
X166113000Y-79600000I-100000J0D01*
G01*
X164838000Y-79600000D01*
G75*
G02*
X164738000Y-79500000I0J100000D01*
G01*
G37*
%TD*%
%TO.C,C77*%
G36*
G01*
X80212500Y-117350000D02*
X80212500Y-116400000D01*
G75*
G02*
X80462500Y-116150000I250000J0D01*
G01*
X80962500Y-116150000D01*
G75*
G02*
X81212500Y-116400000I0J-250000D01*
G01*
X81212500Y-117350000D01*
G75*
G02*
X80962500Y-117600000I-250000J0D01*
G01*
X80462500Y-117600000D01*
G75*
G02*
X80212500Y-117350000I0J250000D01*
G01*
G37*
G36*
G01*
X78312500Y-117350000D02*
X78312500Y-116400000D01*
G75*
G02*
X78562500Y-116150000I250000J0D01*
G01*
X79062500Y-116150000D01*
G75*
G02*
X79312500Y-116400000I0J-250000D01*
G01*
X79312500Y-117350000D01*
G75*
G02*
X79062500Y-117600000I-250000J0D01*
G01*
X78562500Y-117600000D01*
G75*
G02*
X78312500Y-117350000I0J250000D01*
G01*
G37*
%TD*%
%TO.C,C76*%
G36*
G01*
X200100000Y-109075000D02*
X200100000Y-108125000D01*
G75*
G02*
X200350000Y-107875000I250000J0D01*
G01*
X200850000Y-107875000D01*
G75*
G02*
X201100000Y-108125000I0J-250000D01*
G01*
X201100000Y-109075000D01*
G75*
G02*
X200850000Y-109325000I-250000J0D01*
G01*
X200350000Y-109325000D01*
G75*
G02*
X200100000Y-109075000I0J250000D01*
G01*
G37*
G36*
G01*
X198200000Y-109075000D02*
X198200000Y-108125000D01*
G75*
G02*
X198450000Y-107875000I250000J0D01*
G01*
X198950000Y-107875000D01*
G75*
G02*
X199200000Y-108125000I0J-250000D01*
G01*
X199200000Y-109075000D01*
G75*
G02*
X198950000Y-109325000I-250000J0D01*
G01*
X198450000Y-109325000D01*
G75*
G02*
X198200000Y-109075000I0J250000D01*
G01*
G37*
%TD*%
%TO.C,C75*%
G36*
G01*
X214450000Y-90075000D02*
X214450000Y-89125000D01*
G75*
G02*
X214700000Y-88875000I250000J0D01*
G01*
X215200000Y-88875000D01*
G75*
G02*
X215450000Y-89125000I0J-250000D01*
G01*
X215450000Y-90075000D01*
G75*
G02*
X215200000Y-90325000I-250000J0D01*
G01*
X214700000Y-90325000D01*
G75*
G02*
X214450000Y-90075000I0J250000D01*
G01*
G37*
G36*
G01*
X212550000Y-90075000D02*
X212550000Y-89125000D01*
G75*
G02*
X212800000Y-88875000I250000J0D01*
G01*
X213300000Y-88875000D01*
G75*
G02*
X213550000Y-89125000I0J-250000D01*
G01*
X213550000Y-90075000D01*
G75*
G02*
X213300000Y-90325000I-250000J0D01*
G01*
X212800000Y-90325000D01*
G75*
G02*
X212550000Y-90075000I0J250000D01*
G01*
G37*
%TD*%
%TO.C,C74*%
G36*
G01*
X80212500Y-110350000D02*
X80212500Y-109400000D01*
G75*
G02*
X80462500Y-109150000I250000J0D01*
G01*
X80962500Y-109150000D01*
G75*
G02*
X81212500Y-109400000I0J-250000D01*
G01*
X81212500Y-110350000D01*
G75*
G02*
X80962500Y-110600000I-250000J0D01*
G01*
X80462500Y-110600000D01*
G75*
G02*
X80212500Y-110350000I0J250000D01*
G01*
G37*
G36*
G01*
X78312500Y-110350000D02*
X78312500Y-109400000D01*
G75*
G02*
X78562500Y-109150000I250000J0D01*
G01*
X79062500Y-109150000D01*
G75*
G02*
X79312500Y-109400000I0J-250000D01*
G01*
X79312500Y-110350000D01*
G75*
G02*
X79062500Y-110600000I-250000J0D01*
G01*
X78562500Y-110600000D01*
G75*
G02*
X78312500Y-110350000I0J250000D01*
G01*
G37*
%TD*%
%TO.C,C73*%
G36*
G01*
X145575000Y-63050000D02*
X144625000Y-63050000D01*
G75*
G02*
X144375000Y-62800000I0J250000D01*
G01*
X144375000Y-62300000D01*
G75*
G02*
X144625000Y-62050000I250000J0D01*
G01*
X145575000Y-62050000D01*
G75*
G02*
X145825000Y-62300000I0J-250000D01*
G01*
X145825000Y-62800000D01*
G75*
G02*
X145575000Y-63050000I-250000J0D01*
G01*
G37*
G36*
G01*
X145575000Y-64950000D02*
X144625000Y-64950000D01*
G75*
G02*
X144375000Y-64700000I0J250000D01*
G01*
X144375000Y-64200000D01*
G75*
G02*
X144625000Y-63950000I250000J0D01*
G01*
X145575000Y-63950000D01*
G75*
G02*
X145825000Y-64200000I0J-250000D01*
G01*
X145825000Y-64700000D01*
G75*
G02*
X145575000Y-64950000I-250000J0D01*
G01*
G37*
%TD*%
%TO.C,C72*%
G36*
G01*
X172525000Y-82825000D02*
X173475000Y-82825000D01*
G75*
G02*
X173725000Y-83075000I0J-250000D01*
G01*
X173725000Y-83575000D01*
G75*
G02*
X173475000Y-83825000I-250000J0D01*
G01*
X172525000Y-83825000D01*
G75*
G02*
X172275000Y-83575000I0J250000D01*
G01*
X172275000Y-83075000D01*
G75*
G02*
X172525000Y-82825000I250000J0D01*
G01*
G37*
G36*
G01*
X172525000Y-80925000D02*
X173475000Y-80925000D01*
G75*
G02*
X173725000Y-81175000I0J-250000D01*
G01*
X173725000Y-81675000D01*
G75*
G02*
X173475000Y-81925000I-250000J0D01*
G01*
X172525000Y-81925000D01*
G75*
G02*
X172275000Y-81675000I0J250000D01*
G01*
X172275000Y-81175000D01*
G75*
G02*
X172525000Y-80925000I250000J0D01*
G01*
G37*
%TD*%
%TO.C,C71*%
G36*
G01*
X133075000Y-63100000D02*
X132125000Y-63100000D01*
G75*
G02*
X131875000Y-62850000I0J250000D01*
G01*
X131875000Y-62350000D01*
G75*
G02*
X132125000Y-62100000I250000J0D01*
G01*
X133075000Y-62100000D01*
G75*
G02*
X133325000Y-62350000I0J-250000D01*
G01*
X133325000Y-62850000D01*
G75*
G02*
X133075000Y-63100000I-250000J0D01*
G01*
G37*
G36*
G01*
X133075000Y-65000000D02*
X132125000Y-65000000D01*
G75*
G02*
X131875000Y-64750000I0J250000D01*
G01*
X131875000Y-64250000D01*
G75*
G02*
X132125000Y-64000000I250000J0D01*
G01*
X133075000Y-64000000D01*
G75*
G02*
X133325000Y-64250000I0J-250000D01*
G01*
X133325000Y-64750000D01*
G75*
G02*
X133075000Y-65000000I-250000J0D01*
G01*
G37*
%TD*%
D10*
%TO.C,U65*%
X165950000Y-39950000D03*
X165950000Y-40450000D03*
X165950000Y-40950000D03*
X165950000Y-41450000D03*
X165950000Y-41950000D03*
X165950000Y-42450000D03*
X165950000Y-42950000D03*
X165950000Y-43450000D03*
X165950000Y-43950000D03*
X165950000Y-44450000D03*
X165950000Y-44950000D03*
X165950000Y-45450000D03*
X165950000Y-45950000D03*
X165950000Y-46450000D03*
X165950000Y-46950000D03*
X165950000Y-47450000D03*
X165950000Y-47950000D03*
X165950000Y-48450000D03*
X165950000Y-48950000D03*
X165950000Y-49450000D03*
X165950000Y-49950000D03*
X165950000Y-50450000D03*
X165950000Y-50950000D03*
X185450000Y-51450000D03*
X185450000Y-50950000D03*
X185450000Y-50450000D03*
X185450000Y-49950000D03*
X185450000Y-49450000D03*
X185450000Y-48950000D03*
X185450000Y-48450000D03*
X185450000Y-47950000D03*
X185450000Y-47450000D03*
X185450000Y-46950000D03*
X185450000Y-46450000D03*
X185450000Y-45950000D03*
X185450000Y-45450000D03*
X185450000Y-44950000D03*
X185450000Y-44450000D03*
X185450000Y-43950000D03*
X185450000Y-43450000D03*
X185450000Y-42950000D03*
X185450000Y-42450000D03*
X185450000Y-41950000D03*
X185450000Y-41450000D03*
X185450000Y-40950000D03*
X185450000Y-40450000D03*
X165950000Y-51450000D03*
X185450000Y-39950000D03*
%TD*%
%TO.C,R148*%
G36*
G01*
X142300000Y-104550001D02*
X142300000Y-103649999D01*
G75*
G02*
X142549999Y-103400000I249999J0D01*
G01*
X143075001Y-103400000D01*
G75*
G02*
X143325000Y-103649999I0J-249999D01*
G01*
X143325000Y-104550001D01*
G75*
G02*
X143075001Y-104800000I-249999J0D01*
G01*
X142549999Y-104800000D01*
G75*
G02*
X142300000Y-104550001I0J249999D01*
G01*
G37*
G36*
G01*
X140475000Y-104550001D02*
X140475000Y-103649999D01*
G75*
G02*
X140724999Y-103400000I249999J0D01*
G01*
X141250001Y-103400000D01*
G75*
G02*
X141500000Y-103649999I0J-249999D01*
G01*
X141500000Y-104550001D01*
G75*
G02*
X141250001Y-104800000I-249999J0D01*
G01*
X140724999Y-104800000D01*
G75*
G02*
X140475000Y-104550001I0J249999D01*
G01*
G37*
%TD*%
%TO.C,R147*%
G36*
G01*
X138612000Y-104550001D02*
X138612000Y-103649999D01*
G75*
G02*
X138861999Y-103400000I249999J0D01*
G01*
X139387001Y-103400000D01*
G75*
G02*
X139637000Y-103649999I0J-249999D01*
G01*
X139637000Y-104550001D01*
G75*
G02*
X139387001Y-104800000I-249999J0D01*
G01*
X138861999Y-104800000D01*
G75*
G02*
X138612000Y-104550001I0J249999D01*
G01*
G37*
G36*
G01*
X136787000Y-104550001D02*
X136787000Y-103649999D01*
G75*
G02*
X137036999Y-103400000I249999J0D01*
G01*
X137562001Y-103400000D01*
G75*
G02*
X137812000Y-103649999I0J-249999D01*
G01*
X137812000Y-104550001D01*
G75*
G02*
X137562001Y-104800000I-249999J0D01*
G01*
X137036999Y-104800000D01*
G75*
G02*
X136787000Y-104550001I0J249999D01*
G01*
G37*
%TD*%
%TO.C,R146*%
G36*
G01*
X144649999Y-104700000D02*
X145550001Y-104700000D01*
G75*
G02*
X145800000Y-104949999I0J-249999D01*
G01*
X145800000Y-105475001D01*
G75*
G02*
X145550001Y-105725000I-249999J0D01*
G01*
X144649999Y-105725000D01*
G75*
G02*
X144400000Y-105475001I0J249999D01*
G01*
X144400000Y-104949999D01*
G75*
G02*
X144649999Y-104700000I249999J0D01*
G01*
G37*
G36*
G01*
X144649999Y-102875000D02*
X145550001Y-102875000D01*
G75*
G02*
X145800000Y-103124999I0J-249999D01*
G01*
X145800000Y-103650001D01*
G75*
G02*
X145550001Y-103900000I-249999J0D01*
G01*
X144649999Y-103900000D01*
G75*
G02*
X144400000Y-103650001I0J249999D01*
G01*
X144400000Y-103124999D01*
G75*
G02*
X144649999Y-102875000I249999J0D01*
G01*
G37*
%TD*%
%TO.C,R145*%
G36*
G01*
X138500000Y-107550001D02*
X138500000Y-106649999D01*
G75*
G02*
X138749999Y-106400000I249999J0D01*
G01*
X139275001Y-106400000D01*
G75*
G02*
X139525000Y-106649999I0J-249999D01*
G01*
X139525000Y-107550001D01*
G75*
G02*
X139275001Y-107800000I-249999J0D01*
G01*
X138749999Y-107800000D01*
G75*
G02*
X138500000Y-107550001I0J249999D01*
G01*
G37*
G36*
G01*
X136675000Y-107550001D02*
X136675000Y-106649999D01*
G75*
G02*
X136924999Y-106400000I249999J0D01*
G01*
X137450001Y-106400000D01*
G75*
G02*
X137700000Y-106649999I0J-249999D01*
G01*
X137700000Y-107550001D01*
G75*
G02*
X137450001Y-107800000I-249999J0D01*
G01*
X136924999Y-107800000D01*
G75*
G02*
X136675000Y-107550001I0J249999D01*
G01*
G37*
%TD*%
%TO.C,R144*%
G36*
G01*
X142388000Y-107550001D02*
X142388000Y-106649999D01*
G75*
G02*
X142637999Y-106400000I249999J0D01*
G01*
X143163001Y-106400000D01*
G75*
G02*
X143413000Y-106649999I0J-249999D01*
G01*
X143413000Y-107550001D01*
G75*
G02*
X143163001Y-107800000I-249999J0D01*
G01*
X142637999Y-107800000D01*
G75*
G02*
X142388000Y-107550001I0J249999D01*
G01*
G37*
G36*
G01*
X140563000Y-107550001D02*
X140563000Y-106649999D01*
G75*
G02*
X140812999Y-106400000I249999J0D01*
G01*
X141338001Y-106400000D01*
G75*
G02*
X141588000Y-106649999I0J-249999D01*
G01*
X141588000Y-107550001D01*
G75*
G02*
X141338001Y-107800000I-249999J0D01*
G01*
X140812999Y-107800000D01*
G75*
G02*
X140563000Y-107550001I0J249999D01*
G01*
G37*
%TD*%
%TO.C,R143*%
G36*
G01*
X138500000Y-101350001D02*
X138500000Y-100449999D01*
G75*
G02*
X138749999Y-100200000I249999J0D01*
G01*
X139275001Y-100200000D01*
G75*
G02*
X139525000Y-100449999I0J-249999D01*
G01*
X139525000Y-101350001D01*
G75*
G02*
X139275001Y-101600000I-249999J0D01*
G01*
X138749999Y-101600000D01*
G75*
G02*
X138500000Y-101350001I0J249999D01*
G01*
G37*
G36*
G01*
X136675000Y-101350001D02*
X136675000Y-100449999D01*
G75*
G02*
X136924999Y-100200000I249999J0D01*
G01*
X137450001Y-100200000D01*
G75*
G02*
X137700000Y-100449999I0J-249999D01*
G01*
X137700000Y-101350001D01*
G75*
G02*
X137450001Y-101600000I-249999J0D01*
G01*
X136924999Y-101600000D01*
G75*
G02*
X136675000Y-101350001I0J249999D01*
G01*
G37*
%TD*%
%TO.C,R142*%
G36*
G01*
X142300000Y-101350001D02*
X142300000Y-100449999D01*
G75*
G02*
X142549999Y-100200000I249999J0D01*
G01*
X143075001Y-100200000D01*
G75*
G02*
X143325000Y-100449999I0J-249999D01*
G01*
X143325000Y-101350001D01*
G75*
G02*
X143075001Y-101600000I-249999J0D01*
G01*
X142549999Y-101600000D01*
G75*
G02*
X142300000Y-101350001I0J249999D01*
G01*
G37*
G36*
G01*
X140475000Y-101350001D02*
X140475000Y-100449999D01*
G75*
G02*
X140724999Y-100200000I249999J0D01*
G01*
X141250001Y-100200000D01*
G75*
G02*
X141500000Y-100449999I0J-249999D01*
G01*
X141500000Y-101350001D01*
G75*
G02*
X141250001Y-101600000I-249999J0D01*
G01*
X140724999Y-101600000D01*
G75*
G02*
X140475000Y-101350001I0J249999D01*
G01*
G37*
%TD*%
%TO.C,C35*%
G36*
G01*
X130200000Y-85375000D02*
X130200000Y-84425000D01*
G75*
G02*
X130450000Y-84175000I250000J0D01*
G01*
X130950000Y-84175000D01*
G75*
G02*
X131200000Y-84425000I0J-250000D01*
G01*
X131200000Y-85375000D01*
G75*
G02*
X130950000Y-85625000I-250000J0D01*
G01*
X130450000Y-85625000D01*
G75*
G02*
X130200000Y-85375000I0J250000D01*
G01*
G37*
G36*
G01*
X128300000Y-85375000D02*
X128300000Y-84425000D01*
G75*
G02*
X128550000Y-84175000I250000J0D01*
G01*
X129050000Y-84175000D01*
G75*
G02*
X129300000Y-84425000I0J-250000D01*
G01*
X129300000Y-85375000D01*
G75*
G02*
X129050000Y-85625000I-250000J0D01*
G01*
X128550000Y-85625000D01*
G75*
G02*
X128300000Y-85375000I0J250000D01*
G01*
G37*
%TD*%
%TO.C,C31*%
G36*
G01*
X130200000Y-88385000D02*
X130200000Y-87435000D01*
G75*
G02*
X130450000Y-87185000I250000J0D01*
G01*
X130950000Y-87185000D01*
G75*
G02*
X131200000Y-87435000I0J-250000D01*
G01*
X131200000Y-88385000D01*
G75*
G02*
X130950000Y-88635000I-250000J0D01*
G01*
X130450000Y-88635000D01*
G75*
G02*
X130200000Y-88385000I0J250000D01*
G01*
G37*
G36*
G01*
X128300000Y-88385000D02*
X128300000Y-87435000D01*
G75*
G02*
X128550000Y-87185000I250000J0D01*
G01*
X129050000Y-87185000D01*
G75*
G02*
X129300000Y-87435000I0J-250000D01*
G01*
X129300000Y-88385000D01*
G75*
G02*
X129050000Y-88635000I-250000J0D01*
G01*
X128550000Y-88635000D01*
G75*
G02*
X128300000Y-88385000I0J250000D01*
G01*
G37*
%TD*%
%TO.C,C26*%
G36*
G01*
X125750000Y-85375000D02*
X125750000Y-84425000D01*
G75*
G02*
X126000000Y-84175000I250000J0D01*
G01*
X126500000Y-84175000D01*
G75*
G02*
X126750000Y-84425000I0J-250000D01*
G01*
X126750000Y-85375000D01*
G75*
G02*
X126500000Y-85625000I-250000J0D01*
G01*
X126000000Y-85625000D01*
G75*
G02*
X125750000Y-85375000I0J250000D01*
G01*
G37*
G36*
G01*
X123850000Y-85375000D02*
X123850000Y-84425000D01*
G75*
G02*
X124100000Y-84175000I250000J0D01*
G01*
X124600000Y-84175000D01*
G75*
G02*
X124850000Y-84425000I0J-250000D01*
G01*
X124850000Y-85375000D01*
G75*
G02*
X124600000Y-85625000I-250000J0D01*
G01*
X124100000Y-85625000D01*
G75*
G02*
X123850000Y-85375000I0J250000D01*
G01*
G37*
%TD*%
%TO.C,C21*%
G36*
G01*
X125750000Y-88385000D02*
X125750000Y-87435000D01*
G75*
G02*
X126000000Y-87185000I250000J0D01*
G01*
X126500000Y-87185000D01*
G75*
G02*
X126750000Y-87435000I0J-250000D01*
G01*
X126750000Y-88385000D01*
G75*
G02*
X126500000Y-88635000I-250000J0D01*
G01*
X126000000Y-88635000D01*
G75*
G02*
X125750000Y-88385000I0J250000D01*
G01*
G37*
G36*
G01*
X123850000Y-88385000D02*
X123850000Y-87435000D01*
G75*
G02*
X124100000Y-87185000I250000J0D01*
G01*
X124600000Y-87185000D01*
G75*
G02*
X124850000Y-87435000I0J-250000D01*
G01*
X124850000Y-88385000D01*
G75*
G02*
X124600000Y-88635000I-250000J0D01*
G01*
X124100000Y-88635000D01*
G75*
G02*
X123850000Y-88385000I0J250000D01*
G01*
G37*
%TD*%
%TO.C,U39*%
G36*
G01*
X179575000Y-98975000D02*
X179575000Y-99175000D01*
G75*
G02*
X179475000Y-99275000I-100000J0D01*
G01*
X178200000Y-99275000D01*
G75*
G02*
X178100000Y-99175000I0J100000D01*
G01*
X178100000Y-98975000D01*
G75*
G02*
X178200000Y-98875000I100000J0D01*
G01*
X179475000Y-98875000D01*
G75*
G02*
X179575000Y-98975000I0J-100000D01*
G01*
G37*
G36*
G01*
X179575000Y-99625000D02*
X179575000Y-99825000D01*
G75*
G02*
X179475000Y-99925000I-100000J0D01*
G01*
X178200000Y-99925000D01*
G75*
G02*
X178100000Y-99825000I0J100000D01*
G01*
X178100000Y-99625000D01*
G75*
G02*
X178200000Y-99525000I100000J0D01*
G01*
X179475000Y-99525000D01*
G75*
G02*
X179575000Y-99625000I0J-100000D01*
G01*
G37*
G36*
G01*
X179575000Y-100275000D02*
X179575000Y-100475000D01*
G75*
G02*
X179475000Y-100575000I-100000J0D01*
G01*
X178200000Y-100575000D01*
G75*
G02*
X178100000Y-100475000I0J100000D01*
G01*
X178100000Y-100275000D01*
G75*
G02*
X178200000Y-100175000I100000J0D01*
G01*
X179475000Y-100175000D01*
G75*
G02*
X179575000Y-100275000I0J-100000D01*
G01*
G37*
G36*
G01*
X179575000Y-100925000D02*
X179575000Y-101125000D01*
G75*
G02*
X179475000Y-101225000I-100000J0D01*
G01*
X178200000Y-101225000D01*
G75*
G02*
X178100000Y-101125000I0J100000D01*
G01*
X178100000Y-100925000D01*
G75*
G02*
X178200000Y-100825000I100000J0D01*
G01*
X179475000Y-100825000D01*
G75*
G02*
X179575000Y-100925000I0J-100000D01*
G01*
G37*
G36*
G01*
X179575000Y-101575000D02*
X179575000Y-101775000D01*
G75*
G02*
X179475000Y-101875000I-100000J0D01*
G01*
X178200000Y-101875000D01*
G75*
G02*
X178100000Y-101775000I0J100000D01*
G01*
X178100000Y-101575000D01*
G75*
G02*
X178200000Y-101475000I100000J0D01*
G01*
X179475000Y-101475000D01*
G75*
G02*
X179575000Y-101575000I0J-100000D01*
G01*
G37*
G36*
G01*
X179575000Y-102225000D02*
X179575000Y-102425000D01*
G75*
G02*
X179475000Y-102525000I-100000J0D01*
G01*
X178200000Y-102525000D01*
G75*
G02*
X178100000Y-102425000I0J100000D01*
G01*
X178100000Y-102225000D01*
G75*
G02*
X178200000Y-102125000I100000J0D01*
G01*
X179475000Y-102125000D01*
G75*
G02*
X179575000Y-102225000I0J-100000D01*
G01*
G37*
G36*
G01*
X179575000Y-102875000D02*
X179575000Y-103075000D01*
G75*
G02*
X179475000Y-103175000I-100000J0D01*
G01*
X178200000Y-103175000D01*
G75*
G02*
X178100000Y-103075000I0J100000D01*
G01*
X178100000Y-102875000D01*
G75*
G02*
X178200000Y-102775000I100000J0D01*
G01*
X179475000Y-102775000D01*
G75*
G02*
X179575000Y-102875000I0J-100000D01*
G01*
G37*
G36*
G01*
X179575000Y-103525000D02*
X179575000Y-103725000D01*
G75*
G02*
X179475000Y-103825000I-100000J0D01*
G01*
X178200000Y-103825000D01*
G75*
G02*
X178100000Y-103725000I0J100000D01*
G01*
X178100000Y-103525000D01*
G75*
G02*
X178200000Y-103425000I100000J0D01*
G01*
X179475000Y-103425000D01*
G75*
G02*
X179575000Y-103525000I0J-100000D01*
G01*
G37*
G36*
G01*
X179575000Y-104175000D02*
X179575000Y-104375000D01*
G75*
G02*
X179475000Y-104475000I-100000J0D01*
G01*
X178200000Y-104475000D01*
G75*
G02*
X178100000Y-104375000I0J100000D01*
G01*
X178100000Y-104175000D01*
G75*
G02*
X178200000Y-104075000I100000J0D01*
G01*
X179475000Y-104075000D01*
G75*
G02*
X179575000Y-104175000I0J-100000D01*
G01*
G37*
G36*
G01*
X179575000Y-104825000D02*
X179575000Y-105025000D01*
G75*
G02*
X179475000Y-105125000I-100000J0D01*
G01*
X178200000Y-105125000D01*
G75*
G02*
X178100000Y-105025000I0J100000D01*
G01*
X178100000Y-104825000D01*
G75*
G02*
X178200000Y-104725000I100000J0D01*
G01*
X179475000Y-104725000D01*
G75*
G02*
X179575000Y-104825000I0J-100000D01*
G01*
G37*
G36*
G01*
X185300000Y-104825000D02*
X185300000Y-105025000D01*
G75*
G02*
X185200000Y-105125000I-100000J0D01*
G01*
X183925000Y-105125000D01*
G75*
G02*
X183825000Y-105025000I0J100000D01*
G01*
X183825000Y-104825000D01*
G75*
G02*
X183925000Y-104725000I100000J0D01*
G01*
X185200000Y-104725000D01*
G75*
G02*
X185300000Y-104825000I0J-100000D01*
G01*
G37*
G36*
G01*
X185300000Y-104175000D02*
X185300000Y-104375000D01*
G75*
G02*
X185200000Y-104475000I-100000J0D01*
G01*
X183925000Y-104475000D01*
G75*
G02*
X183825000Y-104375000I0J100000D01*
G01*
X183825000Y-104175000D01*
G75*
G02*
X183925000Y-104075000I100000J0D01*
G01*
X185200000Y-104075000D01*
G75*
G02*
X185300000Y-104175000I0J-100000D01*
G01*
G37*
G36*
G01*
X185300000Y-103525000D02*
X185300000Y-103725000D01*
G75*
G02*
X185200000Y-103825000I-100000J0D01*
G01*
X183925000Y-103825000D01*
G75*
G02*
X183825000Y-103725000I0J100000D01*
G01*
X183825000Y-103525000D01*
G75*
G02*
X183925000Y-103425000I100000J0D01*
G01*
X185200000Y-103425000D01*
G75*
G02*
X185300000Y-103525000I0J-100000D01*
G01*
G37*
G36*
G01*
X185300000Y-102875000D02*
X185300000Y-103075000D01*
G75*
G02*
X185200000Y-103175000I-100000J0D01*
G01*
X183925000Y-103175000D01*
G75*
G02*
X183825000Y-103075000I0J100000D01*
G01*
X183825000Y-102875000D01*
G75*
G02*
X183925000Y-102775000I100000J0D01*
G01*
X185200000Y-102775000D01*
G75*
G02*
X185300000Y-102875000I0J-100000D01*
G01*
G37*
G36*
G01*
X185300000Y-102225000D02*
X185300000Y-102425000D01*
G75*
G02*
X185200000Y-102525000I-100000J0D01*
G01*
X183925000Y-102525000D01*
G75*
G02*
X183825000Y-102425000I0J100000D01*
G01*
X183825000Y-102225000D01*
G75*
G02*
X183925000Y-102125000I100000J0D01*
G01*
X185200000Y-102125000D01*
G75*
G02*
X185300000Y-102225000I0J-100000D01*
G01*
G37*
G36*
G01*
X185300000Y-101575000D02*
X185300000Y-101775000D01*
G75*
G02*
X185200000Y-101875000I-100000J0D01*
G01*
X183925000Y-101875000D01*
G75*
G02*
X183825000Y-101775000I0J100000D01*
G01*
X183825000Y-101575000D01*
G75*
G02*
X183925000Y-101475000I100000J0D01*
G01*
X185200000Y-101475000D01*
G75*
G02*
X185300000Y-101575000I0J-100000D01*
G01*
G37*
G36*
G01*
X185300000Y-100925000D02*
X185300000Y-101125000D01*
G75*
G02*
X185200000Y-101225000I-100000J0D01*
G01*
X183925000Y-101225000D01*
G75*
G02*
X183825000Y-101125000I0J100000D01*
G01*
X183825000Y-100925000D01*
G75*
G02*
X183925000Y-100825000I100000J0D01*
G01*
X185200000Y-100825000D01*
G75*
G02*
X185300000Y-100925000I0J-100000D01*
G01*
G37*
G36*
G01*
X185300000Y-100275000D02*
X185300000Y-100475000D01*
G75*
G02*
X185200000Y-100575000I-100000J0D01*
G01*
X183925000Y-100575000D01*
G75*
G02*
X183825000Y-100475000I0J100000D01*
G01*
X183825000Y-100275000D01*
G75*
G02*
X183925000Y-100175000I100000J0D01*
G01*
X185200000Y-100175000D01*
G75*
G02*
X185300000Y-100275000I0J-100000D01*
G01*
G37*
G36*
G01*
X185300000Y-99625000D02*
X185300000Y-99825000D01*
G75*
G02*
X185200000Y-99925000I-100000J0D01*
G01*
X183925000Y-99925000D01*
G75*
G02*
X183825000Y-99825000I0J100000D01*
G01*
X183825000Y-99625000D01*
G75*
G02*
X183925000Y-99525000I100000J0D01*
G01*
X185200000Y-99525000D01*
G75*
G02*
X185300000Y-99625000I0J-100000D01*
G01*
G37*
G36*
G01*
X185300000Y-98975000D02*
X185300000Y-99175000D01*
G75*
G02*
X185200000Y-99275000I-100000J0D01*
G01*
X183925000Y-99275000D01*
G75*
G02*
X183825000Y-99175000I0J100000D01*
G01*
X183825000Y-98975000D01*
G75*
G02*
X183925000Y-98875000I100000J0D01*
G01*
X185200000Y-98875000D01*
G75*
G02*
X185300000Y-98975000I0J-100000D01*
G01*
G37*
%TD*%
%TO.C,U31*%
G36*
G01*
X179575000Y-89975000D02*
X179575000Y-90175000D01*
G75*
G02*
X179475000Y-90275000I-100000J0D01*
G01*
X178200000Y-90275000D01*
G75*
G02*
X178100000Y-90175000I0J100000D01*
G01*
X178100000Y-89975000D01*
G75*
G02*
X178200000Y-89875000I100000J0D01*
G01*
X179475000Y-89875000D01*
G75*
G02*
X179575000Y-89975000I0J-100000D01*
G01*
G37*
G36*
G01*
X179575000Y-90625000D02*
X179575000Y-90825000D01*
G75*
G02*
X179475000Y-90925000I-100000J0D01*
G01*
X178200000Y-90925000D01*
G75*
G02*
X178100000Y-90825000I0J100000D01*
G01*
X178100000Y-90625000D01*
G75*
G02*
X178200000Y-90525000I100000J0D01*
G01*
X179475000Y-90525000D01*
G75*
G02*
X179575000Y-90625000I0J-100000D01*
G01*
G37*
G36*
G01*
X179575000Y-91275000D02*
X179575000Y-91475000D01*
G75*
G02*
X179475000Y-91575000I-100000J0D01*
G01*
X178200000Y-91575000D01*
G75*
G02*
X178100000Y-91475000I0J100000D01*
G01*
X178100000Y-91275000D01*
G75*
G02*
X178200000Y-91175000I100000J0D01*
G01*
X179475000Y-91175000D01*
G75*
G02*
X179575000Y-91275000I0J-100000D01*
G01*
G37*
G36*
G01*
X179575000Y-91925000D02*
X179575000Y-92125000D01*
G75*
G02*
X179475000Y-92225000I-100000J0D01*
G01*
X178200000Y-92225000D01*
G75*
G02*
X178100000Y-92125000I0J100000D01*
G01*
X178100000Y-91925000D01*
G75*
G02*
X178200000Y-91825000I100000J0D01*
G01*
X179475000Y-91825000D01*
G75*
G02*
X179575000Y-91925000I0J-100000D01*
G01*
G37*
G36*
G01*
X179575000Y-92575000D02*
X179575000Y-92775000D01*
G75*
G02*
X179475000Y-92875000I-100000J0D01*
G01*
X178200000Y-92875000D01*
G75*
G02*
X178100000Y-92775000I0J100000D01*
G01*
X178100000Y-92575000D01*
G75*
G02*
X178200000Y-92475000I100000J0D01*
G01*
X179475000Y-92475000D01*
G75*
G02*
X179575000Y-92575000I0J-100000D01*
G01*
G37*
G36*
G01*
X179575000Y-93225000D02*
X179575000Y-93425000D01*
G75*
G02*
X179475000Y-93525000I-100000J0D01*
G01*
X178200000Y-93525000D01*
G75*
G02*
X178100000Y-93425000I0J100000D01*
G01*
X178100000Y-93225000D01*
G75*
G02*
X178200000Y-93125000I100000J0D01*
G01*
X179475000Y-93125000D01*
G75*
G02*
X179575000Y-93225000I0J-100000D01*
G01*
G37*
G36*
G01*
X179575000Y-93875000D02*
X179575000Y-94075000D01*
G75*
G02*
X179475000Y-94175000I-100000J0D01*
G01*
X178200000Y-94175000D01*
G75*
G02*
X178100000Y-94075000I0J100000D01*
G01*
X178100000Y-93875000D01*
G75*
G02*
X178200000Y-93775000I100000J0D01*
G01*
X179475000Y-93775000D01*
G75*
G02*
X179575000Y-93875000I0J-100000D01*
G01*
G37*
G36*
G01*
X179575000Y-94525000D02*
X179575000Y-94725000D01*
G75*
G02*
X179475000Y-94825000I-100000J0D01*
G01*
X178200000Y-94825000D01*
G75*
G02*
X178100000Y-94725000I0J100000D01*
G01*
X178100000Y-94525000D01*
G75*
G02*
X178200000Y-94425000I100000J0D01*
G01*
X179475000Y-94425000D01*
G75*
G02*
X179575000Y-94525000I0J-100000D01*
G01*
G37*
G36*
G01*
X179575000Y-95175000D02*
X179575000Y-95375000D01*
G75*
G02*
X179475000Y-95475000I-100000J0D01*
G01*
X178200000Y-95475000D01*
G75*
G02*
X178100000Y-95375000I0J100000D01*
G01*
X178100000Y-95175000D01*
G75*
G02*
X178200000Y-95075000I100000J0D01*
G01*
X179475000Y-95075000D01*
G75*
G02*
X179575000Y-95175000I0J-100000D01*
G01*
G37*
G36*
G01*
X179575000Y-95825000D02*
X179575000Y-96025000D01*
G75*
G02*
X179475000Y-96125000I-100000J0D01*
G01*
X178200000Y-96125000D01*
G75*
G02*
X178100000Y-96025000I0J100000D01*
G01*
X178100000Y-95825000D01*
G75*
G02*
X178200000Y-95725000I100000J0D01*
G01*
X179475000Y-95725000D01*
G75*
G02*
X179575000Y-95825000I0J-100000D01*
G01*
G37*
G36*
G01*
X185300000Y-95825000D02*
X185300000Y-96025000D01*
G75*
G02*
X185200000Y-96125000I-100000J0D01*
G01*
X183925000Y-96125000D01*
G75*
G02*
X183825000Y-96025000I0J100000D01*
G01*
X183825000Y-95825000D01*
G75*
G02*
X183925000Y-95725000I100000J0D01*
G01*
X185200000Y-95725000D01*
G75*
G02*
X185300000Y-95825000I0J-100000D01*
G01*
G37*
G36*
G01*
X185300000Y-95175000D02*
X185300000Y-95375000D01*
G75*
G02*
X185200000Y-95475000I-100000J0D01*
G01*
X183925000Y-95475000D01*
G75*
G02*
X183825000Y-95375000I0J100000D01*
G01*
X183825000Y-95175000D01*
G75*
G02*
X183925000Y-95075000I100000J0D01*
G01*
X185200000Y-95075000D01*
G75*
G02*
X185300000Y-95175000I0J-100000D01*
G01*
G37*
G36*
G01*
X185300000Y-94525000D02*
X185300000Y-94725000D01*
G75*
G02*
X185200000Y-94825000I-100000J0D01*
G01*
X183925000Y-94825000D01*
G75*
G02*
X183825000Y-94725000I0J100000D01*
G01*
X183825000Y-94525000D01*
G75*
G02*
X183925000Y-94425000I100000J0D01*
G01*
X185200000Y-94425000D01*
G75*
G02*
X185300000Y-94525000I0J-100000D01*
G01*
G37*
G36*
G01*
X185300000Y-93875000D02*
X185300000Y-94075000D01*
G75*
G02*
X185200000Y-94175000I-100000J0D01*
G01*
X183925000Y-94175000D01*
G75*
G02*
X183825000Y-94075000I0J100000D01*
G01*
X183825000Y-93875000D01*
G75*
G02*
X183925000Y-93775000I100000J0D01*
G01*
X185200000Y-93775000D01*
G75*
G02*
X185300000Y-93875000I0J-100000D01*
G01*
G37*
G36*
G01*
X185300000Y-93225000D02*
X185300000Y-93425000D01*
G75*
G02*
X185200000Y-93525000I-100000J0D01*
G01*
X183925000Y-93525000D01*
G75*
G02*
X183825000Y-93425000I0J100000D01*
G01*
X183825000Y-93225000D01*
G75*
G02*
X183925000Y-93125000I100000J0D01*
G01*
X185200000Y-93125000D01*
G75*
G02*
X185300000Y-93225000I0J-100000D01*
G01*
G37*
G36*
G01*
X185300000Y-92575000D02*
X185300000Y-92775000D01*
G75*
G02*
X185200000Y-92875000I-100000J0D01*
G01*
X183925000Y-92875000D01*
G75*
G02*
X183825000Y-92775000I0J100000D01*
G01*
X183825000Y-92575000D01*
G75*
G02*
X183925000Y-92475000I100000J0D01*
G01*
X185200000Y-92475000D01*
G75*
G02*
X185300000Y-92575000I0J-100000D01*
G01*
G37*
G36*
G01*
X185300000Y-91925000D02*
X185300000Y-92125000D01*
G75*
G02*
X185200000Y-92225000I-100000J0D01*
G01*
X183925000Y-92225000D01*
G75*
G02*
X183825000Y-92125000I0J100000D01*
G01*
X183825000Y-91925000D01*
G75*
G02*
X183925000Y-91825000I100000J0D01*
G01*
X185200000Y-91825000D01*
G75*
G02*
X185300000Y-91925000I0J-100000D01*
G01*
G37*
G36*
G01*
X185300000Y-91275000D02*
X185300000Y-91475000D01*
G75*
G02*
X185200000Y-91575000I-100000J0D01*
G01*
X183925000Y-91575000D01*
G75*
G02*
X183825000Y-91475000I0J100000D01*
G01*
X183825000Y-91275000D01*
G75*
G02*
X183925000Y-91175000I100000J0D01*
G01*
X185200000Y-91175000D01*
G75*
G02*
X185300000Y-91275000I0J-100000D01*
G01*
G37*
G36*
G01*
X185300000Y-90625000D02*
X185300000Y-90825000D01*
G75*
G02*
X185200000Y-90925000I-100000J0D01*
G01*
X183925000Y-90925000D01*
G75*
G02*
X183825000Y-90825000I0J100000D01*
G01*
X183825000Y-90625000D01*
G75*
G02*
X183925000Y-90525000I100000J0D01*
G01*
X185200000Y-90525000D01*
G75*
G02*
X185300000Y-90625000I0J-100000D01*
G01*
G37*
G36*
G01*
X185300000Y-89975000D02*
X185300000Y-90175000D01*
G75*
G02*
X185200000Y-90275000I-100000J0D01*
G01*
X183925000Y-90275000D01*
G75*
G02*
X183825000Y-90175000I0J100000D01*
G01*
X183825000Y-89975000D01*
G75*
G02*
X183925000Y-89875000I100000J0D01*
G01*
X185200000Y-89875000D01*
G75*
G02*
X185300000Y-89975000I0J-100000D01*
G01*
G37*
%TD*%
%TO.C,R108*%
G36*
G01*
X72599999Y-35422500D02*
X73500001Y-35422500D01*
G75*
G02*
X73750000Y-35672499I0J-249999D01*
G01*
X73750000Y-36197501D01*
G75*
G02*
X73500001Y-36447500I-249999J0D01*
G01*
X72599999Y-36447500D01*
G75*
G02*
X72350000Y-36197501I0J249999D01*
G01*
X72350000Y-35672499D01*
G75*
G02*
X72599999Y-35422500I249999J0D01*
G01*
G37*
G36*
G01*
X72599999Y-33597500D02*
X73500001Y-33597500D01*
G75*
G02*
X73750000Y-33847499I0J-249999D01*
G01*
X73750000Y-34372501D01*
G75*
G02*
X73500001Y-34622500I-249999J0D01*
G01*
X72599999Y-34622500D01*
G75*
G02*
X72350000Y-34372501I0J249999D01*
G01*
X72350000Y-33847499D01*
G75*
G02*
X72599999Y-33597500I249999J0D01*
G01*
G37*
%TD*%
%TO.C,R107*%
G36*
G01*
X75749999Y-35422500D02*
X76650001Y-35422500D01*
G75*
G02*
X76900000Y-35672499I0J-249999D01*
G01*
X76900000Y-36197501D01*
G75*
G02*
X76650001Y-36447500I-249999J0D01*
G01*
X75749999Y-36447500D01*
G75*
G02*
X75500000Y-36197501I0J249999D01*
G01*
X75500000Y-35672499D01*
G75*
G02*
X75749999Y-35422500I249999J0D01*
G01*
G37*
G36*
G01*
X75749999Y-33597500D02*
X76650001Y-33597500D01*
G75*
G02*
X76900000Y-33847499I0J-249999D01*
G01*
X76900000Y-34372501D01*
G75*
G02*
X76650001Y-34622500I-249999J0D01*
G01*
X75749999Y-34622500D01*
G75*
G02*
X75500000Y-34372501I0J249999D01*
G01*
X75500000Y-33847499D01*
G75*
G02*
X75749999Y-33597500I249999J0D01*
G01*
G37*
%TD*%
%TO.C,R106*%
G36*
G01*
X78899999Y-35422500D02*
X79800001Y-35422500D01*
G75*
G02*
X80050000Y-35672499I0J-249999D01*
G01*
X80050000Y-36197501D01*
G75*
G02*
X79800001Y-36447500I-249999J0D01*
G01*
X78899999Y-36447500D01*
G75*
G02*
X78650000Y-36197501I0J249999D01*
G01*
X78650000Y-35672499D01*
G75*
G02*
X78899999Y-35422500I249999J0D01*
G01*
G37*
G36*
G01*
X78899999Y-33597500D02*
X79800001Y-33597500D01*
G75*
G02*
X80050000Y-33847499I0J-249999D01*
G01*
X80050000Y-34372501D01*
G75*
G02*
X79800001Y-34622500I-249999J0D01*
G01*
X78899999Y-34622500D01*
G75*
G02*
X78650000Y-34372501I0J249999D01*
G01*
X78650000Y-33847499D01*
G75*
G02*
X78899999Y-33597500I249999J0D01*
G01*
G37*
%TD*%
%TO.C,R105*%
G36*
G01*
X82249999Y-35422500D02*
X83150001Y-35422500D01*
G75*
G02*
X83400000Y-35672499I0J-249999D01*
G01*
X83400000Y-36197501D01*
G75*
G02*
X83150001Y-36447500I-249999J0D01*
G01*
X82249999Y-36447500D01*
G75*
G02*
X82000000Y-36197501I0J249999D01*
G01*
X82000000Y-35672499D01*
G75*
G02*
X82249999Y-35422500I249999J0D01*
G01*
G37*
G36*
G01*
X82249999Y-33597500D02*
X83150001Y-33597500D01*
G75*
G02*
X83400000Y-33847499I0J-249999D01*
G01*
X83400000Y-34372501D01*
G75*
G02*
X83150001Y-34622500I-249999J0D01*
G01*
X82249999Y-34622500D01*
G75*
G02*
X82000000Y-34372501I0J249999D01*
G01*
X82000000Y-33847499D01*
G75*
G02*
X82249999Y-33597500I249999J0D01*
G01*
G37*
%TD*%
%TO.C,R104*%
G36*
G01*
X85399999Y-35422500D02*
X86300001Y-35422500D01*
G75*
G02*
X86550000Y-35672499I0J-249999D01*
G01*
X86550000Y-36197501D01*
G75*
G02*
X86300001Y-36447500I-249999J0D01*
G01*
X85399999Y-36447500D01*
G75*
G02*
X85150000Y-36197501I0J249999D01*
G01*
X85150000Y-35672499D01*
G75*
G02*
X85399999Y-35422500I249999J0D01*
G01*
G37*
G36*
G01*
X85399999Y-33597500D02*
X86300001Y-33597500D01*
G75*
G02*
X86550000Y-33847499I0J-249999D01*
G01*
X86550000Y-34372501D01*
G75*
G02*
X86300001Y-34622500I-249999J0D01*
G01*
X85399999Y-34622500D01*
G75*
G02*
X85150000Y-34372501I0J249999D01*
G01*
X85150000Y-33847499D01*
G75*
G02*
X85399999Y-33597500I249999J0D01*
G01*
G37*
%TD*%
%TO.C,R101*%
G36*
G01*
X88549999Y-35422500D02*
X89450001Y-35422500D01*
G75*
G02*
X89700000Y-35672499I0J-249999D01*
G01*
X89700000Y-36197501D01*
G75*
G02*
X89450001Y-36447500I-249999J0D01*
G01*
X88549999Y-36447500D01*
G75*
G02*
X88300000Y-36197501I0J249999D01*
G01*
X88300000Y-35672499D01*
G75*
G02*
X88549999Y-35422500I249999J0D01*
G01*
G37*
G36*
G01*
X88549999Y-33597500D02*
X89450001Y-33597500D01*
G75*
G02*
X89700000Y-33847499I0J-249999D01*
G01*
X89700000Y-34372501D01*
G75*
G02*
X89450001Y-34622500I-249999J0D01*
G01*
X88549999Y-34622500D01*
G75*
G02*
X88300000Y-34372501I0J249999D01*
G01*
X88300000Y-33847499D01*
G75*
G02*
X88549999Y-33597500I249999J0D01*
G01*
G37*
%TD*%
%TO.C,R99*%
G36*
G01*
X91699999Y-35422500D02*
X92600001Y-35422500D01*
G75*
G02*
X92850000Y-35672499I0J-249999D01*
G01*
X92850000Y-36197501D01*
G75*
G02*
X92600001Y-36447500I-249999J0D01*
G01*
X91699999Y-36447500D01*
G75*
G02*
X91450000Y-36197501I0J249999D01*
G01*
X91450000Y-35672499D01*
G75*
G02*
X91699999Y-35422500I249999J0D01*
G01*
G37*
G36*
G01*
X91699999Y-33597500D02*
X92600001Y-33597500D01*
G75*
G02*
X92850000Y-33847499I0J-249999D01*
G01*
X92850000Y-34372501D01*
G75*
G02*
X92600001Y-34622500I-249999J0D01*
G01*
X91699999Y-34622500D01*
G75*
G02*
X91450000Y-34372501I0J249999D01*
G01*
X91450000Y-33847499D01*
G75*
G02*
X91699999Y-33597500I249999J0D01*
G01*
G37*
%TD*%
%TO.C,R98*%
G36*
G01*
X95049999Y-35422500D02*
X95950001Y-35422500D01*
G75*
G02*
X96200000Y-35672499I0J-249999D01*
G01*
X96200000Y-36197501D01*
G75*
G02*
X95950001Y-36447500I-249999J0D01*
G01*
X95049999Y-36447500D01*
G75*
G02*
X94800000Y-36197501I0J249999D01*
G01*
X94800000Y-35672499D01*
G75*
G02*
X95049999Y-35422500I249999J0D01*
G01*
G37*
G36*
G01*
X95049999Y-33597500D02*
X95950001Y-33597500D01*
G75*
G02*
X96200000Y-33847499I0J-249999D01*
G01*
X96200000Y-34372501D01*
G75*
G02*
X95950001Y-34622500I-249999J0D01*
G01*
X95049999Y-34622500D01*
G75*
G02*
X94800000Y-34372501I0J249999D01*
G01*
X94800000Y-33847499D01*
G75*
G02*
X95049999Y-33597500I249999J0D01*
G01*
G37*
%TD*%
%TO.C,R97*%
G36*
G01*
X97799999Y-35422500D02*
X98700001Y-35422500D01*
G75*
G02*
X98950000Y-35672499I0J-249999D01*
G01*
X98950000Y-36197501D01*
G75*
G02*
X98700001Y-36447500I-249999J0D01*
G01*
X97799999Y-36447500D01*
G75*
G02*
X97550000Y-36197501I0J249999D01*
G01*
X97550000Y-35672499D01*
G75*
G02*
X97799999Y-35422500I249999J0D01*
G01*
G37*
G36*
G01*
X97799999Y-33597500D02*
X98700001Y-33597500D01*
G75*
G02*
X98950000Y-33847499I0J-249999D01*
G01*
X98950000Y-34372501D01*
G75*
G02*
X98700001Y-34622500I-249999J0D01*
G01*
X97799999Y-34622500D01*
G75*
G02*
X97550000Y-34372501I0J249999D01*
G01*
X97550000Y-33847499D01*
G75*
G02*
X97799999Y-33597500I249999J0D01*
G01*
G37*
%TD*%
%TO.C,R96*%
G36*
G01*
X100949999Y-35422500D02*
X101850001Y-35422500D01*
G75*
G02*
X102100000Y-35672499I0J-249999D01*
G01*
X102100000Y-36197501D01*
G75*
G02*
X101850001Y-36447500I-249999J0D01*
G01*
X100949999Y-36447500D01*
G75*
G02*
X100700000Y-36197501I0J249999D01*
G01*
X100700000Y-35672499D01*
G75*
G02*
X100949999Y-35422500I249999J0D01*
G01*
G37*
G36*
G01*
X100949999Y-33597500D02*
X101850001Y-33597500D01*
G75*
G02*
X102100000Y-33847499I0J-249999D01*
G01*
X102100000Y-34372501D01*
G75*
G02*
X101850001Y-34622500I-249999J0D01*
G01*
X100949999Y-34622500D01*
G75*
G02*
X100700000Y-34372501I0J249999D01*
G01*
X100700000Y-33847499D01*
G75*
G02*
X100949999Y-33597500I249999J0D01*
G01*
G37*
%TD*%
%TO.C,R95*%
G36*
G01*
X103699999Y-35422500D02*
X104600001Y-35422500D01*
G75*
G02*
X104850000Y-35672499I0J-249999D01*
G01*
X104850000Y-36197501D01*
G75*
G02*
X104600001Y-36447500I-249999J0D01*
G01*
X103699999Y-36447500D01*
G75*
G02*
X103450000Y-36197501I0J249999D01*
G01*
X103450000Y-35672499D01*
G75*
G02*
X103699999Y-35422500I249999J0D01*
G01*
G37*
G36*
G01*
X103699999Y-33597500D02*
X104600001Y-33597500D01*
G75*
G02*
X104850000Y-33847499I0J-249999D01*
G01*
X104850000Y-34372501D01*
G75*
G02*
X104600001Y-34622500I-249999J0D01*
G01*
X103699999Y-34622500D01*
G75*
G02*
X103450000Y-34372501I0J249999D01*
G01*
X103450000Y-33847499D01*
G75*
G02*
X103699999Y-33597500I249999J0D01*
G01*
G37*
%TD*%
%TO.C,R94*%
G36*
G01*
X107249999Y-35422500D02*
X108150001Y-35422500D01*
G75*
G02*
X108400000Y-35672499I0J-249999D01*
G01*
X108400000Y-36197501D01*
G75*
G02*
X108150001Y-36447500I-249999J0D01*
G01*
X107249999Y-36447500D01*
G75*
G02*
X107000000Y-36197501I0J249999D01*
G01*
X107000000Y-35672499D01*
G75*
G02*
X107249999Y-35422500I249999J0D01*
G01*
G37*
G36*
G01*
X107249999Y-33597500D02*
X108150001Y-33597500D01*
G75*
G02*
X108400000Y-33847499I0J-249999D01*
G01*
X108400000Y-34372501D01*
G75*
G02*
X108150001Y-34622500I-249999J0D01*
G01*
X107249999Y-34622500D01*
G75*
G02*
X107000000Y-34372501I0J249999D01*
G01*
X107000000Y-33847499D01*
G75*
G02*
X107249999Y-33597500I249999J0D01*
G01*
G37*
%TD*%
%TO.C,R93*%
G36*
G01*
X110399999Y-35422500D02*
X111300001Y-35422500D01*
G75*
G02*
X111550000Y-35672499I0J-249999D01*
G01*
X111550000Y-36197501D01*
G75*
G02*
X111300001Y-36447500I-249999J0D01*
G01*
X110399999Y-36447500D01*
G75*
G02*
X110150000Y-36197501I0J249999D01*
G01*
X110150000Y-35672499D01*
G75*
G02*
X110399999Y-35422500I249999J0D01*
G01*
G37*
G36*
G01*
X110399999Y-33597500D02*
X111300001Y-33597500D01*
G75*
G02*
X111550000Y-33847499I0J-249999D01*
G01*
X111550000Y-34372501D01*
G75*
G02*
X111300001Y-34622500I-249999J0D01*
G01*
X110399999Y-34622500D01*
G75*
G02*
X110150000Y-34372501I0J249999D01*
G01*
X110150000Y-33847499D01*
G75*
G02*
X110399999Y-33597500I249999J0D01*
G01*
G37*
%TD*%
%TO.C,R92*%
G36*
G01*
X113949999Y-35422500D02*
X114850001Y-35422500D01*
G75*
G02*
X115100000Y-35672499I0J-249999D01*
G01*
X115100000Y-36197501D01*
G75*
G02*
X114850001Y-36447500I-249999J0D01*
G01*
X113949999Y-36447500D01*
G75*
G02*
X113700000Y-36197501I0J249999D01*
G01*
X113700000Y-35672499D01*
G75*
G02*
X113949999Y-35422500I249999J0D01*
G01*
G37*
G36*
G01*
X113949999Y-33597500D02*
X114850001Y-33597500D01*
G75*
G02*
X115100000Y-33847499I0J-249999D01*
G01*
X115100000Y-34372501D01*
G75*
G02*
X114850001Y-34622500I-249999J0D01*
G01*
X113949999Y-34622500D01*
G75*
G02*
X113700000Y-34372501I0J249999D01*
G01*
X113700000Y-33847499D01*
G75*
G02*
X113949999Y-33597500I249999J0D01*
G01*
G37*
%TD*%
%TO.C,R91*%
G36*
G01*
X117499999Y-35422500D02*
X118400001Y-35422500D01*
G75*
G02*
X118650000Y-35672499I0J-249999D01*
G01*
X118650000Y-36197501D01*
G75*
G02*
X118400001Y-36447500I-249999J0D01*
G01*
X117499999Y-36447500D01*
G75*
G02*
X117250000Y-36197501I0J249999D01*
G01*
X117250000Y-35672499D01*
G75*
G02*
X117499999Y-35422500I249999J0D01*
G01*
G37*
G36*
G01*
X117499999Y-33597500D02*
X118400001Y-33597500D01*
G75*
G02*
X118650000Y-33847499I0J-249999D01*
G01*
X118650000Y-34372501D01*
G75*
G02*
X118400001Y-34622500I-249999J0D01*
G01*
X117499999Y-34622500D01*
G75*
G02*
X117250000Y-34372501I0J249999D01*
G01*
X117250000Y-33847499D01*
G75*
G02*
X117499999Y-33597500I249999J0D01*
G01*
G37*
%TD*%
%TO.C,R90*%
G36*
G01*
X120449999Y-35422500D02*
X121350001Y-35422500D01*
G75*
G02*
X121600000Y-35672499I0J-249999D01*
G01*
X121600000Y-36197501D01*
G75*
G02*
X121350001Y-36447500I-249999J0D01*
G01*
X120449999Y-36447500D01*
G75*
G02*
X120200000Y-36197501I0J249999D01*
G01*
X120200000Y-35672499D01*
G75*
G02*
X120449999Y-35422500I249999J0D01*
G01*
G37*
G36*
G01*
X120449999Y-33597500D02*
X121350001Y-33597500D01*
G75*
G02*
X121600000Y-33847499I0J-249999D01*
G01*
X121600000Y-34372501D01*
G75*
G02*
X121350001Y-34622500I-249999J0D01*
G01*
X120449999Y-34622500D01*
G75*
G02*
X120200000Y-34372501I0J249999D01*
G01*
X120200000Y-33847499D01*
G75*
G02*
X120449999Y-33597500I249999J0D01*
G01*
G37*
%TD*%
%TO.C,R54*%
G36*
G01*
X247800000Y-32549999D02*
X247800000Y-33450001D01*
G75*
G02*
X247550001Y-33700000I-249999J0D01*
G01*
X247024999Y-33700000D01*
G75*
G02*
X246775000Y-33450001I0J249999D01*
G01*
X246775000Y-32549999D01*
G75*
G02*
X247024999Y-32300000I249999J0D01*
G01*
X247550001Y-32300000D01*
G75*
G02*
X247800000Y-32549999I0J-249999D01*
G01*
G37*
G36*
G01*
X249625000Y-32549999D02*
X249625000Y-33450001D01*
G75*
G02*
X249375001Y-33700000I-249999J0D01*
G01*
X248849999Y-33700000D01*
G75*
G02*
X248600000Y-33450001I0J249999D01*
G01*
X248600000Y-32549999D01*
G75*
G02*
X248849999Y-32300000I249999J0D01*
G01*
X249375001Y-32300000D01*
G75*
G02*
X249625000Y-32549999I0J-249999D01*
G01*
G37*
%TD*%
%TO.C,R53*%
G36*
G01*
X252850000Y-101949999D02*
X252850000Y-102850001D01*
G75*
G02*
X252600001Y-103100000I-249999J0D01*
G01*
X252074999Y-103100000D01*
G75*
G02*
X251825000Y-102850001I0J249999D01*
G01*
X251825000Y-101949999D01*
G75*
G02*
X252074999Y-101700000I249999J0D01*
G01*
X252600001Y-101700000D01*
G75*
G02*
X252850000Y-101949999I0J-249999D01*
G01*
G37*
G36*
G01*
X254675000Y-101949999D02*
X254675000Y-102850001D01*
G75*
G02*
X254425001Y-103100000I-249999J0D01*
G01*
X253899999Y-103100000D01*
G75*
G02*
X253650000Y-102850001I0J249999D01*
G01*
X253650000Y-101949999D01*
G75*
G02*
X253899999Y-101700000I249999J0D01*
G01*
X254425001Y-101700000D01*
G75*
G02*
X254675000Y-101949999I0J-249999D01*
G01*
G37*
%TD*%
%TO.C,R52*%
G36*
G01*
X247800000Y-37166699D02*
X247800000Y-38066701D01*
G75*
G02*
X247550001Y-38316700I-249999J0D01*
G01*
X247024999Y-38316700D01*
G75*
G02*
X246775000Y-38066701I0J249999D01*
G01*
X246775000Y-37166699D01*
G75*
G02*
X247024999Y-36916700I249999J0D01*
G01*
X247550001Y-36916700D01*
G75*
G02*
X247800000Y-37166699I0J-249999D01*
G01*
G37*
G36*
G01*
X249625000Y-37166699D02*
X249625000Y-38066701D01*
G75*
G02*
X249375001Y-38316700I-249999J0D01*
G01*
X248849999Y-38316700D01*
G75*
G02*
X248600000Y-38066701I0J249999D01*
G01*
X248600000Y-37166699D01*
G75*
G02*
X248849999Y-36916700I249999J0D01*
G01*
X249375001Y-36916700D01*
G75*
G02*
X249625000Y-37166699I0J-249999D01*
G01*
G37*
%TD*%
%TO.C,R51*%
G36*
G01*
X252850000Y-97333299D02*
X252850000Y-98233301D01*
G75*
G02*
X252600001Y-98483300I-249999J0D01*
G01*
X252074999Y-98483300D01*
G75*
G02*
X251825000Y-98233301I0J249999D01*
G01*
X251825000Y-97333299D01*
G75*
G02*
X252074999Y-97083300I249999J0D01*
G01*
X252600001Y-97083300D01*
G75*
G02*
X252850000Y-97333299I0J-249999D01*
G01*
G37*
G36*
G01*
X254675000Y-97333299D02*
X254675000Y-98233301D01*
G75*
G02*
X254425001Y-98483300I-249999J0D01*
G01*
X253899999Y-98483300D01*
G75*
G02*
X253650000Y-98233301I0J249999D01*
G01*
X253650000Y-97333299D01*
G75*
G02*
X253899999Y-97083300I249999J0D01*
G01*
X254425001Y-97083300D01*
G75*
G02*
X254675000Y-97333299I0J-249999D01*
G01*
G37*
%TD*%
%TO.C,R48*%
G36*
G01*
X247800000Y-41783299D02*
X247800000Y-42683301D01*
G75*
G02*
X247550001Y-42933300I-249999J0D01*
G01*
X247024999Y-42933300D01*
G75*
G02*
X246775000Y-42683301I0J249999D01*
G01*
X246775000Y-41783299D01*
G75*
G02*
X247024999Y-41533300I249999J0D01*
G01*
X247550001Y-41533300D01*
G75*
G02*
X247800000Y-41783299I0J-249999D01*
G01*
G37*
G36*
G01*
X249625000Y-41783299D02*
X249625000Y-42683301D01*
G75*
G02*
X249375001Y-42933300I-249999J0D01*
G01*
X248849999Y-42933300D01*
G75*
G02*
X248600000Y-42683301I0J249999D01*
G01*
X248600000Y-41783299D01*
G75*
G02*
X248849999Y-41533300I249999J0D01*
G01*
X249375001Y-41533300D01*
G75*
G02*
X249625000Y-41783299I0J-249999D01*
G01*
G37*
%TD*%
%TO.C,R47*%
G36*
G01*
X252850000Y-92716699D02*
X252850000Y-93616701D01*
G75*
G02*
X252600001Y-93866700I-249999J0D01*
G01*
X252074999Y-93866700D01*
G75*
G02*
X251825000Y-93616701I0J249999D01*
G01*
X251825000Y-92716699D01*
G75*
G02*
X252074999Y-92466700I249999J0D01*
G01*
X252600001Y-92466700D01*
G75*
G02*
X252850000Y-92716699I0J-249999D01*
G01*
G37*
G36*
G01*
X254675000Y-92716699D02*
X254675000Y-93616701D01*
G75*
G02*
X254425001Y-93866700I-249999J0D01*
G01*
X253899999Y-93866700D01*
G75*
G02*
X253650000Y-93616701I0J249999D01*
G01*
X253650000Y-92716699D01*
G75*
G02*
X253899999Y-92466700I249999J0D01*
G01*
X254425001Y-92466700D01*
G75*
G02*
X254675000Y-92716699I0J-249999D01*
G01*
G37*
%TD*%
%TO.C,R44*%
G36*
G01*
X247800000Y-46399999D02*
X247800000Y-47300001D01*
G75*
G02*
X247550001Y-47550000I-249999J0D01*
G01*
X247024999Y-47550000D01*
G75*
G02*
X246775000Y-47300001I0J249999D01*
G01*
X246775000Y-46399999D01*
G75*
G02*
X247024999Y-46150000I249999J0D01*
G01*
X247550001Y-46150000D01*
G75*
G02*
X247800000Y-46399999I0J-249999D01*
G01*
G37*
G36*
G01*
X249625000Y-46399999D02*
X249625000Y-47300001D01*
G75*
G02*
X249375001Y-47550000I-249999J0D01*
G01*
X248849999Y-47550000D01*
G75*
G02*
X248600000Y-47300001I0J249999D01*
G01*
X248600000Y-46399999D01*
G75*
G02*
X248849999Y-46150000I249999J0D01*
G01*
X249375001Y-46150000D01*
G75*
G02*
X249625000Y-46399999I0J-249999D01*
G01*
G37*
%TD*%
%TO.C,R43*%
G36*
G01*
X252850000Y-88099999D02*
X252850000Y-89000001D01*
G75*
G02*
X252600001Y-89250000I-249999J0D01*
G01*
X252074999Y-89250000D01*
G75*
G02*
X251825000Y-89000001I0J249999D01*
G01*
X251825000Y-88099999D01*
G75*
G02*
X252074999Y-87850000I249999J0D01*
G01*
X252600001Y-87850000D01*
G75*
G02*
X252850000Y-88099999I0J-249999D01*
G01*
G37*
G36*
G01*
X254675000Y-88099999D02*
X254675000Y-89000001D01*
G75*
G02*
X254425001Y-89250000I-249999J0D01*
G01*
X253899999Y-89250000D01*
G75*
G02*
X253650000Y-89000001I0J249999D01*
G01*
X253650000Y-88099999D01*
G75*
G02*
X253899999Y-87850000I249999J0D01*
G01*
X254425001Y-87850000D01*
G75*
G02*
X254675000Y-88099999I0J-249999D01*
G01*
G37*
%TD*%
%TO.C,R42*%
G36*
G01*
X247800000Y-51016699D02*
X247800000Y-51916701D01*
G75*
G02*
X247550001Y-52166700I-249999J0D01*
G01*
X247024999Y-52166700D01*
G75*
G02*
X246775000Y-51916701I0J249999D01*
G01*
X246775000Y-51016699D01*
G75*
G02*
X247024999Y-50766700I249999J0D01*
G01*
X247550001Y-50766700D01*
G75*
G02*
X247800000Y-51016699I0J-249999D01*
G01*
G37*
G36*
G01*
X249625000Y-51016699D02*
X249625000Y-51916701D01*
G75*
G02*
X249375001Y-52166700I-249999J0D01*
G01*
X248849999Y-52166700D01*
G75*
G02*
X248600000Y-51916701I0J249999D01*
G01*
X248600000Y-51016699D01*
G75*
G02*
X248849999Y-50766700I249999J0D01*
G01*
X249375001Y-50766700D01*
G75*
G02*
X249625000Y-51016699I0J-249999D01*
G01*
G37*
%TD*%
%TO.C,R41*%
G36*
G01*
X252850000Y-83483299D02*
X252850000Y-84383301D01*
G75*
G02*
X252600001Y-84633300I-249999J0D01*
G01*
X252074999Y-84633300D01*
G75*
G02*
X251825000Y-84383301I0J249999D01*
G01*
X251825000Y-83483299D01*
G75*
G02*
X252074999Y-83233300I249999J0D01*
G01*
X252600001Y-83233300D01*
G75*
G02*
X252850000Y-83483299I0J-249999D01*
G01*
G37*
G36*
G01*
X254675000Y-83483299D02*
X254675000Y-84383301D01*
G75*
G02*
X254425001Y-84633300I-249999J0D01*
G01*
X253899999Y-84633300D01*
G75*
G02*
X253650000Y-84383301I0J249999D01*
G01*
X253650000Y-83483299D01*
G75*
G02*
X253899999Y-83233300I249999J0D01*
G01*
X254425001Y-83233300D01*
G75*
G02*
X254675000Y-83483299I0J-249999D01*
G01*
G37*
%TD*%
%TO.C,R40*%
G36*
G01*
X247800000Y-55633299D02*
X247800000Y-56533301D01*
G75*
G02*
X247550001Y-56783300I-249999J0D01*
G01*
X247024999Y-56783300D01*
G75*
G02*
X246775000Y-56533301I0J249999D01*
G01*
X246775000Y-55633299D01*
G75*
G02*
X247024999Y-55383300I249999J0D01*
G01*
X247550001Y-55383300D01*
G75*
G02*
X247800000Y-55633299I0J-249999D01*
G01*
G37*
G36*
G01*
X249625000Y-55633299D02*
X249625000Y-56533301D01*
G75*
G02*
X249375001Y-56783300I-249999J0D01*
G01*
X248849999Y-56783300D01*
G75*
G02*
X248600000Y-56533301I0J249999D01*
G01*
X248600000Y-55633299D01*
G75*
G02*
X248849999Y-55383300I249999J0D01*
G01*
X249375001Y-55383300D01*
G75*
G02*
X249625000Y-55633299I0J-249999D01*
G01*
G37*
%TD*%
%TO.C,R39*%
G36*
G01*
X252850000Y-78866699D02*
X252850000Y-79766701D01*
G75*
G02*
X252600001Y-80016700I-249999J0D01*
G01*
X252074999Y-80016700D01*
G75*
G02*
X251825000Y-79766701I0J249999D01*
G01*
X251825000Y-78866699D01*
G75*
G02*
X252074999Y-78616700I249999J0D01*
G01*
X252600001Y-78616700D01*
G75*
G02*
X252850000Y-78866699I0J-249999D01*
G01*
G37*
G36*
G01*
X254675000Y-78866699D02*
X254675000Y-79766701D01*
G75*
G02*
X254425001Y-80016700I-249999J0D01*
G01*
X253899999Y-80016700D01*
G75*
G02*
X253650000Y-79766701I0J249999D01*
G01*
X253650000Y-78866699D01*
G75*
G02*
X253899999Y-78616700I249999J0D01*
G01*
X254425001Y-78616700D01*
G75*
G02*
X254675000Y-78866699I0J-249999D01*
G01*
G37*
%TD*%
%TO.C,R38*%
G36*
G01*
X247800000Y-60249999D02*
X247800000Y-61150001D01*
G75*
G02*
X247550001Y-61400000I-249999J0D01*
G01*
X247024999Y-61400000D01*
G75*
G02*
X246775000Y-61150001I0J249999D01*
G01*
X246775000Y-60249999D01*
G75*
G02*
X247024999Y-60000000I249999J0D01*
G01*
X247550001Y-60000000D01*
G75*
G02*
X247800000Y-60249999I0J-249999D01*
G01*
G37*
G36*
G01*
X249625000Y-60249999D02*
X249625000Y-61150001D01*
G75*
G02*
X249375001Y-61400000I-249999J0D01*
G01*
X248849999Y-61400000D01*
G75*
G02*
X248600000Y-61150001I0J249999D01*
G01*
X248600000Y-60249999D01*
G75*
G02*
X248849999Y-60000000I249999J0D01*
G01*
X249375001Y-60000000D01*
G75*
G02*
X249625000Y-60249999I0J-249999D01*
G01*
G37*
%TD*%
%TO.C,R37*%
G36*
G01*
X252850000Y-74249999D02*
X252850000Y-75150001D01*
G75*
G02*
X252600001Y-75400000I-249999J0D01*
G01*
X252074999Y-75400000D01*
G75*
G02*
X251825000Y-75150001I0J249999D01*
G01*
X251825000Y-74249999D01*
G75*
G02*
X252074999Y-74000000I249999J0D01*
G01*
X252600001Y-74000000D01*
G75*
G02*
X252850000Y-74249999I0J-249999D01*
G01*
G37*
G36*
G01*
X254675000Y-74249999D02*
X254675000Y-75150001D01*
G75*
G02*
X254425001Y-75400000I-249999J0D01*
G01*
X253899999Y-75400000D01*
G75*
G02*
X253650000Y-75150001I0J249999D01*
G01*
X253650000Y-74249999D01*
G75*
G02*
X253899999Y-74000000I249999J0D01*
G01*
X254425001Y-74000000D01*
G75*
G02*
X254675000Y-74249999I0J-249999D01*
G01*
G37*
%TD*%
%TO.C,R141*%
G36*
G01*
X81315901Y-135380000D02*
X80415899Y-135380000D01*
G75*
G02*
X80165900Y-135130001I0J249999D01*
G01*
X80165900Y-134604999D01*
G75*
G02*
X80415899Y-134355000I249999J0D01*
G01*
X81315901Y-134355000D01*
G75*
G02*
X81565900Y-134604999I0J-249999D01*
G01*
X81565900Y-135130001D01*
G75*
G02*
X81315901Y-135380000I-249999J0D01*
G01*
G37*
G36*
G01*
X81315901Y-137205000D02*
X80415899Y-137205000D01*
G75*
G02*
X80165900Y-136955001I0J249999D01*
G01*
X80165900Y-136429999D01*
G75*
G02*
X80415899Y-136180000I249999J0D01*
G01*
X81315901Y-136180000D01*
G75*
G02*
X81565900Y-136429999I0J-249999D01*
G01*
X81565900Y-136955001D01*
G75*
G02*
X81315901Y-137205000I-249999J0D01*
G01*
G37*
%TD*%
%TO.C,R140*%
G36*
G01*
X155049999Y-64112000D02*
X155950001Y-64112000D01*
G75*
G02*
X156200000Y-64361999I0J-249999D01*
G01*
X156200000Y-64887001D01*
G75*
G02*
X155950001Y-65137000I-249999J0D01*
G01*
X155049999Y-65137000D01*
G75*
G02*
X154800000Y-64887001I0J249999D01*
G01*
X154800000Y-64361999D01*
G75*
G02*
X155049999Y-64112000I249999J0D01*
G01*
G37*
G36*
G01*
X155049999Y-62287000D02*
X155950001Y-62287000D01*
G75*
G02*
X156200000Y-62536999I0J-249999D01*
G01*
X156200000Y-63062001D01*
G75*
G02*
X155950001Y-63312000I-249999J0D01*
G01*
X155049999Y-63312000D01*
G75*
G02*
X154800000Y-63062001I0J249999D01*
G01*
X154800000Y-62536999D01*
G75*
G02*
X155049999Y-62287000I249999J0D01*
G01*
G37*
%TD*%
%TO.C,R139*%
G36*
G01*
X94707801Y-135380000D02*
X93807799Y-135380000D01*
G75*
G02*
X93557800Y-135130001I0J249999D01*
G01*
X93557800Y-134604999D01*
G75*
G02*
X93807799Y-134355000I249999J0D01*
G01*
X94707801Y-134355000D01*
G75*
G02*
X94957800Y-134604999I0J-249999D01*
G01*
X94957800Y-135130001D01*
G75*
G02*
X94707801Y-135380000I-249999J0D01*
G01*
G37*
G36*
G01*
X94707801Y-137205000D02*
X93807799Y-137205000D01*
G75*
G02*
X93557800Y-136955001I0J249999D01*
G01*
X93557800Y-136429999D01*
G75*
G02*
X93807799Y-136180000I249999J0D01*
G01*
X94707801Y-136180000D01*
G75*
G02*
X94957800Y-136429999I0J-249999D01*
G01*
X94957800Y-136955001D01*
G75*
G02*
X94707801Y-137205000I-249999J0D01*
G01*
G37*
%TD*%
%TO.C,R138*%
G36*
G01*
X136350001Y-63300000D02*
X135449999Y-63300000D01*
G75*
G02*
X135200000Y-63050001I0J249999D01*
G01*
X135200000Y-62524999D01*
G75*
G02*
X135449999Y-62275000I249999J0D01*
G01*
X136350001Y-62275000D01*
G75*
G02*
X136600000Y-62524999I0J-249999D01*
G01*
X136600000Y-63050001D01*
G75*
G02*
X136350001Y-63300000I-249999J0D01*
G01*
G37*
G36*
G01*
X136350001Y-65125000D02*
X135449999Y-65125000D01*
G75*
G02*
X135200000Y-64875001I0J249999D01*
G01*
X135200000Y-64349999D01*
G75*
G02*
X135449999Y-64100000I249999J0D01*
G01*
X136350001Y-64100000D01*
G75*
G02*
X136600000Y-64349999I0J-249999D01*
G01*
X136600000Y-64875001D01*
G75*
G02*
X136350001Y-65125000I-249999J0D01*
G01*
G37*
%TD*%
%TO.C,R136*%
G36*
G01*
X199943000Y-113850001D02*
X199943000Y-112949999D01*
G75*
G02*
X200192999Y-112700000I249999J0D01*
G01*
X200718001Y-112700000D01*
G75*
G02*
X200968000Y-112949999I0J-249999D01*
G01*
X200968000Y-113850001D01*
G75*
G02*
X200718001Y-114100000I-249999J0D01*
G01*
X200192999Y-114100000D01*
G75*
G02*
X199943000Y-113850001I0J249999D01*
G01*
G37*
G36*
G01*
X198118000Y-113850001D02*
X198118000Y-112949999D01*
G75*
G02*
X198367999Y-112700000I249999J0D01*
G01*
X198893001Y-112700000D01*
G75*
G02*
X199143000Y-112949999I0J-249999D01*
G01*
X199143000Y-113850001D01*
G75*
G02*
X198893001Y-114100000I-249999J0D01*
G01*
X198367999Y-114100000D01*
G75*
G02*
X198118000Y-113850001I0J249999D01*
G01*
G37*
%TD*%
%TO.C,R135*%
G36*
G01*
X166552001Y-135380000D02*
X165651999Y-135380000D01*
G75*
G02*
X165402000Y-135130001I0J249999D01*
G01*
X165402000Y-134604999D01*
G75*
G02*
X165651999Y-134355000I249999J0D01*
G01*
X166552001Y-134355000D01*
G75*
G02*
X166802000Y-134604999I0J-249999D01*
G01*
X166802000Y-135130001D01*
G75*
G02*
X166552001Y-135380000I-249999J0D01*
G01*
G37*
G36*
G01*
X166552001Y-137205000D02*
X165651999Y-137205000D01*
G75*
G02*
X165402000Y-136955001I0J249999D01*
G01*
X165402000Y-136429999D01*
G75*
G02*
X165651999Y-136180000I249999J0D01*
G01*
X166552001Y-136180000D01*
G75*
G02*
X166802000Y-136429999I0J-249999D01*
G01*
X166802000Y-136955001D01*
G75*
G02*
X166552001Y-137205000I-249999J0D01*
G01*
G37*
%TD*%
%TO.C,R134*%
G36*
G01*
X199000000Y-128600001D02*
X199000000Y-127699999D01*
G75*
G02*
X199249999Y-127450000I249999J0D01*
G01*
X199775001Y-127450000D01*
G75*
G02*
X200025000Y-127699999I0J-249999D01*
G01*
X200025000Y-128600001D01*
G75*
G02*
X199775001Y-128850000I-249999J0D01*
G01*
X199249999Y-128850000D01*
G75*
G02*
X199000000Y-128600001I0J249999D01*
G01*
G37*
G36*
G01*
X197175000Y-128600001D02*
X197175000Y-127699999D01*
G75*
G02*
X197424999Y-127450000I249999J0D01*
G01*
X197950001Y-127450000D01*
G75*
G02*
X198200000Y-127699999I0J-249999D01*
G01*
X198200000Y-128600001D01*
G75*
G02*
X197950001Y-128850000I-249999J0D01*
G01*
X197424999Y-128850000D01*
G75*
G02*
X197175000Y-128600001I0J249999D01*
G01*
G37*
%TD*%
%TO.C,R133*%
G36*
G01*
X117603999Y-63940000D02*
X118504001Y-63940000D01*
G75*
G02*
X118754000Y-64189999I0J-249999D01*
G01*
X118754000Y-64715001D01*
G75*
G02*
X118504001Y-64965000I-249999J0D01*
G01*
X117603999Y-64965000D01*
G75*
G02*
X117354000Y-64715001I0J249999D01*
G01*
X117354000Y-64189999D01*
G75*
G02*
X117603999Y-63940000I249999J0D01*
G01*
G37*
G36*
G01*
X117603999Y-62115000D02*
X118504001Y-62115000D01*
G75*
G02*
X118754000Y-62364999I0J-249999D01*
G01*
X118754000Y-62890001D01*
G75*
G02*
X118504001Y-63140000I-249999J0D01*
G01*
X117603999Y-63140000D01*
G75*
G02*
X117354000Y-62890001I0J249999D01*
G01*
X117354000Y-62364999D01*
G75*
G02*
X117603999Y-62115000I249999J0D01*
G01*
G37*
%TD*%
%TO.C,R132*%
G36*
G01*
X97156799Y-64040000D02*
X98056801Y-64040000D01*
G75*
G02*
X98306800Y-64289999I0J-249999D01*
G01*
X98306800Y-64815001D01*
G75*
G02*
X98056801Y-65065000I-249999J0D01*
G01*
X97156799Y-65065000D01*
G75*
G02*
X96906800Y-64815001I0J249999D01*
G01*
X96906800Y-64289999D01*
G75*
G02*
X97156799Y-64040000I249999J0D01*
G01*
G37*
G36*
G01*
X97156799Y-62215000D02*
X98056801Y-62215000D01*
G75*
G02*
X98306800Y-62464999I0J-249999D01*
G01*
X98306800Y-62990001D01*
G75*
G02*
X98056801Y-63240000I-249999J0D01*
G01*
X97156799Y-63240000D01*
G75*
G02*
X96906800Y-62990001I0J249999D01*
G01*
X96906800Y-62464999D01*
G75*
G02*
X97156799Y-62215000I249999J0D01*
G01*
G37*
%TD*%
%TO.C,R131*%
G36*
G01*
X244023001Y-115643000D02*
X243122999Y-115643000D01*
G75*
G02*
X242873000Y-115393001I0J249999D01*
G01*
X242873000Y-114867999D01*
G75*
G02*
X243122999Y-114618000I249999J0D01*
G01*
X244023001Y-114618000D01*
G75*
G02*
X244273000Y-114867999I0J-249999D01*
G01*
X244273000Y-115393001D01*
G75*
G02*
X244023001Y-115643000I-249999J0D01*
G01*
G37*
G36*
G01*
X244023001Y-117468000D02*
X243122999Y-117468000D01*
G75*
G02*
X242873000Y-117218001I0J249999D01*
G01*
X242873000Y-116692999D01*
G75*
G02*
X243122999Y-116443000I249999J0D01*
G01*
X244023001Y-116443000D01*
G75*
G02*
X244273000Y-116692999I0J-249999D01*
G01*
X244273000Y-117218001D01*
G75*
G02*
X244023001Y-117468000I-249999J0D01*
G01*
G37*
%TD*%
%TO.C,R130*%
G36*
G01*
X118968999Y-136180000D02*
X119869001Y-136180000D01*
G75*
G02*
X120119000Y-136429999I0J-249999D01*
G01*
X120119000Y-136955001D01*
G75*
G02*
X119869001Y-137205000I-249999J0D01*
G01*
X118968999Y-137205000D01*
G75*
G02*
X118719000Y-136955001I0J249999D01*
G01*
X118719000Y-136429999D01*
G75*
G02*
X118968999Y-136180000I249999J0D01*
G01*
G37*
G36*
G01*
X118968999Y-134355000D02*
X119869001Y-134355000D01*
G75*
G02*
X120119000Y-134604999I0J-249999D01*
G01*
X120119000Y-135130001D01*
G75*
G02*
X119869001Y-135380000I-249999J0D01*
G01*
X118968999Y-135380000D01*
G75*
G02*
X118719000Y-135130001I0J249999D01*
G01*
X118719000Y-134604999D01*
G75*
G02*
X118968999Y-134355000I249999J0D01*
G01*
G37*
%TD*%
%TO.C,R129*%
G36*
G01*
X220100001Y-127800000D02*
X219199999Y-127800000D01*
G75*
G02*
X218950000Y-127550001I0J249999D01*
G01*
X218950000Y-127024999D01*
G75*
G02*
X219199999Y-126775000I249999J0D01*
G01*
X220100001Y-126775000D01*
G75*
G02*
X220350000Y-127024999I0J-249999D01*
G01*
X220350000Y-127550001D01*
G75*
G02*
X220100001Y-127800000I-249999J0D01*
G01*
G37*
G36*
G01*
X220100001Y-129625000D02*
X219199999Y-129625000D01*
G75*
G02*
X218950000Y-129375001I0J249999D01*
G01*
X218950000Y-128849999D01*
G75*
G02*
X219199999Y-128600000I249999J0D01*
G01*
X220100001Y-128600000D01*
G75*
G02*
X220350000Y-128849999I0J-249999D01*
G01*
X220350000Y-129375001D01*
G75*
G02*
X220100001Y-129625000I-249999J0D01*
G01*
G37*
%TD*%
%TO.C,R128*%
G36*
G01*
X145752999Y-136180000D02*
X146653001Y-136180000D01*
G75*
G02*
X146903000Y-136429999I0J-249999D01*
G01*
X146903000Y-136955001D01*
G75*
G02*
X146653001Y-137205000I-249999J0D01*
G01*
X145752999Y-137205000D01*
G75*
G02*
X145503000Y-136955001I0J249999D01*
G01*
X145503000Y-136429999D01*
G75*
G02*
X145752999Y-136180000I249999J0D01*
G01*
G37*
G36*
G01*
X145752999Y-134355000D02*
X146653001Y-134355000D01*
G75*
G02*
X146903000Y-134604999I0J-249999D01*
G01*
X146903000Y-135130001D01*
G75*
G02*
X146653001Y-135380000I-249999J0D01*
G01*
X145752999Y-135380000D01*
G75*
G02*
X145503000Y-135130001I0J249999D01*
G01*
X145503000Y-134604999D01*
G75*
G02*
X145752999Y-134355000I249999J0D01*
G01*
G37*
%TD*%
%TO.C,R127*%
G36*
G01*
X214260000Y-105050999D02*
X214260000Y-105951001D01*
G75*
G02*
X214010001Y-106201000I-249999J0D01*
G01*
X213484999Y-106201000D01*
G75*
G02*
X213235000Y-105951001I0J249999D01*
G01*
X213235000Y-105050999D01*
G75*
G02*
X213484999Y-104801000I249999J0D01*
G01*
X214010001Y-104801000D01*
G75*
G02*
X214260000Y-105050999I0J-249999D01*
G01*
G37*
G36*
G01*
X216085000Y-105050999D02*
X216085000Y-105951001D01*
G75*
G02*
X215835001Y-106201000I-249999J0D01*
G01*
X215309999Y-106201000D01*
G75*
G02*
X215060000Y-105951001I0J249999D01*
G01*
X215060000Y-105050999D01*
G75*
G02*
X215309999Y-104801000I249999J0D01*
G01*
X215835001Y-104801000D01*
G75*
G02*
X216085000Y-105050999I0J-249999D01*
G01*
G37*
%TD*%
%TO.C,R125*%
G36*
G01*
X127877999Y-63940000D02*
X128778001Y-63940000D01*
G75*
G02*
X129028000Y-64189999I0J-249999D01*
G01*
X129028000Y-64715001D01*
G75*
G02*
X128778001Y-64965000I-249999J0D01*
G01*
X127877999Y-64965000D01*
G75*
G02*
X127628000Y-64715001I0J249999D01*
G01*
X127628000Y-64189999D01*
G75*
G02*
X127877999Y-63940000I249999J0D01*
G01*
G37*
G36*
G01*
X127877999Y-62115000D02*
X128778001Y-62115000D01*
G75*
G02*
X129028000Y-62364999I0J-249999D01*
G01*
X129028000Y-62890001D01*
G75*
G02*
X128778001Y-63140000I-249999J0D01*
G01*
X127877999Y-63140000D01*
G75*
G02*
X127628000Y-62890001I0J249999D01*
G01*
X127628000Y-62364999D01*
G75*
G02*
X127877999Y-62115000I249999J0D01*
G01*
G37*
%TD*%
%TO.C,R124*%
G36*
G01*
X107429999Y-63840000D02*
X108330001Y-63840000D01*
G75*
G02*
X108580000Y-64089999I0J-249999D01*
G01*
X108580000Y-64615001D01*
G75*
G02*
X108330001Y-64865000I-249999J0D01*
G01*
X107429999Y-64865000D01*
G75*
G02*
X107180000Y-64615001I0J249999D01*
G01*
X107180000Y-64089999D01*
G75*
G02*
X107429999Y-63840000I249999J0D01*
G01*
G37*
G36*
G01*
X107429999Y-62015000D02*
X108330001Y-62015000D01*
G75*
G02*
X108580000Y-62264999I0J-249999D01*
G01*
X108580000Y-62790001D01*
G75*
G02*
X108330001Y-63040000I-249999J0D01*
G01*
X107429999Y-63040000D01*
G75*
G02*
X107180000Y-62790001I0J249999D01*
G01*
X107180000Y-62264999D01*
G75*
G02*
X107429999Y-62015000I249999J0D01*
G01*
G37*
%TD*%
%TO.C,R123*%
G36*
G01*
X228650001Y-115543000D02*
X227749999Y-115543000D01*
G75*
G02*
X227500000Y-115293001I0J249999D01*
G01*
X227500000Y-114767999D01*
G75*
G02*
X227749999Y-114518000I249999J0D01*
G01*
X228650001Y-114518000D01*
G75*
G02*
X228900000Y-114767999I0J-249999D01*
G01*
X228900000Y-115293001D01*
G75*
G02*
X228650001Y-115543000I-249999J0D01*
G01*
G37*
G36*
G01*
X228650001Y-117368000D02*
X227749999Y-117368000D01*
G75*
G02*
X227500000Y-117118001I0J249999D01*
G01*
X227500000Y-116592999D01*
G75*
G02*
X227749999Y-116343000I249999J0D01*
G01*
X228650001Y-116343000D01*
G75*
G02*
X228900000Y-116592999I0J-249999D01*
G01*
X228900000Y-117118001D01*
G75*
G02*
X228650001Y-117368000I-249999J0D01*
G01*
G37*
%TD*%
%TO.C,R122*%
G36*
G01*
X132360999Y-136180000D02*
X133261001Y-136180000D01*
G75*
G02*
X133511000Y-136429999I0J-249999D01*
G01*
X133511000Y-136955001D01*
G75*
G02*
X133261001Y-137205000I-249999J0D01*
G01*
X132360999Y-137205000D01*
G75*
G02*
X132111000Y-136955001I0J249999D01*
G01*
X132111000Y-136429999D01*
G75*
G02*
X132360999Y-136180000I249999J0D01*
G01*
G37*
G36*
G01*
X132360999Y-134355000D02*
X133261001Y-134355000D01*
G75*
G02*
X133511000Y-134604999I0J-249999D01*
G01*
X133511000Y-135130001D01*
G75*
G02*
X133261001Y-135380000I-249999J0D01*
G01*
X132360999Y-135380000D01*
G75*
G02*
X132111000Y-135130001I0J249999D01*
G01*
X132111000Y-134604999D01*
G75*
G02*
X132360999Y-134355000I249999J0D01*
G01*
G37*
%TD*%
%TO.C,R121*%
G36*
G01*
X211100001Y-127700000D02*
X210199999Y-127700000D01*
G75*
G02*
X209950000Y-127450001I0J249999D01*
G01*
X209950000Y-126924999D01*
G75*
G02*
X210199999Y-126675000I249999J0D01*
G01*
X211100001Y-126675000D01*
G75*
G02*
X211350000Y-126924999I0J-249999D01*
G01*
X211350000Y-127450001D01*
G75*
G02*
X211100001Y-127700000I-249999J0D01*
G01*
G37*
G36*
G01*
X211100001Y-129525000D02*
X210199999Y-129525000D01*
G75*
G02*
X209950000Y-129275001I0J249999D01*
G01*
X209950000Y-128749999D01*
G75*
G02*
X210199999Y-128500000I249999J0D01*
G01*
X211100001Y-128500000D01*
G75*
G02*
X211350000Y-128749999I0J-249999D01*
G01*
X211350000Y-129275001D01*
G75*
G02*
X211100001Y-129525000I-249999J0D01*
G01*
G37*
%TD*%
%TO.C,R120*%
G36*
G01*
X160045001Y-135380000D02*
X159144999Y-135380000D01*
G75*
G02*
X158895000Y-135130001I0J249999D01*
G01*
X158895000Y-134604999D01*
G75*
G02*
X159144999Y-134355000I249999J0D01*
G01*
X160045001Y-134355000D01*
G75*
G02*
X160295000Y-134604999I0J-249999D01*
G01*
X160295000Y-135130001D01*
G75*
G02*
X160045001Y-135380000I-249999J0D01*
G01*
G37*
G36*
G01*
X160045001Y-137205000D02*
X159144999Y-137205000D01*
G75*
G02*
X158895000Y-136955001I0J249999D01*
G01*
X158895000Y-136429999D01*
G75*
G02*
X159144999Y-136180000I249999J0D01*
G01*
X160045001Y-136180000D01*
G75*
G02*
X160295000Y-136429999I0J-249999D01*
G01*
X160295000Y-136955001D01*
G75*
G02*
X160045001Y-137205000I-249999J0D01*
G01*
G37*
%TD*%
%TO.C,R119*%
G36*
G01*
X214460000Y-114124999D02*
X214460000Y-115025001D01*
G75*
G02*
X214210001Y-115275000I-249999J0D01*
G01*
X213684999Y-115275000D01*
G75*
G02*
X213435000Y-115025001I0J249999D01*
G01*
X213435000Y-114124999D01*
G75*
G02*
X213684999Y-113875000I249999J0D01*
G01*
X214210001Y-113875000D01*
G75*
G02*
X214460000Y-114124999I0J-249999D01*
G01*
G37*
G36*
G01*
X216285000Y-114124999D02*
X216285000Y-115025001D01*
G75*
G02*
X216035001Y-115275000I-249999J0D01*
G01*
X215509999Y-115275000D01*
G75*
G02*
X215260000Y-115025001I0J249999D01*
G01*
X215260000Y-114124999D01*
G75*
G02*
X215509999Y-113875000I249999J0D01*
G01*
X216035001Y-113875000D01*
G75*
G02*
X216285000Y-114124999I0J-249999D01*
G01*
G37*
%TD*%
%TO.C,R117*%
G36*
G01*
X180100000Y-37050001D02*
X180100000Y-36149999D01*
G75*
G02*
X180349999Y-35900000I249999J0D01*
G01*
X180875001Y-35900000D01*
G75*
G02*
X181125000Y-36149999I0J-249999D01*
G01*
X181125000Y-37050001D01*
G75*
G02*
X180875001Y-37300000I-249999J0D01*
G01*
X180349999Y-37300000D01*
G75*
G02*
X180100000Y-37050001I0J249999D01*
G01*
G37*
G36*
G01*
X178275000Y-37050001D02*
X178275000Y-36149999D01*
G75*
G02*
X178524999Y-35900000I249999J0D01*
G01*
X179050001Y-35900000D01*
G75*
G02*
X179300000Y-36149999I0J-249999D01*
G01*
X179300000Y-37050001D01*
G75*
G02*
X179050001Y-37300000I-249999J0D01*
G01*
X178524999Y-37300000D01*
G75*
G02*
X178275000Y-37050001I0J249999D01*
G01*
G37*
%TD*%
%TO.C,R115*%
G36*
G01*
X184062000Y-37125001D02*
X184062000Y-36224999D01*
G75*
G02*
X184311999Y-35975000I249999J0D01*
G01*
X184837001Y-35975000D01*
G75*
G02*
X185087000Y-36224999I0J-249999D01*
G01*
X185087000Y-37125001D01*
G75*
G02*
X184837001Y-37375000I-249999J0D01*
G01*
X184311999Y-37375000D01*
G75*
G02*
X184062000Y-37125001I0J249999D01*
G01*
G37*
G36*
G01*
X182237000Y-37125001D02*
X182237000Y-36224999D01*
G75*
G02*
X182486999Y-35975000I249999J0D01*
G01*
X183012001Y-35975000D01*
G75*
G02*
X183262000Y-36224999I0J-249999D01*
G01*
X183262000Y-37125001D01*
G75*
G02*
X183012001Y-37375000I-249999J0D01*
G01*
X182486999Y-37375000D01*
G75*
G02*
X182237000Y-37125001I0J249999D01*
G01*
G37*
%TD*%
%TO.C,R111*%
G36*
G01*
X80162500Y-88750001D02*
X80162500Y-87849999D01*
G75*
G02*
X80412499Y-87600000I249999J0D01*
G01*
X80937501Y-87600000D01*
G75*
G02*
X81187500Y-87849999I0J-249999D01*
G01*
X81187500Y-88750001D01*
G75*
G02*
X80937501Y-89000000I-249999J0D01*
G01*
X80412499Y-89000000D01*
G75*
G02*
X80162500Y-88750001I0J249999D01*
G01*
G37*
G36*
G01*
X78337500Y-88750001D02*
X78337500Y-87849999D01*
G75*
G02*
X78587499Y-87600000I249999J0D01*
G01*
X79112501Y-87600000D01*
G75*
G02*
X79362500Y-87849999I0J-249999D01*
G01*
X79362500Y-88750001D01*
G75*
G02*
X79112501Y-89000000I-249999J0D01*
G01*
X78587499Y-89000000D01*
G75*
G02*
X78337500Y-88750001I0J249999D01*
G01*
G37*
%TD*%
%TO.C,R109*%
G36*
G01*
X149100000Y-38950001D02*
X149100000Y-38049999D01*
G75*
G02*
X149349999Y-37800000I249999J0D01*
G01*
X149875001Y-37800000D01*
G75*
G02*
X150125000Y-38049999I0J-249999D01*
G01*
X150125000Y-38950001D01*
G75*
G02*
X149875001Y-39200000I-249999J0D01*
G01*
X149349999Y-39200000D01*
G75*
G02*
X149100000Y-38950001I0J249999D01*
G01*
G37*
G36*
G01*
X147275000Y-38950001D02*
X147275000Y-38049999D01*
G75*
G02*
X147524999Y-37800000I249999J0D01*
G01*
X148050001Y-37800000D01*
G75*
G02*
X148300000Y-38049999I0J-249999D01*
G01*
X148300000Y-38950001D01*
G75*
G02*
X148050001Y-39200000I-249999J0D01*
G01*
X147524999Y-39200000D01*
G75*
G02*
X147275000Y-38950001I0J249999D01*
G01*
G37*
%TD*%
%TO.C,R89*%
G36*
G01*
X168474999Y-83525000D02*
X169375001Y-83525000D01*
G75*
G02*
X169625000Y-83774999I0J-249999D01*
G01*
X169625000Y-84300001D01*
G75*
G02*
X169375001Y-84550000I-249999J0D01*
G01*
X168474999Y-84550000D01*
G75*
G02*
X168225000Y-84300001I0J249999D01*
G01*
X168225000Y-83774999D01*
G75*
G02*
X168474999Y-83525000I249999J0D01*
G01*
G37*
G36*
G01*
X168474999Y-81700000D02*
X169375001Y-81700000D01*
G75*
G02*
X169625000Y-81949999I0J-249999D01*
G01*
X169625000Y-82475001D01*
G75*
G02*
X169375001Y-82725000I-249999J0D01*
G01*
X168474999Y-82725000D01*
G75*
G02*
X168225000Y-82475001I0J249999D01*
G01*
X168225000Y-81949999D01*
G75*
G02*
X168474999Y-81700000I249999J0D01*
G01*
G37*
%TD*%
%TO.C,R88*%
G36*
G01*
X165540000Y-91430001D02*
X165540000Y-90529999D01*
G75*
G02*
X165789999Y-90280000I249999J0D01*
G01*
X166315001Y-90280000D01*
G75*
G02*
X166565000Y-90529999I0J-249999D01*
G01*
X166565000Y-91430001D01*
G75*
G02*
X166315001Y-91680000I-249999J0D01*
G01*
X165789999Y-91680000D01*
G75*
G02*
X165540000Y-91430001I0J249999D01*
G01*
G37*
G36*
G01*
X163715000Y-91430001D02*
X163715000Y-90529999D01*
G75*
G02*
X163964999Y-90280000I249999J0D01*
G01*
X164490001Y-90280000D01*
G75*
G02*
X164740000Y-90529999I0J-249999D01*
G01*
X164740000Y-91430001D01*
G75*
G02*
X164490001Y-91680000I-249999J0D01*
G01*
X163964999Y-91680000D01*
G75*
G02*
X163715000Y-91430001I0J249999D01*
G01*
G37*
%TD*%
%TO.C,R87*%
G36*
G01*
X169775000Y-89875001D02*
X169775000Y-88974999D01*
G75*
G02*
X170024999Y-88725000I249999J0D01*
G01*
X170550001Y-88725000D01*
G75*
G02*
X170800000Y-88974999I0J-249999D01*
G01*
X170800000Y-89875001D01*
G75*
G02*
X170550001Y-90125000I-249999J0D01*
G01*
X170024999Y-90125000D01*
G75*
G02*
X169775000Y-89875001I0J249999D01*
G01*
G37*
G36*
G01*
X167950000Y-89875001D02*
X167950000Y-88974999D01*
G75*
G02*
X168199999Y-88725000I249999J0D01*
G01*
X168725001Y-88725000D01*
G75*
G02*
X168975000Y-88974999I0J-249999D01*
G01*
X168975000Y-89875001D01*
G75*
G02*
X168725001Y-90125000I-249999J0D01*
G01*
X168199999Y-90125000D01*
G75*
G02*
X167950000Y-89875001I0J249999D01*
G01*
G37*
%TD*%
%TO.C,R86*%
G36*
G01*
X172775000Y-90424999D02*
X172775000Y-91325001D01*
G75*
G02*
X172525001Y-91575000I-249999J0D01*
G01*
X171999999Y-91575000D01*
G75*
G02*
X171750000Y-91325001I0J249999D01*
G01*
X171750000Y-90424999D01*
G75*
G02*
X171999999Y-90175000I249999J0D01*
G01*
X172525001Y-90175000D01*
G75*
G02*
X172775000Y-90424999I0J-249999D01*
G01*
G37*
G36*
G01*
X174600000Y-90424999D02*
X174600000Y-91325001D01*
G75*
G02*
X174350001Y-91575000I-249999J0D01*
G01*
X173824999Y-91575000D01*
G75*
G02*
X173575000Y-91325001I0J249999D01*
G01*
X173575000Y-90424999D01*
G75*
G02*
X173824999Y-90175000I249999J0D01*
G01*
X174350001Y-90175000D01*
G75*
G02*
X174600000Y-90424999I0J-249999D01*
G01*
G37*
%TD*%
%TO.C,R85*%
G36*
G01*
X169800000Y-93100001D02*
X169800000Y-92199999D01*
G75*
G02*
X170049999Y-91950000I249999J0D01*
G01*
X170575001Y-91950000D01*
G75*
G02*
X170825000Y-92199999I0J-249999D01*
G01*
X170825000Y-93100001D01*
G75*
G02*
X170575001Y-93350000I-249999J0D01*
G01*
X170049999Y-93350000D01*
G75*
G02*
X169800000Y-93100001I0J249999D01*
G01*
G37*
G36*
G01*
X167975000Y-93100001D02*
X167975000Y-92199999D01*
G75*
G02*
X168224999Y-91950000I249999J0D01*
G01*
X168750001Y-91950000D01*
G75*
G02*
X169000000Y-92199999I0J-249999D01*
G01*
X169000000Y-93100001D01*
G75*
G02*
X168750001Y-93350000I-249999J0D01*
G01*
X168224999Y-93350000D01*
G75*
G02*
X167975000Y-93100001I0J249999D01*
G01*
G37*
%TD*%
%TO.C,R84*%
G36*
G01*
X172725000Y-93749999D02*
X172725000Y-94650001D01*
G75*
G02*
X172475001Y-94900000I-249999J0D01*
G01*
X171949999Y-94900000D01*
G75*
G02*
X171700000Y-94650001I0J249999D01*
G01*
X171700000Y-93749999D01*
G75*
G02*
X171949999Y-93500000I249999J0D01*
G01*
X172475001Y-93500000D01*
G75*
G02*
X172725000Y-93749999I0J-249999D01*
G01*
G37*
G36*
G01*
X174550000Y-93749999D02*
X174550000Y-94650001D01*
G75*
G02*
X174300001Y-94900000I-249999J0D01*
G01*
X173774999Y-94900000D01*
G75*
G02*
X173525000Y-94650001I0J249999D01*
G01*
X173525000Y-93749999D01*
G75*
G02*
X173774999Y-93500000I249999J0D01*
G01*
X174300001Y-93500000D01*
G75*
G02*
X174550000Y-93749999I0J-249999D01*
G01*
G37*
%TD*%
%TO.C,R83*%
G36*
G01*
X169762000Y-96375001D02*
X169762000Y-95474999D01*
G75*
G02*
X170011999Y-95225000I249999J0D01*
G01*
X170537001Y-95225000D01*
G75*
G02*
X170787000Y-95474999I0J-249999D01*
G01*
X170787000Y-96375001D01*
G75*
G02*
X170537001Y-96625000I-249999J0D01*
G01*
X170011999Y-96625000D01*
G75*
G02*
X169762000Y-96375001I0J249999D01*
G01*
G37*
G36*
G01*
X167937000Y-96375001D02*
X167937000Y-95474999D01*
G75*
G02*
X168186999Y-95225000I249999J0D01*
G01*
X168712001Y-95225000D01*
G75*
G02*
X168962000Y-95474999I0J-249999D01*
G01*
X168962000Y-96375001D01*
G75*
G02*
X168712001Y-96625000I-249999J0D01*
G01*
X168186999Y-96625000D01*
G75*
G02*
X167937000Y-96375001I0J249999D01*
G01*
G37*
%TD*%
%TO.C,R82*%
G36*
G01*
X172600000Y-97199999D02*
X172600000Y-98100001D01*
G75*
G02*
X172350001Y-98350000I-249999J0D01*
G01*
X171824999Y-98350000D01*
G75*
G02*
X171575000Y-98100001I0J249999D01*
G01*
X171575000Y-97199999D01*
G75*
G02*
X171824999Y-96950000I249999J0D01*
G01*
X172350001Y-96950000D01*
G75*
G02*
X172600000Y-97199999I0J-249999D01*
G01*
G37*
G36*
G01*
X174425000Y-97199999D02*
X174425000Y-98100001D01*
G75*
G02*
X174175001Y-98350000I-249999J0D01*
G01*
X173649999Y-98350000D01*
G75*
G02*
X173400000Y-98100001I0J249999D01*
G01*
X173400000Y-97199999D01*
G75*
G02*
X173649999Y-96950000I249999J0D01*
G01*
X174175001Y-96950000D01*
G75*
G02*
X174425000Y-97199999I0J-249999D01*
G01*
G37*
%TD*%
%TO.C,R81*%
G36*
G01*
X191924999Y-61250000D02*
X192825001Y-61250000D01*
G75*
G02*
X193075000Y-61499999I0J-249999D01*
G01*
X193075000Y-62025001D01*
G75*
G02*
X192825001Y-62275000I-249999J0D01*
G01*
X191924999Y-62275000D01*
G75*
G02*
X191675000Y-62025001I0J249999D01*
G01*
X191675000Y-61499999D01*
G75*
G02*
X191924999Y-61250000I249999J0D01*
G01*
G37*
G36*
G01*
X191924999Y-59425000D02*
X192825001Y-59425000D01*
G75*
G02*
X193075000Y-59674999I0J-249999D01*
G01*
X193075000Y-60200001D01*
G75*
G02*
X192825001Y-60450000I-249999J0D01*
G01*
X191924999Y-60450000D01*
G75*
G02*
X191675000Y-60200001I0J249999D01*
G01*
X191675000Y-59674999D01*
G75*
G02*
X191924999Y-59425000I249999J0D01*
G01*
G37*
%TD*%
%TO.C,R80*%
G36*
G01*
X195049999Y-61250000D02*
X195950001Y-61250000D01*
G75*
G02*
X196200000Y-61499999I0J-249999D01*
G01*
X196200000Y-62025001D01*
G75*
G02*
X195950001Y-62275000I-249999J0D01*
G01*
X195049999Y-62275000D01*
G75*
G02*
X194800000Y-62025001I0J249999D01*
G01*
X194800000Y-61499999D01*
G75*
G02*
X195049999Y-61250000I249999J0D01*
G01*
G37*
G36*
G01*
X195049999Y-59425000D02*
X195950001Y-59425000D01*
G75*
G02*
X196200000Y-59674999I0J-249999D01*
G01*
X196200000Y-60200001D01*
G75*
G02*
X195950001Y-60450000I-249999J0D01*
G01*
X195049999Y-60450000D01*
G75*
G02*
X194800000Y-60200001I0J249999D01*
G01*
X194800000Y-59674999D01*
G75*
G02*
X195049999Y-59425000I249999J0D01*
G01*
G37*
%TD*%
%TO.C,R77*%
G36*
G01*
X180762000Y-79824999D02*
X180762000Y-80725001D01*
G75*
G02*
X180512001Y-80975000I-249999J0D01*
G01*
X179986999Y-80975000D01*
G75*
G02*
X179737000Y-80725001I0J249999D01*
G01*
X179737000Y-79824999D01*
G75*
G02*
X179986999Y-79575000I249999J0D01*
G01*
X180512001Y-79575000D01*
G75*
G02*
X180762000Y-79824999I0J-249999D01*
G01*
G37*
G36*
G01*
X182587000Y-79824999D02*
X182587000Y-80725001D01*
G75*
G02*
X182337001Y-80975000I-249999J0D01*
G01*
X181811999Y-80975000D01*
G75*
G02*
X181562000Y-80725001I0J249999D01*
G01*
X181562000Y-79824999D01*
G75*
G02*
X181811999Y-79575000I249999J0D01*
G01*
X182337001Y-79575000D01*
G75*
G02*
X182587000Y-79824999I0J-249999D01*
G01*
G37*
%TD*%
%TO.C,R76*%
G36*
G01*
X180512000Y-83149999D02*
X180512000Y-84050001D01*
G75*
G02*
X180262001Y-84300000I-249999J0D01*
G01*
X179736999Y-84300000D01*
G75*
G02*
X179487000Y-84050001I0J249999D01*
G01*
X179487000Y-83149999D01*
G75*
G02*
X179736999Y-82900000I249999J0D01*
G01*
X180262001Y-82900000D01*
G75*
G02*
X180512000Y-83149999I0J-249999D01*
G01*
G37*
G36*
G01*
X182337000Y-83149999D02*
X182337000Y-84050001D01*
G75*
G02*
X182087001Y-84300000I-249999J0D01*
G01*
X181561999Y-84300000D01*
G75*
G02*
X181312000Y-84050001I0J249999D01*
G01*
X181312000Y-83149999D01*
G75*
G02*
X181561999Y-82900000I249999J0D01*
G01*
X182087001Y-82900000D01*
G75*
G02*
X182337000Y-83149999I0J-249999D01*
G01*
G37*
%TD*%
%TO.C,R75*%
G36*
G01*
X217187500Y-92150001D02*
X217187500Y-91249999D01*
G75*
G02*
X217437499Y-91000000I249999J0D01*
G01*
X217962501Y-91000000D01*
G75*
G02*
X218212500Y-91249999I0J-249999D01*
G01*
X218212500Y-92150001D01*
G75*
G02*
X217962501Y-92400000I-249999J0D01*
G01*
X217437499Y-92400000D01*
G75*
G02*
X217187500Y-92150001I0J249999D01*
G01*
G37*
G36*
G01*
X215362500Y-92150001D02*
X215362500Y-91249999D01*
G75*
G02*
X215612499Y-91000000I249999J0D01*
G01*
X216137501Y-91000000D01*
G75*
G02*
X216387500Y-91249999I0J-249999D01*
G01*
X216387500Y-92150001D01*
G75*
G02*
X216137501Y-92400000I-249999J0D01*
G01*
X215612499Y-92400000D01*
G75*
G02*
X215362500Y-92150001I0J249999D01*
G01*
G37*
%TD*%
%TO.C,R74*%
G36*
G01*
X183100000Y-71075001D02*
X183100000Y-70174999D01*
G75*
G02*
X183349999Y-69925000I249999J0D01*
G01*
X183875001Y-69925000D01*
G75*
G02*
X184125000Y-70174999I0J-249999D01*
G01*
X184125000Y-71075001D01*
G75*
G02*
X183875001Y-71325000I-249999J0D01*
G01*
X183349999Y-71325000D01*
G75*
G02*
X183100000Y-71075001I0J249999D01*
G01*
G37*
G36*
G01*
X181275000Y-71075001D02*
X181275000Y-70174999D01*
G75*
G02*
X181524999Y-69925000I249999J0D01*
G01*
X182050001Y-69925000D01*
G75*
G02*
X182300000Y-70174999I0J-249999D01*
G01*
X182300000Y-71075001D01*
G75*
G02*
X182050001Y-71325000I-249999J0D01*
G01*
X181524999Y-71325000D01*
G75*
G02*
X181275000Y-71075001I0J249999D01*
G01*
G37*
%TD*%
%TO.C,R72*%
G36*
G01*
X183075000Y-67650001D02*
X183075000Y-66749999D01*
G75*
G02*
X183324999Y-66500000I249999J0D01*
G01*
X183850001Y-66500000D01*
G75*
G02*
X184100000Y-66749999I0J-249999D01*
G01*
X184100000Y-67650001D01*
G75*
G02*
X183850001Y-67900000I-249999J0D01*
G01*
X183324999Y-67900000D01*
G75*
G02*
X183075000Y-67650001I0J249999D01*
G01*
G37*
G36*
G01*
X181250000Y-67650001D02*
X181250000Y-66749999D01*
G75*
G02*
X181499999Y-66500000I249999J0D01*
G01*
X182025001Y-66500000D01*
G75*
G02*
X182275000Y-66749999I0J-249999D01*
G01*
X182275000Y-67650001D01*
G75*
G02*
X182025001Y-67900000I-249999J0D01*
G01*
X181499999Y-67900000D01*
G75*
G02*
X181250000Y-67650001I0J249999D01*
G01*
G37*
%TD*%
%TO.C,R70*%
G36*
G01*
X183050000Y-64375001D02*
X183050000Y-63474999D01*
G75*
G02*
X183299999Y-63225000I249999J0D01*
G01*
X183825001Y-63225000D01*
G75*
G02*
X184075000Y-63474999I0J-249999D01*
G01*
X184075000Y-64375001D01*
G75*
G02*
X183825001Y-64625000I-249999J0D01*
G01*
X183299999Y-64625000D01*
G75*
G02*
X183050000Y-64375001I0J249999D01*
G01*
G37*
G36*
G01*
X181225000Y-64375001D02*
X181225000Y-63474999D01*
G75*
G02*
X181474999Y-63225000I249999J0D01*
G01*
X182000001Y-63225000D01*
G75*
G02*
X182250000Y-63474999I0J-249999D01*
G01*
X182250000Y-64375001D01*
G75*
G02*
X182000001Y-64625000I-249999J0D01*
G01*
X181474999Y-64625000D01*
G75*
G02*
X181225000Y-64375001I0J249999D01*
G01*
G37*
%TD*%
%TO.C,R68*%
G36*
G01*
X169200000Y-100575001D02*
X169200000Y-99674999D01*
G75*
G02*
X169449999Y-99425000I249999J0D01*
G01*
X169975001Y-99425000D01*
G75*
G02*
X170225000Y-99674999I0J-249999D01*
G01*
X170225000Y-100575001D01*
G75*
G02*
X169975001Y-100825000I-249999J0D01*
G01*
X169449999Y-100825000D01*
G75*
G02*
X169200000Y-100575001I0J249999D01*
G01*
G37*
G36*
G01*
X167375000Y-100575001D02*
X167375000Y-99674999D01*
G75*
G02*
X167624999Y-99425000I249999J0D01*
G01*
X168150001Y-99425000D01*
G75*
G02*
X168400000Y-99674999I0J-249999D01*
G01*
X168400000Y-100575001D01*
G75*
G02*
X168150001Y-100825000I-249999J0D01*
G01*
X167624999Y-100825000D01*
G75*
G02*
X167375000Y-100575001I0J249999D01*
G01*
G37*
%TD*%
%TO.C,R67*%
G36*
G01*
X172712000Y-100999999D02*
X172712000Y-101900001D01*
G75*
G02*
X172462001Y-102150000I-249999J0D01*
G01*
X171936999Y-102150000D01*
G75*
G02*
X171687000Y-101900001I0J249999D01*
G01*
X171687000Y-100999999D01*
G75*
G02*
X171936999Y-100750000I249999J0D01*
G01*
X172462001Y-100750000D01*
G75*
G02*
X172712000Y-100999999I0J-249999D01*
G01*
G37*
G36*
G01*
X174537000Y-100999999D02*
X174537000Y-101900001D01*
G75*
G02*
X174287001Y-102150000I-249999J0D01*
G01*
X173761999Y-102150000D01*
G75*
G02*
X173512000Y-101900001I0J249999D01*
G01*
X173512000Y-100999999D01*
G75*
G02*
X173761999Y-100750000I249999J0D01*
G01*
X174287001Y-100750000D01*
G75*
G02*
X174537000Y-100999999I0J-249999D01*
G01*
G37*
%TD*%
%TO.C,R66*%
G36*
G01*
X172762000Y-104474999D02*
X172762000Y-105375001D01*
G75*
G02*
X172512001Y-105625000I-249999J0D01*
G01*
X171986999Y-105625000D01*
G75*
G02*
X171737000Y-105375001I0J249999D01*
G01*
X171737000Y-104474999D01*
G75*
G02*
X171986999Y-104225000I249999J0D01*
G01*
X172512001Y-104225000D01*
G75*
G02*
X172762000Y-104474999I0J-249999D01*
G01*
G37*
G36*
G01*
X174587000Y-104474999D02*
X174587000Y-105375001D01*
G75*
G02*
X174337001Y-105625000I-249999J0D01*
G01*
X173811999Y-105625000D01*
G75*
G02*
X173562000Y-105375001I0J249999D01*
G01*
X173562000Y-104474999D01*
G75*
G02*
X173811999Y-104225000I249999J0D01*
G01*
X174337001Y-104225000D01*
G75*
G02*
X174587000Y-104474999I0J-249999D01*
G01*
G37*
%TD*%
%TO.C,R65*%
G36*
G01*
X169375000Y-103900001D02*
X169375000Y-102999999D01*
G75*
G02*
X169624999Y-102750000I249999J0D01*
G01*
X170150001Y-102750000D01*
G75*
G02*
X170400000Y-102999999I0J-249999D01*
G01*
X170400000Y-103900001D01*
G75*
G02*
X170150001Y-104150000I-249999J0D01*
G01*
X169624999Y-104150000D01*
G75*
G02*
X169375000Y-103900001I0J249999D01*
G01*
G37*
G36*
G01*
X167550000Y-103900001D02*
X167550000Y-102999999D01*
G75*
G02*
X167799999Y-102750000I249999J0D01*
G01*
X168325001Y-102750000D01*
G75*
G02*
X168575000Y-102999999I0J-249999D01*
G01*
X168575000Y-103900001D01*
G75*
G02*
X168325001Y-104150000I-249999J0D01*
G01*
X167799999Y-104150000D01*
G75*
G02*
X167550000Y-103900001I0J249999D01*
G01*
G37*
%TD*%
%TO.C,R64*%
G36*
G01*
X155349999Y-76975000D02*
X156250001Y-76975000D01*
G75*
G02*
X156500000Y-77224999I0J-249999D01*
G01*
X156500000Y-77750001D01*
G75*
G02*
X156250001Y-78000000I-249999J0D01*
G01*
X155349999Y-78000000D01*
G75*
G02*
X155100000Y-77750001I0J249999D01*
G01*
X155100000Y-77224999D01*
G75*
G02*
X155349999Y-76975000I249999J0D01*
G01*
G37*
G36*
G01*
X155349999Y-75150000D02*
X156250001Y-75150000D01*
G75*
G02*
X156500000Y-75399999I0J-249999D01*
G01*
X156500000Y-75925001D01*
G75*
G02*
X156250001Y-76175000I-249999J0D01*
G01*
X155349999Y-76175000D01*
G75*
G02*
X155100000Y-75925001I0J249999D01*
G01*
X155100000Y-75399999D01*
G75*
G02*
X155349999Y-75150000I249999J0D01*
G01*
G37*
%TD*%
%TO.C,R61*%
G36*
G01*
X213600000Y-86549999D02*
X213600000Y-87450001D01*
G75*
G02*
X213350001Y-87700000I-249999J0D01*
G01*
X212824999Y-87700000D01*
G75*
G02*
X212575000Y-87450001I0J249999D01*
G01*
X212575000Y-86549999D01*
G75*
G02*
X212824999Y-86300000I249999J0D01*
G01*
X213350001Y-86300000D01*
G75*
G02*
X213600000Y-86549999I0J-249999D01*
G01*
G37*
G36*
G01*
X215425000Y-86549999D02*
X215425000Y-87450001D01*
G75*
G02*
X215175001Y-87700000I-249999J0D01*
G01*
X214649999Y-87700000D01*
G75*
G02*
X214400000Y-87450001I0J249999D01*
G01*
X214400000Y-86549999D01*
G75*
G02*
X214649999Y-86300000I249999J0D01*
G01*
X215175001Y-86300000D01*
G75*
G02*
X215425000Y-86549999I0J-249999D01*
G01*
G37*
%TD*%
%TO.C,R36*%
G36*
G01*
X247800000Y-64866699D02*
X247800000Y-65766701D01*
G75*
G02*
X247550001Y-66016700I-249999J0D01*
G01*
X247024999Y-66016700D01*
G75*
G02*
X246775000Y-65766701I0J249999D01*
G01*
X246775000Y-64866699D01*
G75*
G02*
X247024999Y-64616700I249999J0D01*
G01*
X247550001Y-64616700D01*
G75*
G02*
X247800000Y-64866699I0J-249999D01*
G01*
G37*
G36*
G01*
X249625000Y-64866699D02*
X249625000Y-65766701D01*
G75*
G02*
X249375001Y-66016700I-249999J0D01*
G01*
X248849999Y-66016700D01*
G75*
G02*
X248600000Y-65766701I0J249999D01*
G01*
X248600000Y-64866699D01*
G75*
G02*
X248849999Y-64616700I249999J0D01*
G01*
X249375001Y-64616700D01*
G75*
G02*
X249625000Y-64866699I0J-249999D01*
G01*
G37*
%TD*%
%TO.C,R35*%
G36*
G01*
X252850000Y-69633299D02*
X252850000Y-70533301D01*
G75*
G02*
X252600001Y-70783300I-249999J0D01*
G01*
X252074999Y-70783300D01*
G75*
G02*
X251825000Y-70533301I0J249999D01*
G01*
X251825000Y-69633299D01*
G75*
G02*
X252074999Y-69383300I249999J0D01*
G01*
X252600001Y-69383300D01*
G75*
G02*
X252850000Y-69633299I0J-249999D01*
G01*
G37*
G36*
G01*
X254675000Y-69633299D02*
X254675000Y-70533301D01*
G75*
G02*
X254425001Y-70783300I-249999J0D01*
G01*
X253899999Y-70783300D01*
G75*
G02*
X253650000Y-70533301I0J249999D01*
G01*
X253650000Y-69633299D01*
G75*
G02*
X253899999Y-69383300I249999J0D01*
G01*
X254425001Y-69383300D01*
G75*
G02*
X254675000Y-69633299I0J-249999D01*
G01*
G37*
%TD*%
%TO.C,R34*%
G36*
G01*
X247800000Y-69483299D02*
X247800000Y-70383301D01*
G75*
G02*
X247550001Y-70633300I-249999J0D01*
G01*
X247024999Y-70633300D01*
G75*
G02*
X246775000Y-70383301I0J249999D01*
G01*
X246775000Y-69483299D01*
G75*
G02*
X247024999Y-69233300I249999J0D01*
G01*
X247550001Y-69233300D01*
G75*
G02*
X247800000Y-69483299I0J-249999D01*
G01*
G37*
G36*
G01*
X249625000Y-69483299D02*
X249625000Y-70383301D01*
G75*
G02*
X249375001Y-70633300I-249999J0D01*
G01*
X248849999Y-70633300D01*
G75*
G02*
X248600000Y-70383301I0J249999D01*
G01*
X248600000Y-69483299D01*
G75*
G02*
X248849999Y-69233300I249999J0D01*
G01*
X249375001Y-69233300D01*
G75*
G02*
X249625000Y-69483299I0J-249999D01*
G01*
G37*
%TD*%
%TO.C,R33*%
G36*
G01*
X252850000Y-65016699D02*
X252850000Y-65916701D01*
G75*
G02*
X252600001Y-66166700I-249999J0D01*
G01*
X252074999Y-66166700D01*
G75*
G02*
X251825000Y-65916701I0J249999D01*
G01*
X251825000Y-65016699D01*
G75*
G02*
X252074999Y-64766700I249999J0D01*
G01*
X252600001Y-64766700D01*
G75*
G02*
X252850000Y-65016699I0J-249999D01*
G01*
G37*
G36*
G01*
X254675000Y-65016699D02*
X254675000Y-65916701D01*
G75*
G02*
X254425001Y-66166700I-249999J0D01*
G01*
X253899999Y-66166700D01*
G75*
G02*
X253650000Y-65916701I0J249999D01*
G01*
X253650000Y-65016699D01*
G75*
G02*
X253899999Y-64766700I249999J0D01*
G01*
X254425001Y-64766700D01*
G75*
G02*
X254675000Y-65016699I0J-249999D01*
G01*
G37*
%TD*%
%TO.C,R32*%
G36*
G01*
X247800000Y-74099999D02*
X247800000Y-75000001D01*
G75*
G02*
X247550001Y-75250000I-249999J0D01*
G01*
X247024999Y-75250000D01*
G75*
G02*
X246775000Y-75000001I0J249999D01*
G01*
X246775000Y-74099999D01*
G75*
G02*
X247024999Y-73850000I249999J0D01*
G01*
X247550001Y-73850000D01*
G75*
G02*
X247800000Y-74099999I0J-249999D01*
G01*
G37*
G36*
G01*
X249625000Y-74099999D02*
X249625000Y-75000001D01*
G75*
G02*
X249375001Y-75250000I-249999J0D01*
G01*
X248849999Y-75250000D01*
G75*
G02*
X248600000Y-75000001I0J249999D01*
G01*
X248600000Y-74099999D01*
G75*
G02*
X248849999Y-73850000I249999J0D01*
G01*
X249375001Y-73850000D01*
G75*
G02*
X249625000Y-74099999I0J-249999D01*
G01*
G37*
%TD*%
%TO.C,R31*%
G36*
G01*
X252850000Y-60399999D02*
X252850000Y-61300001D01*
G75*
G02*
X252600001Y-61550000I-249999J0D01*
G01*
X252074999Y-61550000D01*
G75*
G02*
X251825000Y-61300001I0J249999D01*
G01*
X251825000Y-60399999D01*
G75*
G02*
X252074999Y-60150000I249999J0D01*
G01*
X252600001Y-60150000D01*
G75*
G02*
X252850000Y-60399999I0J-249999D01*
G01*
G37*
G36*
G01*
X254675000Y-60399999D02*
X254675000Y-61300001D01*
G75*
G02*
X254425001Y-61550000I-249999J0D01*
G01*
X253899999Y-61550000D01*
G75*
G02*
X253650000Y-61300001I0J249999D01*
G01*
X253650000Y-60399999D01*
G75*
G02*
X253899999Y-60150000I249999J0D01*
G01*
X254425001Y-60150000D01*
G75*
G02*
X254675000Y-60399999I0J-249999D01*
G01*
G37*
%TD*%
%TO.C,R30*%
G36*
G01*
X247800000Y-78716699D02*
X247800000Y-79616701D01*
G75*
G02*
X247550001Y-79866700I-249999J0D01*
G01*
X247024999Y-79866700D01*
G75*
G02*
X246775000Y-79616701I0J249999D01*
G01*
X246775000Y-78716699D01*
G75*
G02*
X247024999Y-78466700I249999J0D01*
G01*
X247550001Y-78466700D01*
G75*
G02*
X247800000Y-78716699I0J-249999D01*
G01*
G37*
G36*
G01*
X249625000Y-78716699D02*
X249625000Y-79616701D01*
G75*
G02*
X249375001Y-79866700I-249999J0D01*
G01*
X248849999Y-79866700D01*
G75*
G02*
X248600000Y-79616701I0J249999D01*
G01*
X248600000Y-78716699D01*
G75*
G02*
X248849999Y-78466700I249999J0D01*
G01*
X249375001Y-78466700D01*
G75*
G02*
X249625000Y-78716699I0J-249999D01*
G01*
G37*
%TD*%
%TO.C,R29*%
G36*
G01*
X252850000Y-55783299D02*
X252850000Y-56683301D01*
G75*
G02*
X252600001Y-56933300I-249999J0D01*
G01*
X252074999Y-56933300D01*
G75*
G02*
X251825000Y-56683301I0J249999D01*
G01*
X251825000Y-55783299D01*
G75*
G02*
X252074999Y-55533300I249999J0D01*
G01*
X252600001Y-55533300D01*
G75*
G02*
X252850000Y-55783299I0J-249999D01*
G01*
G37*
G36*
G01*
X254675000Y-55783299D02*
X254675000Y-56683301D01*
G75*
G02*
X254425001Y-56933300I-249999J0D01*
G01*
X253899999Y-56933300D01*
G75*
G02*
X253650000Y-56683301I0J249999D01*
G01*
X253650000Y-55783299D01*
G75*
G02*
X253899999Y-55533300I249999J0D01*
G01*
X254425001Y-55533300D01*
G75*
G02*
X254675000Y-55783299I0J-249999D01*
G01*
G37*
%TD*%
%TO.C,R28*%
G36*
G01*
X247800000Y-83333299D02*
X247800000Y-84233301D01*
G75*
G02*
X247550001Y-84483300I-249999J0D01*
G01*
X247024999Y-84483300D01*
G75*
G02*
X246775000Y-84233301I0J249999D01*
G01*
X246775000Y-83333299D01*
G75*
G02*
X247024999Y-83083300I249999J0D01*
G01*
X247550001Y-83083300D01*
G75*
G02*
X247800000Y-83333299I0J-249999D01*
G01*
G37*
G36*
G01*
X249625000Y-83333299D02*
X249625000Y-84233301D01*
G75*
G02*
X249375001Y-84483300I-249999J0D01*
G01*
X248849999Y-84483300D01*
G75*
G02*
X248600000Y-84233301I0J249999D01*
G01*
X248600000Y-83333299D01*
G75*
G02*
X248849999Y-83083300I249999J0D01*
G01*
X249375001Y-83083300D01*
G75*
G02*
X249625000Y-83333299I0J-249999D01*
G01*
G37*
%TD*%
%TO.C,R27*%
G36*
G01*
X252850000Y-51166699D02*
X252850000Y-52066701D01*
G75*
G02*
X252600001Y-52316700I-249999J0D01*
G01*
X252074999Y-52316700D01*
G75*
G02*
X251825000Y-52066701I0J249999D01*
G01*
X251825000Y-51166699D01*
G75*
G02*
X252074999Y-50916700I249999J0D01*
G01*
X252600001Y-50916700D01*
G75*
G02*
X252850000Y-51166699I0J-249999D01*
G01*
G37*
G36*
G01*
X254675000Y-51166699D02*
X254675000Y-52066701D01*
G75*
G02*
X254425001Y-52316700I-249999J0D01*
G01*
X253899999Y-52316700D01*
G75*
G02*
X253650000Y-52066701I0J249999D01*
G01*
X253650000Y-51166699D01*
G75*
G02*
X253899999Y-50916700I249999J0D01*
G01*
X254425001Y-50916700D01*
G75*
G02*
X254675000Y-51166699I0J-249999D01*
G01*
G37*
%TD*%
%TO.C,R24*%
G36*
G01*
X247800000Y-87949999D02*
X247800000Y-88850001D01*
G75*
G02*
X247550001Y-89100000I-249999J0D01*
G01*
X247024999Y-89100000D01*
G75*
G02*
X246775000Y-88850001I0J249999D01*
G01*
X246775000Y-87949999D01*
G75*
G02*
X247024999Y-87700000I249999J0D01*
G01*
X247550001Y-87700000D01*
G75*
G02*
X247800000Y-87949999I0J-249999D01*
G01*
G37*
G36*
G01*
X249625000Y-87949999D02*
X249625000Y-88850001D01*
G75*
G02*
X249375001Y-89100000I-249999J0D01*
G01*
X248849999Y-89100000D01*
G75*
G02*
X248600000Y-88850001I0J249999D01*
G01*
X248600000Y-87949999D01*
G75*
G02*
X248849999Y-87700000I249999J0D01*
G01*
X249375001Y-87700000D01*
G75*
G02*
X249625000Y-87949999I0J-249999D01*
G01*
G37*
%TD*%
%TO.C,R23*%
G36*
G01*
X252850000Y-46549999D02*
X252850000Y-47450001D01*
G75*
G02*
X252600001Y-47700000I-249999J0D01*
G01*
X252074999Y-47700000D01*
G75*
G02*
X251825000Y-47450001I0J249999D01*
G01*
X251825000Y-46549999D01*
G75*
G02*
X252074999Y-46300000I249999J0D01*
G01*
X252600001Y-46300000D01*
G75*
G02*
X252850000Y-46549999I0J-249999D01*
G01*
G37*
G36*
G01*
X254675000Y-46549999D02*
X254675000Y-47450001D01*
G75*
G02*
X254425001Y-47700000I-249999J0D01*
G01*
X253899999Y-47700000D01*
G75*
G02*
X253650000Y-47450001I0J249999D01*
G01*
X253650000Y-46549999D01*
G75*
G02*
X253899999Y-46300000I249999J0D01*
G01*
X254425001Y-46300000D01*
G75*
G02*
X254675000Y-46549999I0J-249999D01*
G01*
G37*
%TD*%
%TO.C,R22*%
G36*
G01*
X247800000Y-92566699D02*
X247800000Y-93466701D01*
G75*
G02*
X247550001Y-93716700I-249999J0D01*
G01*
X247024999Y-93716700D01*
G75*
G02*
X246775000Y-93466701I0J249999D01*
G01*
X246775000Y-92566699D01*
G75*
G02*
X247024999Y-92316700I249999J0D01*
G01*
X247550001Y-92316700D01*
G75*
G02*
X247800000Y-92566699I0J-249999D01*
G01*
G37*
G36*
G01*
X249625000Y-92566699D02*
X249625000Y-93466701D01*
G75*
G02*
X249375001Y-93716700I-249999J0D01*
G01*
X248849999Y-93716700D01*
G75*
G02*
X248600000Y-93466701I0J249999D01*
G01*
X248600000Y-92566699D01*
G75*
G02*
X248849999Y-92316700I249999J0D01*
G01*
X249375001Y-92316700D01*
G75*
G02*
X249625000Y-92566699I0J-249999D01*
G01*
G37*
%TD*%
%TO.C,R21*%
G36*
G01*
X252850000Y-41933299D02*
X252850000Y-42833301D01*
G75*
G02*
X252600001Y-43083300I-249999J0D01*
G01*
X252074999Y-43083300D01*
G75*
G02*
X251825000Y-42833301I0J249999D01*
G01*
X251825000Y-41933299D01*
G75*
G02*
X252074999Y-41683300I249999J0D01*
G01*
X252600001Y-41683300D01*
G75*
G02*
X252850000Y-41933299I0J-249999D01*
G01*
G37*
G36*
G01*
X254675000Y-41933299D02*
X254675000Y-42833301D01*
G75*
G02*
X254425001Y-43083300I-249999J0D01*
G01*
X253899999Y-43083300D01*
G75*
G02*
X253650000Y-42833301I0J249999D01*
G01*
X253650000Y-41933299D01*
G75*
G02*
X253899999Y-41683300I249999J0D01*
G01*
X254425001Y-41683300D01*
G75*
G02*
X254675000Y-41933299I0J-249999D01*
G01*
G37*
%TD*%
%TO.C,R18*%
G36*
G01*
X247800000Y-97183299D02*
X247800000Y-98083301D01*
G75*
G02*
X247550001Y-98333300I-249999J0D01*
G01*
X247024999Y-98333300D01*
G75*
G02*
X246775000Y-98083301I0J249999D01*
G01*
X246775000Y-97183299D01*
G75*
G02*
X247024999Y-96933300I249999J0D01*
G01*
X247550001Y-96933300D01*
G75*
G02*
X247800000Y-97183299I0J-249999D01*
G01*
G37*
G36*
G01*
X249625000Y-97183299D02*
X249625000Y-98083301D01*
G75*
G02*
X249375001Y-98333300I-249999J0D01*
G01*
X248849999Y-98333300D01*
G75*
G02*
X248600000Y-98083301I0J249999D01*
G01*
X248600000Y-97183299D01*
G75*
G02*
X248849999Y-96933300I249999J0D01*
G01*
X249375001Y-96933300D01*
G75*
G02*
X249625000Y-97183299I0J-249999D01*
G01*
G37*
%TD*%
%TO.C,R17*%
G36*
G01*
X252850000Y-37316699D02*
X252850000Y-38216701D01*
G75*
G02*
X252600001Y-38466700I-249999J0D01*
G01*
X252074999Y-38466700D01*
G75*
G02*
X251825000Y-38216701I0J249999D01*
G01*
X251825000Y-37316699D01*
G75*
G02*
X252074999Y-37066700I249999J0D01*
G01*
X252600001Y-37066700D01*
G75*
G02*
X252850000Y-37316699I0J-249999D01*
G01*
G37*
G36*
G01*
X254675000Y-37316699D02*
X254675000Y-38216701D01*
G75*
G02*
X254425001Y-38466700I-249999J0D01*
G01*
X253899999Y-38466700D01*
G75*
G02*
X253650000Y-38216701I0J249999D01*
G01*
X253650000Y-37316699D01*
G75*
G02*
X253899999Y-37066700I249999J0D01*
G01*
X254425001Y-37066700D01*
G75*
G02*
X254675000Y-37316699I0J-249999D01*
G01*
G37*
%TD*%
%TO.C,R16*%
G36*
G01*
X247800000Y-101799999D02*
X247800000Y-102700001D01*
G75*
G02*
X247550001Y-102950000I-249999J0D01*
G01*
X247024999Y-102950000D01*
G75*
G02*
X246775000Y-102700001I0J249999D01*
G01*
X246775000Y-101799999D01*
G75*
G02*
X247024999Y-101550000I249999J0D01*
G01*
X247550001Y-101550000D01*
G75*
G02*
X247800000Y-101799999I0J-249999D01*
G01*
G37*
G36*
G01*
X249625000Y-101799999D02*
X249625000Y-102700001D01*
G75*
G02*
X249375001Y-102950000I-249999J0D01*
G01*
X248849999Y-102950000D01*
G75*
G02*
X248600000Y-102700001I0J249999D01*
G01*
X248600000Y-101799999D01*
G75*
G02*
X248849999Y-101550000I249999J0D01*
G01*
X249375001Y-101550000D01*
G75*
G02*
X249625000Y-101799999I0J-249999D01*
G01*
G37*
%TD*%
%TO.C,R15*%
G36*
G01*
X252850000Y-32699999D02*
X252850000Y-33600001D01*
G75*
G02*
X252600001Y-33850000I-249999J0D01*
G01*
X252074999Y-33850000D01*
G75*
G02*
X251825000Y-33600001I0J249999D01*
G01*
X251825000Y-32699999D01*
G75*
G02*
X252074999Y-32450000I249999J0D01*
G01*
X252600001Y-32450000D01*
G75*
G02*
X252850000Y-32699999I0J-249999D01*
G01*
G37*
G36*
G01*
X254675000Y-32699999D02*
X254675000Y-33600001D01*
G75*
G02*
X254425001Y-33850000I-249999J0D01*
G01*
X253899999Y-33850000D01*
G75*
G02*
X253650000Y-33600001I0J249999D01*
G01*
X253650000Y-32699999D01*
G75*
G02*
X253899999Y-32450000I249999J0D01*
G01*
X254425001Y-32450000D01*
G75*
G02*
X254675000Y-32699999I0J-249999D01*
G01*
G37*
%TD*%
%TO.C,C70*%
G36*
G01*
X209912000Y-69050000D02*
X209912000Y-70000000D01*
G75*
G02*
X209662000Y-70250000I-250000J0D01*
G01*
X209162000Y-70250000D01*
G75*
G02*
X208912000Y-70000000I0J250000D01*
G01*
X208912000Y-69050000D01*
G75*
G02*
X209162000Y-68800000I250000J0D01*
G01*
X209662000Y-68800000D01*
G75*
G02*
X209912000Y-69050000I0J-250000D01*
G01*
G37*
G36*
G01*
X211812000Y-69050000D02*
X211812000Y-70000000D01*
G75*
G02*
X211562000Y-70250000I-250000J0D01*
G01*
X211062000Y-70250000D01*
G75*
G02*
X210812000Y-70000000I0J250000D01*
G01*
X210812000Y-69050000D01*
G75*
G02*
X211062000Y-68800000I250000J0D01*
G01*
X211562000Y-68800000D01*
G75*
G02*
X211812000Y-69050000I0J-250000D01*
G01*
G37*
%TD*%
M02*
