M48
; DRILL file {KiCad (5.1.10)-1} date 11/09/21 21:50:52
; FORMAT={-:-/ absolute / metric / decimal}
; #@! TF.CreationDate,2021-11-09T21:50:52+08:00
; #@! TF.GenerationSoftware,Kicad,Pcbnew,(5.1.10)-1
FMAT,2
METRIC
T1C0.200
T2C0.400
T3C0.800
T4C1.000
%
G90
G05
T1
X65.914Y-88.029
X66.489Y-79.84
X67.546Y-88.602
X67.588Y-92.249
X67.781Y-71.171
X68.465Y-91.292
X68.721Y-83.879
X72.406Y-74.76
X73.637Y-81.958
X73.737Y-87.46
X73.817Y-33.339
X73.945Y-56.656
X74.204Y-111.743
X74.278Y-70.245
X74.539Y-110.007
X75.076Y-92.205
X75.15Y-57.84
X75.197Y-78.525
X75.295Y-71.79
X75.426Y-119.191
X75.514Y-58.222
X75.564Y-108.966
X75.689Y-77.18
X75.726Y-78.909
X75.798Y-33.259
X75.831Y-116.061
X75.833Y-106.625
X76.008Y-72.886
X76.183Y-96.169
X76.3Y-84.825
X76.357Y-60.334
X76.37Y-111.794
X76.644Y-117.955
X76.752Y-73.151
X76.808Y-104.622
X77.109Y-74.76
X77.249Y-97.66
X77.335Y-73.692
X77.466Y-85.01
X77.557Y-103.485
X77.606Y-72.181
X77.613Y-111.796
X77.717Y-131.548
X77.794Y-58.602
X77.871Y-36.498
X77.962Y-57.881
X77.965Y-80.021
X77.97Y-98.975
X77.973Y-106.023
X77.98Y-116.047
X78.105Y-79.436
X78.158Y-78.449
X78.166Y-108.741
X78.28Y-114.349
X78.328Y-58.427
X78.626Y-80.846
X78.638Y-79.868
X78.648Y-87.191
X78.958Y-101.932
X79.365Y-66.419
X79.376Y-99.625
X79.404Y-65.886
X79.453Y-101.43
X79.483Y-48.619
X79.51Y-70.384
X79.533Y-119.64
X79.761Y-33.254
X79.813Y-78.875
X79.822Y-113.808
X79.84Y-74.004
X80.028Y-132.917
X80.044Y-117.989
X80.052Y-125.966
X80.08Y-67.665
X80.163Y-66.312
X80.207Y-86.68
X80.207Y-79.436
X80.222Y-104.397
X80.239Y-69.321
X80.259Y-68.794
X80.265Y-68.209
X80.281Y-118.754
X80.322Y-137.726
X80.61Y-129.403
X80.921Y-131.803
X80.929Y-108.733
X81.088Y-70.644
X81.13Y-130.446
X81.183Y-78.555
X81.186Y-65.969
X81.188Y-130.982
X81.421Y-75.539
X81.467Y-75.012
X81.472Y-102.042
X81.542Y-65.375
X81.551Y-115.575
X81.555Y-105.975
X81.556Y-113.485
X81.558Y-106.625
X81.558Y-66.599
X81.558Y-108.575
X81.576Y-132.45
X81.732Y-131.037
X81.749Y-74.058
X81.773Y-44.709
X81.919Y-33.344
X82.03Y-57.457
X82.15Y-136.571
X82.337Y-96.102
X82.363Y-37.605
X82.549Y-130.564
X82.653Y-97.506
X82.675Y-84.95
X82.942Y-54.21
X83.065Y-110.945
X83.202Y-57.1
X83.749Y-116.343
X84.368Y-138.239
X84.645Y-49.844
X84.845Y-125.966
X85.001Y-72.998
X85.128Y-36.864
X85.195Y-49.453
X85.197Y-83.502
X85.36Y-131.404
X85.706Y-33.259
X85.721Y-131.851
X85.783Y-37.959
X85.799Y-46.824
X85.89Y-73.407
X86.107Y-48.726
X86.395Y-131.834
X86.837Y-83.57
X87.037Y-131.848
X87.037Y-139.731
X87.284Y-72.417
X87.55Y-82.221
X87.587Y-68.733
X87.602Y-131.839
X88.08Y-120.814
X88.218Y-99.894
X88.256Y-131.851
X88.903Y-131.644
X89.053Y-114.275
X89.288Y-81.879
X89.381Y-44.801
X89.611Y-45.716
X89.649Y-46.279
X89.669Y-33.253
X89.915Y-131.841
X89.939Y-83.946
X90.008Y-48.808
X90.04Y-47.772
X90.164Y-42.218
X90.55Y-66.229
X90.567Y-36.588
X90.601Y-47.724
X91.373Y-36.806
X91.51Y-65.882
X91.65Y-33.263
X91.659Y-137.553
X91.704Y-75.263
X91.83Y-122.375
X91.853Y-59.13
X91.983Y-69.541
X92.039Y-54.221
X92.065Y-38.818
X92.222Y-135.617
X92.484Y-67.772
X92.566Y-50.374
X92.822Y-70.897
X93.009Y-72.496
X93.209Y-68.8
X93.535Y-38.404
X93.578Y-78.831
X93.919Y-67.647
X93.934Y-44.541
X93.971Y-68.174
X94.099Y-65.292
X94.107Y-61.994
X94.454Y-37.836
X94.496Y-63.577
X94.603Y-50.85
X94.72Y-61.843
X94.774Y-37.204
X94.811Y-67.996
X94.978Y-63.906
X95.222Y-51.482
X95.444Y-47.812
X95.702Y-57.576
X95.753Y-33.269
X95.791Y-51.241
X95.794Y-136.714
X95.797Y-137.273
X95.856Y-135.392
X96.09Y-61.86
X96.159Y-68.015
X96.262Y-134.927
X96.267Y-63.9
X96.301Y-40.345
X96.341Y-42.145
X96.39Y-68.8
X96.461Y-139.711
X96.632Y-48.829
X96.734Y-42.807
X96.793Y-56.703
X96.955Y-135.406
X97.115Y-56.274
X97.313Y-131.823
X97.317Y-126.673
X97.594Y-139.689
X97.595Y-33.263
X97.671Y-135.4
X97.69Y-61.843
X97.757Y-51.154
X97.958Y-42.702
X98.039Y-37.204
X98.076Y-136.778
X98.265Y-139.699
X98.344Y-47.829
X98.354Y-38.465
X98.388Y-44.537
X98.427Y-110.569
X98.466Y-140.389
X98.496Y-66.897
X98.554Y-60.932
X98.735Y-60.036
X98.831Y-44.123
X98.837Y-135.699
X98.862Y-121.54
X98.956Y-137.01
X98.99Y-131.334
X99.088Y-54.166
X99.133Y-134.775
X99.217Y-51.467
X99.37Y-135.709
X99.448Y-41.61
X99.514Y-60.42
X99.526Y-135.182
X99.617Y-61.72
X99.624Y-36.993
X99.636Y-65.581
X99.754Y-48.142
X100.253Y-43.923
X100.778Y-37.692
X100.812Y-107.839
X100.919Y-54.186
X100.974Y-40.966
X100.995Y-63.245
X101.075Y-65.13
X101.161Y-142.56
X101.269Y-113.45
X101.334Y-72.998
X101.387Y-93.452
X101.448Y-43.975
X101.465Y-53.974
X101.558Y-33.254
X101.782Y-106.178
X101.789Y-93.806
X101.919Y-43.334
X101.933Y-136.03
X101.977Y-50.274
X102.128Y-130.85
X102.141Y-68.86
X102.153Y-70.395
X102.168Y-75.697
X102.235Y-67.537
X102.251Y-116.899
X102.322Y-53.942
X102.491Y-87.681
X102.507Y-142.888
X102.643Y-44.977
X102.717Y-140.453
X102.898Y-93.011
X103.029Y-44.32
X103.2Y-131.876
X103.422Y-57.558
X103.586Y-128.417
X103.61Y-67.379
X103.673Y-47.276
X103.979Y-56.023
X104.101Y-45.703
X104.164Y-33.266
X104.232Y-69.743
X104.234Y-48.421
X104.254Y-51.652
X104.38Y-57.266
X104.465Y-103.681
X104.503Y-67.372
X104.742Y-56.875
X105.132Y-109.75
X105.231Y-56.453
X105.409Y-46.684
X105.565Y-67.374
X105.634Y-57.937
X105.746Y-37.224
X105.998Y-68.512
X106.289Y-65.13
X106.558Y-56.318
X106.749Y-68.524
X107.07Y-65.268
X107.36Y-46.684
X107.449Y-67.579
X107.502Y-33.256
X107.574Y-90.625
X107.812Y-72.472
X107.817Y-73.407
X107.89Y-44.385
X107.998Y-68.234
X108.036Y-92.598
X108.566Y-60.602
X108.771Y-59.616
X108.921Y-56.066
X109.117Y-51.568
X109.178Y-43.437
X109.319Y-60.193
X109.337Y-37.681
X109.38Y-52.528
X109.392Y-44.427
X109.397Y-55.795
X109.413Y-59.056
X109.495Y-63.486
X109.573Y-64.565
X109.706Y-128.521
X109.871Y-48.03
X109.887Y-137.396
X109.938Y-129.377
X110.027Y-64.15
X110.032Y-131.21
X110.197Y-46.994
X110.216Y-129.9
X110.239Y-67.073
X110.566Y-46.618
X110.624Y-131.551
X111.293Y-51.159
X111.353Y-133.996
X111.465Y-33.267
X111.705Y-131.532
X111.721Y-67.242
X111.815Y-40.71
X112.281Y-131.848
X112.306Y-142.342
X112.354Y-40.768
X112.398Y-52.649
X112.406Y-51.992
X112.82Y-52.324
X113.253Y-56.736
X113.298Y-131.838
X113.355Y-37.049
X113.357Y-51.306
X113.467Y-59.116
X113.545Y-89.617
X113.607Y-67.484
X113.623Y-33.348
X113.658Y-46.348
X113.856Y-52.144
X114.176Y-140.611
X114.48Y-133.589
X114.564Y-139.321
X114.6Y-57.044
X114.609Y-132.903
X114.649Y-50.362
X114.778Y-67.523
X114.806Y-63.72
X114.852Y-59.607
X114.952Y-45.818
X115.151Y-68.898
X115.162Y-50.76
X115.176Y-46.677
X115.212Y-65.059
X115.231Y-73.449
X115.282Y-63.431
X115.388Y-135.601
X115.428Y-140.554
X115.484Y-76.153
X115.495Y-80.825
X115.797Y-59.639
X115.831Y-55.661
X115.933Y-69.188
X116.013Y-63.851
X116.024Y-76.272
X116.091Y-68.159
X116.111Y-49.313
X116.128Y-139.83
X116.22Y-47.694
X116.265Y-46.369
X116.289Y-69.593
X116.345Y-67.468
X116.371Y-122.465
X116.387Y-56.306
X116.499Y-55.248
X116.505Y-59.604
X116.515Y-49.704
X116.651Y-70.395
X116.667Y-73.673
X116.706Y-133.917
X116.728Y-59.08
X117.1Y-86.5
X117.16Y-50.12
X117.27Y-65.333
X117.424Y-33.267
X117.539Y-121.657
X117.971Y-48.133
X118.111Y-54.84
X118.206Y-40.136
X118.443Y-70.201
X118.616Y-60.677
X118.767Y-44.791
X118.874Y-46.137
X118.96Y-54.196
X119.075Y-53.266
X119.147Y-83.285
X119.388Y-53.878
X119.428Y-40.771
X119.448Y-56.249
X119.5Y-87.0
X119.504Y-36.368
X119.523Y-69.448
X119.595Y-68.749
X119.609Y-47.666
X119.733Y-70.062
X119.948Y-36.814
X120.019Y-85.475
X120.042Y-72.709
X120.072Y-67.103
X120.131Y-92.294
X120.149Y-50.127
X120.209Y-110.45
X120.233Y-138.861
X120.249Y-140.858
X120.444Y-66.475
X120.46Y-69.176
X120.492Y-46.924
X120.504Y-67.552
X120.63Y-94.363
X120.769Y-117.377
X120.956Y-89.642
X120.975Y-85.615
X121.179Y-139.712
X121.215Y-87.342
X121.219Y-90.125
X121.302Y-56.22
X121.355Y-33.268
X121.592Y-52.682
X121.697Y-58.813
X121.755Y-60.032
X121.935Y-125.036
X122.192Y-52.876
X122.242Y-49.881
X122.33Y-131.549
X122.389Y-73.985
X122.391Y-69.484
X122.635Y-53.49
X122.642Y-57.461
X122.699Y-69.04
X122.73Y-91.835
X122.744Y-88.4
X122.777Y-57.988
X123.166Y-53.413
X123.286Y-96.47
X123.388Y-95.543
X123.395Y-73.151
X123.399Y-90.516
X123.617Y-58.315
X123.711Y-72.721
X123.727Y-55.284
X123.729Y-89.356
X123.842Y-135.261
X123.854Y-92.631
X123.99Y-61.717
X124.254Y-69.431
X124.427Y-71.914
X124.453Y-53.4
X124.703Y-70.087
X124.825Y-82.027
X124.9Y-89.2
X124.939Y-74.151
X124.958Y-71.474
X125.183Y-97.329
X125.23Y-70.342
X125.336Y-62.943
X125.359Y-67.471
X125.36Y-58.347
X125.449Y-86.241
X125.55Y-72.364
X125.562Y-68.059
X125.66Y-124.747
X125.887Y-123.948
X125.936Y-70.228
X126.024Y-58.814
X126.052Y-49.49
X126.161Y-67.479
X126.232Y-140.76
X126.274Y-72.358
X126.29Y-118.831
X126.453Y-48.79
X126.677Y-64.381
X126.75Y-89.152
X126.8Y-94.7
X126.861Y-72.358
X126.862Y-122.453
X126.862Y-123.466
X126.862Y-125.573
X126.903Y-139.804
X126.911Y-113.939
X127.115Y-92.172
X127.192Y-132.1
X127.256Y-119.557
X127.256Y-79.179
X127.259Y-135.978
X127.4Y-95.438
X127.482Y-133.211
X127.5Y-84.8
X127.5Y-105.3
X127.6Y-87.9
X127.647Y-125.025
X127.731Y-131.901
X127.95Y-54.293
X128.2Y-94.4
X128.3Y-100.9
X128.503Y-138.073
X128.605Y-95.105
X128.678Y-120.082
X128.749Y-60.497
X128.774Y-138.559
X129.032Y-38.188
X129.187Y-53.902
X129.2Y-93.2
X129.261Y-41.407
X129.299Y-54.684
X129.299Y-136.093
X129.328Y-94.163
X129.366Y-68.858
X129.403Y-80.303
X129.496Y-58.165
X129.507Y-131.492
X129.507Y-117.714
X129.524Y-137.403
X129.53Y-57.108
X129.56Y-57.637
X129.562Y-123.913
X129.766Y-93.478
X129.869Y-91.208
X130.014Y-66.862
X130.059Y-97.152
X130.07Y-63.589
X130.073Y-62.302
X130.18Y-126.156
X130.218Y-122.889
X130.236Y-69.118
X130.417Y-111.215
X130.464Y-96.693
X130.515Y-138.725
X130.641Y-99.28
X130.657Y-68.793
X130.868Y-96.351
X130.892Y-58.733
X130.9Y-90.5
X130.988Y-43.981
X131.0Y-82.0
X131.132Y-97.791
X131.283Y-70.622
X131.433Y-141.622
X131.532Y-121.413
X131.556Y-86.652
X131.565Y-138.727
X131.624Y-125.794
X131.693Y-69.073
X132.006Y-84.486
X132.22Y-69.047
X132.271Y-122.038
X132.352Y-83.652
X132.422Y-53.726
X132.477Y-96.102
X132.502Y-96.629
X132.594Y-91.487
X132.619Y-94.541
X132.871Y-121.078
X132.892Y-85.831
X132.921Y-95.408
X133.002Y-69.302
X133.03Y-127.666
X133.255Y-80.683
X133.262Y-54.039
X133.323Y-93.83
X133.598Y-49.881
X133.626Y-71.101
X133.708Y-98.537
X133.833Y-88.733
X133.842Y-87.625
X134.019Y-85.18
X134.053Y-71.419
X134.264Y-89.737
X134.329Y-105.307
X134.419Y-86.01
X134.581Y-104.271
X134.583Y-107.754
X134.587Y-71.632
X134.813Y-31.456
X135.008Y-57.959
X135.118Y-67.574
X135.312Y-50.732
X135.357Y-92.009
X135.365Y-139.752
X135.827Y-58.853
X136.06Y-102.665
X136.063Y-51.282
X136.19Y-129.142
X136.231Y-129.687
X136.361Y-61.705
X136.43Y-73.622
X136.443Y-87.123
X136.58Y-131.851
X136.674Y-127.086
X136.758Y-129.679
X136.901Y-139.733
X137.079Y-59.536
X137.26Y-71.883
X137.262Y-65.053
X137.407Y-129.583
X137.639Y-54.537
X137.653Y-131.554
X137.724Y-72.999
X137.729Y-64.664
X137.8Y-67.621
X137.841Y-140.521
X137.851Y-118.186
X137.886Y-71.401
X138.55Y-90.321
X138.642Y-65.757
X138.674Y-58.365
X138.675Y-60.033
X138.778Y-101.935
X138.885Y-140.132
X139.158Y-128.217
X139.175Y-67.26
X139.302Y-55.18
X139.319Y-72.276
X139.369Y-59.162
X139.377Y-125.823
X139.665Y-131.366
X139.681Y-103.115
X139.844Y-75.546
X139.868Y-106.508
X140.271Y-50.732
X140.296Y-131.378
X140.297Y-69.561
X140.605Y-65.023
X140.643Y-135.677
X140.703Y-133.42
X140.716Y-121.603
X140.852Y-134.724
X140.895Y-132.106
X140.963Y-62.141
X141.117Y-69.709
X141.29Y-56.436
X141.445Y-133.478
X141.616Y-102.665
X141.933Y-62.213
X141.957Y-121.212
X142.163Y-57.748
X142.299Y-126.214
X142.376Y-59.547
X142.43Y-123.114
X142.487Y-131.798
X142.723Y-57.203
X142.801Y-62.811
X143.047Y-59.546
X143.2Y-138.226
X143.28Y-73.165
X143.332Y-56.951
X143.58Y-59.544
X143.827Y-56.698
X144.108Y-59.539
X144.46Y-102.452
X144.51Y-73.415
X144.538Y-48.79
X144.552Y-139.733
X144.635Y-59.543
X144.716Y-32.575
X144.864Y-68.685
X144.887Y-108.504
X144.925Y-67.407
X144.969Y-106.056
X145.04Y-30.667
X145.162Y-59.547
X145.192Y-98.602
X145.279Y-108.907
X145.436Y-139.723
X145.52Y-108.093
X145.554Y-54.817
X145.745Y-59.024
X146.151Y-105.265
X146.223Y-51.069
X146.25Y-62.383
X146.473Y-141.265
X146.482Y-53.9
X146.696Y-139.689
X146.861Y-140.534
X146.918Y-57.59
X146.923Y-71.089
X146.981Y-43.075
X147.031Y-59.649
X147.152Y-41.407
X147.438Y-130.534
X147.573Y-49.048
X147.575Y-67.232
X147.584Y-50.036
X147.663Y-59.818
X147.721Y-107.693
X147.722Y-39.53
X147.742Y-40.157
X147.763Y-141.688
X147.973Y-33.927
X148.087Y-141.241
X148.24Y-60.896
X148.37Y-139.794
X148.374Y-114.888
X148.491Y-64.855
X148.898Y-139.963
X148.956Y-47.356
X148.996Y-142.038
X149.022Y-65.011
X149.119Y-67.487
X149.213Y-51.734
X149.372Y-31.227
X149.406Y-71.877
X149.44Y-139.972
X149.553Y-141.888
X149.554Y-46.965
X149.593Y-61.301
X149.658Y-70.587
X149.664Y-52.064
X149.675Y-67.516
X149.796Y-64.348
X149.87Y-74.785
X150.08Y-141.888
X150.138Y-133.399
X150.22Y-68.866
X150.356Y-43.725
X150.43Y-138.642
X150.439Y-45.222
X150.645Y-139.718
X150.941Y-68.122
X150.994Y-74.204
X151.123Y-141.634
X151.136Y-49.816
X151.177Y-139.327
X151.336Y-38.962
X151.4Y-56.842
X151.468Y-68.122
X151.65Y-141.634
X151.761Y-139.072
X151.996Y-67.868
X152.431Y-88.521
X152.558Y-76.604
X152.558Y-79.524
X152.595Y-67.636
X152.685Y-69.363
X152.708Y-73.01
X152.777Y-115.22
X152.779Y-93.325
X152.779Y-48.535
X152.797Y-92.175
X152.819Y-64.922
X152.912Y-63.606
X153.159Y-35.825
X153.159Y-37.125
X153.166Y-64.522
X153.212Y-45.824
X153.219Y-35.175
X153.239Y-90.274
X153.24Y-90.875
X153.328Y-51.854
X153.37Y-50.139
X153.438Y-34.525
X153.491Y-109.877
X153.795Y-62.312
X153.853Y-52.795
X153.884Y-132.992
X154.001Y-139.479
X154.103Y-79.524
X154.176Y-109.035
X154.226Y-62.642
X154.252Y-72.647
X154.42Y-51.683
X154.427Y-110.305
X154.463Y-65.047
X154.486Y-69.312
X154.499Y-53.218
X154.529Y-67.631
X154.707Y-41.688
X154.859Y-49.616
X154.868Y-43.725
X154.882Y-79.95
X154.971Y-63.715
X155.019Y-69.438
X155.116Y-52.473
X155.267Y-111.154
X155.28Y-109.487
X155.323Y-106.917
X155.417Y-72.951
X155.511Y-107.511
X155.516Y-112.575
X155.606Y-134.586
X155.623Y-63.722
X155.642Y-111.545
X155.645Y-81.51
X155.695Y-49.347
X155.762Y-73.415
X155.871Y-110.509
X155.957Y-54.01
X155.978Y-71.102
X156.242Y-112.581
X156.251Y-111.545
X156.321Y-130.581
X156.356Y-80.847
X156.357Y-110.25
X156.41Y-79.524
X156.569Y-134.582
X156.654Y-87.282
X156.774Y-80.45
X156.774Y-81.95
X156.838Y-67.409
X157.0Y-77.383
X157.097Y-82.84
X157.103Y-43.868
X157.147Y-52.213
X157.163Y-79.001
X157.17Y-74.584
X157.192Y-39.818
X157.229Y-133.992
X157.365Y-67.566
X157.58Y-60.121
X157.772Y-54.01
X157.796Y-111.377
X158.115Y-134.436
X158.149Y-142.651
X158.239Y-84.822
X158.3Y-140.332
X158.323Y-111.377
X158.367Y-61.254
X158.431Y-39.325
X158.432Y-56.441
X158.526Y-42.575
X158.71Y-139.708
X158.793Y-48.925
X158.851Y-111.488
X158.926Y-41.291
X158.971Y-106.454
X159.09Y-76.777
X159.118Y-77.57
X159.192Y-53.812
X159.288Y-73.45
X159.347Y-128.041
X159.501Y-42.132
X159.693Y-76.997
X159.784Y-95.275
X159.862Y-88.13
X159.87Y-67.999
X159.909Y-110.758
X159.961Y-105.3
X159.974Y-43.225
X160.008Y-106.952
X160.122Y-49.215
X160.198Y-78.503
X160.212Y-127.514
X160.252Y-140.045
X160.299Y-129.557
X160.318Y-93.962
X160.481Y-130.972
X160.567Y-94.625
X160.708Y-135.093
X160.712Y-77.486
X160.801Y-86.416
X160.906Y-140.622
X160.909Y-59.735
X161.084Y-72.493
X161.103Y-56.132
X161.195Y-92.132
X161.213Y-75.45
X161.325Y-78.461
X161.332Y-70.712
X161.342Y-58.699
X161.347Y-135.734
X161.478Y-133.866
X161.493Y-91.641
X161.522Y-59.784
X161.622Y-132.965
X161.672Y-67.621
X161.707Y-87.501
X162.112Y-78.972
X162.208Y-67.664
X162.259Y-47.887
X162.27Y-92.522
X162.411Y-90.701
X162.417Y-138.75
X162.434Y-44.924
X162.511Y-131.113
X162.522Y-118.831
X162.529Y-91.375
X162.606Y-59.11
X162.896Y-53.617
X162.911Y-59.738
X162.936Y-141.376
X163.139Y-52.517
X163.284Y-122.453
X163.47Y-95.275
X163.478Y-140.979
X163.596Y-98.131
X163.69Y-122.038
X163.837Y-133.591
X164.226Y-45.074
X164.416Y-70.275
X164.42Y-55.693
X164.505Y-59.733
X164.748Y-119.225
X164.827Y-55.354
X165.14Y-38.592
X165.386Y-72.433
X165.404Y-101.275
X165.413Y-100.625
X165.444Y-87.935
X165.515Y-73.213
X165.636Y-55.551
X165.647Y-64.781
X165.689Y-98.675
X165.828Y-101.619
X166.189Y-97.036
X166.89Y-96.095
X167.097Y-92.025
X167.407Y-94.498
X167.487Y-46.178
X167.49Y-105.485
X167.536Y-98.675
X167.798Y-93.975
X167.95Y-53.949
X168.022Y-54.595
X168.129Y-136.559
X168.365Y-126.614
X168.46Y-112.579
X168.509Y-78.359
X168.509Y-61.94
X168.573Y-47.76
X168.628Y-98.857
X168.666Y-54.092
X168.731Y-100.924
X168.823Y-130.808
X168.989Y-112.325
X168.991Y-102.009
X169.019Y-134.093
X169.112Y-94.93
X169.144Y-73.212
X169.178Y-137.437
X169.178Y-91.375
X169.592Y-87.819
X169.643Y-45.729
X169.68Y-47.571
X169.72Y-43.678
X169.783Y-88.355
X169.829Y-136.14
X170.614Y-73.221
X170.647Y-135.929
X170.688Y-71.836
X170.974Y-36.587
X171.034Y-96.697
X171.093Y-56.314
X171.115Y-49.775
X171.138Y-99.975
X171.183Y-48.055
X171.19Y-136.868
X171.33Y-93.975
X171.34Y-92.675
X171.34Y-95.275
X171.346Y-94.625
X171.358Y-101.315
X171.38Y-100.625
X171.455Y-93.231
X171.467Y-43.183
X171.501Y-64.376
X171.522Y-111.267
X171.639Y-136.437
X172.227Y-137.694
X172.443Y-143.296
X172.475Y-139.736
X172.478Y-42.3
X172.662Y-53.5
X172.892Y-49.394
X172.928Y-138.642
X173.483Y-47.531
X173.66Y-41.5
X174.078Y-85.756
X174.145Y-77.084
X174.166Y-73.811
X174.194Y-136.803
X174.346Y-139.451
X174.366Y-44.112
X174.42Y-47.081
X174.811Y-96.386
X174.834Y-96.926
X174.873Y-131.268
X174.873Y-139.061
X174.888Y-74.764
X174.938Y-95.849
X174.944Y-56.921
X175.165Y-94.753
X175.193Y-136.998
X175.274Y-83.232
X175.435Y-84.98
X175.643Y-76.95
X175.692Y-94.753
X175.763Y-72.41
X175.839Y-82.179
X175.848Y-83.031
X175.879Y-75.613
X176.172Y-81.669
X176.671Y-79.45
X176.672Y-75.95
X176.712Y-47.1
X176.756Y-44.009
X176.946Y-89.218
X177.31Y-90.007
X177.318Y-124.723
X177.376Y-85.94
X177.601Y-45.869
X177.754Y-54.449
X177.887Y-43.227
X177.924Y-45.446
X177.963Y-118.67
X178.046Y-106.111
X178.176Y-49.179
X178.178Y-50.3
X178.357Y-51.922
X178.451Y-45.284
X178.457Y-43.645
X178.851Y-82.45
X179.139Y-81.978
X179.229Y-96.505
X179.275Y-72.473
X179.342Y-82.704
X179.399Y-47.6
X179.522Y-135.788
X179.59Y-87.537
X179.611Y-53.745
X179.713Y-52.906
X179.852Y-75.806
X179.918Y-96.121
X180.004Y-113.774
X180.015Y-87.859
X180.134Y-84.629
X180.168Y-88.817
X180.33Y-88.29
X180.358Y-53.434
X180.395Y-39.9
X180.534Y-89.214
X180.673Y-51.5
X180.809Y-106.546
X180.835Y-117.888
X180.843Y-71.466
X180.848Y-117.343
X180.857Y-81.223
X180.939Y-52.667
X180.968Y-53.201
X181.027Y-51.1
X181.245Y-39.05
X181.286Y-119.179
X181.29Y-76.477
X181.355Y-38.3
X181.399Y-122.761
X181.443Y-37.407
X181.525Y-134.936
X181.583Y-44.103
X181.882Y-38.413
X182.182Y-100.087
X182.189Y-43.834
X182.252Y-120.468
X182.374Y-53.979
X182.475Y-74.528
X182.553Y-54.771
X182.588Y-41.396
X182.604Y-52.708
X182.634Y-38.02
X182.635Y-81.727
X182.64Y-121.212
X182.748Y-75.013
X182.8Y-89.396
X183.152Y-54.758
X183.283Y-125.823
X183.283Y-128.413
X183.487Y-51.1
X183.5Y-80.286
X183.532Y-54.367
X183.968Y-61.359
X184.179Y-34.253
X184.216Y-98.545
X184.366Y-71.466
X184.488Y-76.97
X184.554Y-50.3
X184.634Y-76.294
X184.743Y-98.36
X184.781Y-89.444
X184.82Y-82.157
X184.854Y-77.372
X184.898Y-133.099
X185.11Y-132.183
X185.344Y-78.743
X185.548Y-89.709
X185.55Y-67.961
X185.634Y-99.875
X185.636Y-37.63
X185.679Y-76.173
X185.919Y-119.557
X186.072Y-71.901
X186.074Y-71.036
X186.151Y-131.538
X186.285Y-135.777
X186.324Y-72.401
X186.381Y-99.733
X186.454Y-138.198
X186.484Y-58.727
X186.509Y-128.541
X186.762Y-34.606
X186.818Y-76.567
X186.851Y-102.005
X186.992Y-68.297
X187.119Y-58.282
X187.203Y-97.453
X187.276Y-57.66
X187.344Y-71.214
X187.452Y-99.733
X187.648Y-87.144
X187.672Y-128.541
X187.719Y-122.859
X187.892Y-36.7
X187.896Y-51.9
X187.984Y-90.655
X188.201Y-88.575
X188.234Y-141.878
X188.234Y-91.825
X188.298Y-87.925
X188.337Y-80.435
X188.369Y-71.219
X188.406Y-128.522
X188.447Y-126.468
X188.566Y-91.395
X188.623Y-90.525
X188.698Y-118.025
X188.698Y-123.675
X188.744Y-40.594
X188.76Y-140.488
X188.787Y-141.476
X188.844Y-89.225
X189.17Y-106.806
X189.271Y-40.467
X189.329Y-124.099
X189.373Y-126.044
X189.535Y-53.893
X189.563Y-107.496
X189.563Y-123.203
X189.564Y-125.025
X189.633Y-139.417
X190.026Y-125.378
X190.123Y-72.411
X190.714Y-126.468
X191.007Y-89.934
X191.23Y-95.61
X191.314Y-71.883
X191.49Y-127.874
X191.609Y-97.529
X191.616Y-128.401
X191.837Y-127.475
X191.883Y-64.259
X192.0Y-107.751
X192.209Y-126.605
X192.707Y-122.795
X192.998Y-138.715
X193.222Y-130.478
X193.262Y-75.347
X193.325Y-107.894
X193.472Y-101.176
X193.568Y-135.952
X193.579Y-109.352
X193.64Y-132.237
X193.715Y-117.231
X193.768Y-73.847
X193.827Y-104.407
X194.165Y-134.918
X194.181Y-132.357
X194.203Y-76.173
X194.289Y-131.027
X194.292Y-118.044
X194.324Y-133.488
X194.544Y-103.107
X194.616Y-117.621
X194.619Y-81.598
X194.751Y-113.596
X194.751Y-116.84
X194.837Y-138.002
X194.863Y-103.685
X194.972Y-110.551
X195.118Y-105.057
X195.183Y-109.207
X195.186Y-119.436
X195.26Y-138.381
X195.289Y-111.492
X195.346Y-76.168
X195.389Y-101.944
X195.397Y-74.573
X195.427Y-81.275
X195.487Y-72.467
X196.142Y-106.806
X196.45Y-72.414
X196.478Y-74.918
X196.691Y-116.689
X197.136Y-123.667
X197.174Y-107.825
X197.244Y-136.475
X197.538Y-102.457
X197.731Y-112.395
X197.735Y-110.346
X197.927Y-111.646
X197.974Y-114.776
X198.443Y-82.908
X198.583Y-133.618
X198.644Y-131.996
X199.056Y-125.525
X199.202Y-118.415
X199.284Y-133.024
X199.505Y-87.214
X199.546Y-112.946
X199.566Y-129.179
X199.639Y-83.687
X199.662Y-118.895
X199.675Y-133.662
X199.973Y-98.539
X200.183Y-137.616
X200.34Y-101.883
X200.35Y-103.187
X200.416Y-98.099
X200.897Y-128.653
X200.924Y-130.62
X200.984Y-101.345
X201.114Y-105.472
X201.296Y-113.596
X201.307Y-46.817
X201.757Y-116.88
X201.957Y-66.91
X201.96Y-63.755
X202.092Y-93.424
X202.134Y-120.049
X202.16Y-60.442
X202.532Y-123.575
X202.532Y-126.429
X202.532Y-122.925
X202.533Y-127.916
X202.551Y-54.309
X202.573Y-132.575
X202.655Y-78.759
X202.805Y-56.197
X202.86Y-133.402
X202.903Y-137.384
X202.926Y-125.525
X203.002Y-55.383
X203.182Y-78.584
X203.198Y-54.222
X203.201Y-44.747
X203.25Y-73.188
X203.262Y-84.083
X203.264Y-101.961
X203.271Y-100.968
X203.302Y-71.023
X203.321Y-126.908
X203.351Y-71.816
X203.407Y-124.872
X203.452Y-53.695
X203.471Y-118.669
X203.504Y-72.681
X203.692Y-47.831
X203.745Y-127.439
X203.941Y-102.457
X204.121Y-123.27
X204.122Y-131.074
X204.225Y-103.317
X204.272Y-133.114
X204.492Y-109.195
X204.616Y-110.3
X204.62Y-75.816
X204.681Y-104.886
X204.698Y-60.146
X204.766Y-92.153
X204.767Y-61.19
X204.781Y-62.145
X204.984Y-116.449
X204.998Y-44.117
X205.083Y-103.925
X205.143Y-60.806
X205.326Y-93.485
X205.455Y-104.672
X205.566Y-80.374
X205.623Y-119.981
X205.652Y-61.77
X205.652Y-63.05
X205.652Y-63.7
X205.652Y-64.284
X205.669Y-129.527
X205.906Y-62.4
X206.002Y-92.804
X206.006Y-124.776
X206.12Y-43.45
X206.122Y-65.899
X206.236Y-59.726
X206.26Y-50.95
X206.313Y-76.342
X206.318Y-77.827
X206.549Y-51.409
X206.592Y-41.949
X206.627Y-69.052
X206.63Y-59.15
X206.635Y-115.988
X206.649Y-52.097
X206.708Y-66.061
X206.712Y-82.155
X206.801Y-68.398
X206.821Y-97.361
X206.832Y-52.7
X206.955Y-117.086
X206.99Y-42.8
X207.177Y-117.793
X207.314Y-67.676
X207.475Y-85.271
X207.622Y-93.876
X207.686Y-57.761
X207.866Y-76.152
X207.908Y-97.818
X207.927Y-49.114
X208.189Y-98.285
X208.259Y-116.906
X208.262Y-115.993
X208.322Y-133.114
X208.335Y-99.658
X208.375Y-109.696
X208.584Y-117.326
X208.775Y-119.383
X208.815Y-112.9
X208.823Y-116.188
X208.825Y-128.256
X208.911Y-92.23
X208.967Y-52.599
X208.977Y-60.14
X209.168Y-41.602
X209.18Y-39.344
X209.23Y-85.728
X209.296Y-111.179
X209.772Y-83.204
X209.798Y-39.923
X209.951Y-114.932
X210.043Y-129.918
X210.276Y-84.343
X210.344Y-99.653
X210.415Y-133.005
X210.416Y-118.758
X210.447Y-115.181
X210.486Y-108.35
X210.596Y-129.918
X210.699Y-40.596
X210.981Y-75.375
X211.026Y-50.918
X211.148Y-129.915
X211.263Y-47.985
X211.798Y-132.632
X211.823Y-116.037
X212.097Y-83.814
X212.17Y-117.148
X212.204Y-86.672
X212.245Y-87.451
X212.246Y-38.198
X212.277Y-90.576
X212.516Y-84.511
X212.619Y-129.905
X212.735Y-65.532
X212.953Y-45.88
X213.085Y-56.039
X213.12Y-112.25
X213.652Y-82.638
X213.667Y-35.042
X213.693Y-119.511
X213.819Y-129.917
X213.831Y-90.482
X213.976Y-111.6
X214.178Y-111.064
X214.276Y-88.13
X214.28Y-82.84
X214.335Y-121.626
X214.426Y-85.891
X214.433Y-123.545
X214.521Y-80.067
X214.534Y-69.148
X214.594Y-70.664
X214.662Y-93.215
X214.694Y-55.059
X214.723Y-64.886
X214.758Y-37.948
X214.788Y-64.35
X214.832Y-122.278
X214.863Y-62.48
X214.981Y-133.957
X214.996Y-85.882
X215.137Y-124.193
X215.187Y-110.848
X215.285Y-49.92
X215.414Y-61.1
X215.565Y-83.379
X215.571Y-59.8
X215.605Y-123.66
X215.872Y-80.659
X215.912Y-108.295
X216.058Y-132.789
X216.127Y-119.511
X216.154Y-52.7
X216.155Y-53.55
X216.415Y-105.352
X216.445Y-104.609
X216.446Y-105.946
X216.446Y-103.309
X216.586Y-129.73
X216.623Y-114.2
X216.64Y-112.091
X216.677Y-132.642
X216.817Y-77.489
X216.886Y-106.439
X216.906Y-121.838
X217.01Y-81.35
X217.042Y-94.633
X217.042Y-96.272
X217.14Y-60.255
X217.289Y-130.986
X217.296Y-120.215
X217.592Y-75.166
X217.655Y-76.724
X217.757Y-34.731
X217.803Y-122.669
X218.035Y-97.7
X218.056Y-130.575
X218.29Y-95.683
X218.617Y-76.785
X218.844Y-51.6
X218.9Y-91.9
X218.905Y-92.448
X218.934Y-109.0
X219.011Y-77.489
X219.181Y-110.3
X219.433Y-103.959
X219.55Y-35.064
X219.556Y-121.438
X219.593Y-124.174
X219.86Y-110.822
X219.88Y-85.403
X219.922Y-94.022
X219.96Y-111.6
X220.118Y-50.517
X220.38Y-114.921
X220.569Y-92.938
X220.587Y-93.585
X220.668Y-122.587
X220.668Y-123.55
X220.724Y-103.959
X221.021Y-43.45
X221.684Y-123.023
X221.875Y-95.313
X221.917Y-127.089
X222.764Y-124.186
X223.445Y-94.022
X223.514Y-124.18
X223.716Y-122.156
X223.857Y-60.79
X223.924Y-54.415
X224.025Y-123.688
X224.234Y-82.432
X224.51Y-111.749
X224.51Y-113.157
X224.542Y-112.276
X224.636Y-118.625
X225.071Y-114.695
X225.126Y-132.9
X225.292Y-112.469
X225.326Y-125.324
X225.608Y-114.68
X225.718Y-132.972
X226.078Y-119.397
X226.306Y-114.392
X226.467Y-126.936
X226.526Y-132.441
X226.761Y-43.73
X227.065Y-61.782
X227.441Y-60.675
X227.578Y-59.935
X227.656Y-121.066
X227.804Y-62.237
X227.832Y-56.127
X228.12Y-60.025
X228.223Y-56.619
X228.573Y-36.545
X228.7Y-125.792
X228.766Y-59.441
X228.789Y-64.313
X228.846Y-101.35
X229.064Y-58.382
X229.466Y-37.088
X229.831Y-56.058
X229.933Y-36.809
X230.373Y-59.05
X230.548Y-57.013
X230.645Y-64.435
X230.675Y-43.215
X230.684Y-51.686
X230.684Y-54.773
X230.893Y-114.961
X230.992Y-117.73
X231.38Y-114.702
X231.391Y-141.179
X231.673Y-39.234
X231.983Y-46.927
X232.094Y-100.095
X232.138Y-56.897
X232.153Y-111.508
X232.154Y-112.313
X232.288Y-92.858
X232.353Y-97.604
X232.475Y-117.633
X232.742Y-38.343
X232.764Y-48.065
X232.767Y-121.492
X233.086Y-65.127
X233.386Y-74.574
X233.494Y-39.791
X233.623Y-34.594
X233.669Y-113.233
X233.733Y-48.474
X233.816Y-53.4
X233.817Y-54.039
X233.818Y-52.129
X233.824Y-52.75
X233.829Y-51.585
X233.978Y-43.405
X233.997Y-34.985
X234.008Y-59.375
X234.114Y-38.183
X234.178Y-110.007
X234.228Y-60.314
X234.453Y-111.944
X234.463Y-33.0
X234.591Y-67.345
X234.694Y-112.838
X235.754Y-113.242
X236.155Y-69.485
X236.387Y-45.103
X236.513Y-41.981
X236.566Y-41.445
X236.66Y-62.101
X236.834Y-45.55
X236.848Y-42.976
X236.865Y-85.844
X236.877Y-92.6
X236.877Y-97.284
X236.878Y-39.093
X236.936Y-42.383
X236.937Y-50.15
X237.037Y-55.082
X237.045Y-61.325
X237.359Y-51.74
X237.389Y-70.688
X237.407Y-54.502
X237.409Y-44.25
X237.469Y-104.439
X237.469Y-113.465
X237.486Y-81.65
X237.593Y-131.556
X237.624Y-55.664
X237.833Y-102.525
X237.869Y-104.83
X237.943Y-47.875
X238.123Y-92.14
X238.181Y-47.367
X238.318Y-56.59
X238.334Y-102.179
X238.488Y-114.285
X238.835Y-65.079
X238.967Y-76.483
X239.023Y-55.919
X239.449Y-48.176
X239.494Y-65.499
X239.541Y-50.316
X239.547Y-51.45
X239.549Y-50.844
X239.551Y-41.65
X239.551Y-58.084
X239.591Y-43.6
X239.626Y-76.092
X239.645Y-104.048
X239.744Y-52.1
X239.849Y-44.41
X239.894Y-42.901
X239.896Y-115.299
X240.135Y-52.491
X240.148Y-54.05
X240.152Y-53.4
X240.241Y-67.875
X240.261Y-68.57
X240.263Y-123.044
X240.329Y-71.125
X240.387Y-69.101
X240.468Y-37.843
X240.72Y-70.65
X240.931Y-36.176
X240.991Y-74.236
X241.055Y-70.239
X241.12Y-114.684
X241.32Y-37.783
X241.473Y-52.887
X241.582Y-60.473
X241.584Y-118.885
X241.658Y-49.886
X241.679Y-63.177
X241.732Y-122.391
X241.739Y-52.318
X242.049Y-119.98
X242.051Y-50.709
X242.241Y-121.883
X242.327Y-37.936
X242.385Y-61.03
X242.613Y-69.192
X242.655Y-74.236
X242.759Y-72.872
X242.806Y-71.691
X242.854Y-70.359
X243.085Y-37.617
X243.338Y-69.933
X244.263Y-121.528
X245.026Y-120.007
X245.134Y-56.577
X245.227Y-60.033
X245.481Y-58.609
X245.738Y-87.631
X245.941Y-88.4
X245.941Y-97.633
X245.943Y-55.249
X246.16Y-78.177
X246.339Y-102.25
X246.403Y-48.85
X246.403Y-61.459
X246.45Y-119.961
X246.698Y-38.958
X247.379Y-115.374
X247.934Y-115.376
X248.672Y-114.069
X248.747Y-115.388
X248.864Y-50.428
X248.864Y-87.371
X248.937Y-36.579
X248.937Y-43.283
X248.937Y-80.211
X248.937Y-94.058
X248.959Y-57.113
X249.303Y-141.233
X249.575Y-115.226
X249.84Y-75.352
X249.84Y-82.981
X249.84Y-96.831
X249.84Y-61.502
X249.955Y-46.85
X249.956Y-70.272
X249.957Y-102.128
X249.962Y-65.317
X249.967Y-33.0
X250.17Y-115.244
X250.796Y-143.318
X253.433Y-98.587
X254.133Y-34.19
X254.133Y-36.736
X254.133Y-41.352
X254.133Y-55.205
X254.133Y-66.502
X254.133Y-69.048
X254.133Y-80.359
X254.133Y-82.901
X254.133Y-87.509
X254.133Y-101.364
X254.148Y-48.033
X254.148Y-52.652
X254.148Y-94.206
X254.487Y-73.671
X254.509Y-59.803
T2
X76.519Y-58.772
X77.672Y-117.711
X77.678Y-70.751
X78.85Y-93.87
X80.827Y-90.999
X81.743Y-139.262
X82.05Y-39.203
X84.73Y-47.297
X87.173Y-64.441
X91.802Y-138.642
X96.817Y-110.95
X97.444Y-41.244
X101.194Y-106.87
X101.287Y-61.385
X105.258Y-137.029
X107.205Y-133.347
X109.353Y-65.366
X110.236Y-43.807
X116.675Y-62.176
X117.41Y-133.351
X122.998Y-71.583
X123.666Y-42.396
X123.885Y-67.926
X124.465Y-83.335
X129.044Y-65.838
X134.326Y-59.276
X137.106Y-91.306
X137.111Y-99.266
X137.943Y-86.843
X138.009Y-60.652
X139.279Y-65.191
X140.773Y-102.723
X142.928Y-132.937
X147.492Y-46.755
X148.564Y-37.274
X149.114Y-42.675
X151.193Y-31.762
X158.218Y-40.482
X160.305Y-69.563
X163.01Y-135.908
X164.763Y-46.383
X166.587Y-131.364
X166.947Y-36.796
X170.596Y-105.376
X172.892Y-58.667
X172.892Y-68.896
X175.111Y-99.999
X175.223Y-132.541
X175.545Y-88.163
X177.493Y-99.074
X180.604Y-64.383
X183.199Y-92.178
X188.217Y-44.607
X189.263Y-32.827
X192.707Y-66.354
X197.688Y-126.804
X197.869Y-105.708
X198.044Y-137.121
X200.709Y-121.46
X202.816Y-131.274
X203.599Y-99.911
X207.938Y-108.395
X208.308Y-46.259
X209.612Y-57.723
X210.434Y-105.387
X210.65Y-119.63
X211.683Y-80.878
X211.712Y-54.422
X214.227Y-94.912
X218.109Y-125.885
X221.586Y-108.35
X222.429Y-99.408
X226.446Y-113.17
X234.546Y-63.41
X234.64Y-46.821
X236.213Y-74.218
X237.699Y-65.093
X238.549Y-113.16
T3
X96.7Y-119.45
X101.58Y-119.45
T4
X70.1Y-53.0
X70.2Y-64.6
X70.2Y-67.14
X70.2Y-69.68
X70.2Y-72.22
X70.2Y-74.76
X70.2Y-77.3
X70.2Y-79.84
X70.2Y-82.38
X70.2Y-84.92
X70.2Y-87.46
X70.2Y-90.0
X70.2Y-92.54
X70.2Y-95.08
X70.2Y-97.62
X70.2Y-100.16
X70.2Y-102.7
X72.64Y-53.0
X75.18Y-53.0
X77.72Y-53.0
X80.26Y-53.0
X82.8Y-53.0
X85.34Y-53.0
X87.88Y-53.0
X90.42Y-53.0
X92.96Y-53.0
X95.5Y-53.0
X98.04Y-53.0
X100.58Y-53.0
X103.12Y-53.0
X105.66Y-53.0
X108.2Y-53.0
X110.45Y-108.7
X110.45Y-111.24
X110.45Y-113.78
X126.16Y-109.1
X128.7Y-109.1
X138.8Y-116.0
X141.34Y-116.0
X143.88Y-116.0
X146.42Y-116.0
X148.96Y-116.0
X151.5Y-116.0
X154.04Y-116.0
X156.58Y-116.0
X159.12Y-116.0
X161.66Y-116.0
X164.2Y-116.0
X166.74Y-116.0
X169.28Y-116.0
X171.82Y-116.0
X174.36Y-116.0
X176.9Y-116.0
X207.15Y-146.1
X209.69Y-146.1
X212.23Y-146.1
X214.77Y-146.1
X222.8Y-36.0
X222.8Y-38.54
X222.8Y-41.08
X222.8Y-43.62
X222.8Y-46.16
X222.8Y-48.7
X222.8Y-51.24
X222.8Y-53.78
X222.8Y-56.32
X222.8Y-58.86
X222.8Y-61.4
X222.8Y-63.94
X222.8Y-66.48
X222.8Y-69.02
X222.8Y-71.56
X222.8Y-74.1
X224.9Y-146.1
X225.34Y-36.0
X225.34Y-38.54
X225.34Y-41.08
X225.34Y-43.62
X225.34Y-46.16
X225.34Y-48.7
X225.34Y-51.24
X225.34Y-53.78
X225.34Y-56.32
X225.34Y-58.86
X225.34Y-61.4
X225.34Y-63.94
X225.34Y-66.48
X225.34Y-69.02
X225.34Y-71.56
X225.34Y-74.1
X227.44Y-146.1
X229.98Y-146.1
X232.52Y-146.1
X239.35Y-145.9
X241.89Y-145.9
X248.41Y-132.18
X248.41Y-134.72
X248.41Y-137.26
X248.41Y-139.8
X250.95Y-132.18
X250.95Y-134.72
X250.95Y-137.26
X250.95Y-139.8
T0
M30
